<?xml version="1.0" standalone="no"?>
<!DOCTYPE svg PUBLIC "-//W3C//DTD SVG 20010904//EN"
 "http://www.w3.org/TR/2001/REC-SVG-20010904/DTD/svg10.dtd">
<svg version="1.0" xmlns="http://www.w3.org/2000/svg"
 width="736.000000pt" height="920.000000pt" viewBox="0 0 736.000000 920.000000"
 preserveAspectRatio="xMidYMid meet">

<g transform="translate(0.000000,920.000000) scale(0.100000,-0.100000)"
fill="#000000" stroke="none">
<path d="M3801 8207 c-6 -8 -9 -34 -6 -58 6 -71 -28 -160 -84 -218 -54 -56
-72 -62 -213 -66 -51 -1 -106 -5 -123 -8 -132 -25 -222 -54 -387 -126 -26 -12
-49 -21 -52 -21 -6 0 -137 -88 -156 -105 -82 -75 -183 -178 -209 -215 -17 -24
-44 -52 -59 -62 -65 -43 -222 -190 -222 -209 0 -5 -20 -34 -45 -65 -25 -30
-45 -59 -45 -64 0 -5 -16 -21 -35 -36 -29 -22 -45 -26 -90 -25 -29 0 -57 -4
-60 -10 -4 -6 -4 -30 -1 -53 8 -50 71 -126 105 -126 27 0 26 -11 -6 -106 -23
-70 -26 -93 -25 -202 1 -68 6 -132 12 -142 5 -10 10 -26 10 -35 0 -8 11 -33
25 -55 32 -50 42 -95 25 -115 -23 -27 -80 -127 -80 -140 0 -6 -7 -26 -16 -44
-39 -79 -42 -328 -5 -441 26 -78 68 -165 87 -181 8 -6 14 -15 14 -20 0 -5 33
-42 73 -84 65 -68 80 -78 157 -106 77 -28 91 -30 165 -24 44 3 87 8 95 11 9 2
40 -12 70 -31 34 -22 67 -35 87 -35 24 0 45 -11 81 -43 31 -28 66 -48 94 -55
40 -10 45 -14 45 -41 0 -25 -4 -29 -36 -34 -20 -3 -74 -13 -121 -22 -47 -9
-92 -17 -100 -17 -30 -1 -98 -50 -124 -88 -24 -36 -49 -116 -41 -130 2 -3 9
-79 16 -169 l12 -163 -42 -37 c-22 -20 -41 -41 -41 -48 0 -6 -6 -16 -14 -22
-8 -7 -18 -27 -22 -44 -7 -35 -29 -56 -56 -57 -10 0 -18 -4 -18 -10 0 -5 -5
-10 -12 -10 -13 0 -125 -55 -148 -73 -9 -7 -24 -23 -33 -37 -16 -24 -39 -40
-137 -93 -25 -14 -56 -37 -69 -51 -14 -14 -30 -26 -36 -26 -7 0 -32 -21 -57
-48 -25 -26 -51 -51 -58 -57 -32 -28 -110 -121 -110 -133 0 -7 -7 -15 -15 -18
-8 -4 -15 -12 -15 -20 0 -8 -5 -14 -10 -14 -6 0 -14 -8 -17 -17 -6 -17 -53
-93 -63 -103 -23 -22 -142 -303 -169 -400 -7 -25 -26 -83 -41 -130 -16 -47
-33 -107 -39 -135 -29 -151 -45 -222 -51 -240 -15 -38 -39 -178 -45 -262 -2
-24 -8 -57 -14 -75 -5 -18 -15 -64 -22 -102 -11 -67 -11 -69 12 -87 33 -26
141 -79 160 -79 8 0 20 -5 25 -10 14 -14 174 -70 201 -70 12 0 32 -4 45 -9 13
-5 41 -14 63 -19 22 -6 60 -16 85 -23 25 -7 63 -16 85 -20 22 -4 63 -13 90
-19 28 -6 66 -13 85 -15 133 -13 168 -17 195 -25 43 -13 178 -21 193 -12 14 9
16 29 32 237 6 77 14 181 18 230 9 97 7 912 -2 1035 -3 41 -10 102 -16 135
-25 139 -42 221 -51 243 -5 13 -9 31 -9 41 0 18 -23 103 -40 146 -39 102 -65
147 -120 212 -13 15 32 50 113 88 46 21 64 25 81 17 23 -10 106 -112 106 -129
0 -6 6 -16 14 -22 8 -7 17 -28 21 -48 3 -19 10 -43 15 -52 12 -23 58 -179 65
-221 3 -19 10 -46 15 -60 5 -14 12 -56 15 -95 13 -146 14 -161 20 -192 20
-107 20 -780 0 -1148 -5 -102 -7 -135 -20 -331 -9 -128 -10 -125 74 -131 31
-2 79 -5 106 -7 144 -11 608 -26 835 -27 214 -1 579 9 630 16 71 10 117 15
207 19 50 3 140 13 199 21 60 9 118 17 129 17 37 1 230 30 250 38 11 4 63 13
115 19 52 7 100 17 107 22 6 6 16 8 21 5 10 -6 62 9 170 50 34 13 72 24 85 24
12 0 49 13 82 29 33 16 95 45 138 65 80 37 90 48 90 95 0 40 -11 130 -17 140
-3 5 -8 30 -11 56 -4 27 -10 56 -14 64 -5 9 -11 45 -15 79 -4 35 -12 76 -17
90 -6 15 -12 41 -13 57 -3 33 -24 129 -36 160 -8 22 -28 93 -56 195 -10 36
-28 90 -42 120 -13 30 -33 82 -44 115 -12 33 -31 76 -43 95 -12 19 -26 46 -30
60 -4 14 -13 32 -19 40 -6 8 -19 30 -29 48 -10 17 -31 47 -48 64 -16 18 -29
38 -29 45 0 7 -4 13 -9 13 -4 0 -20 17 -34 38 -33 50 -162 182 -212 218 -22
15 -57 43 -78 61 -43 38 -163 117 -193 127 -29 10 -69 48 -100 97 -16 24 -32
46 -36 49 -28 22 -31 147 -4 215 19 50 26 82 33 167 8 89 -20 159 -82 211 -24
20 -48 37 -52 37 -5 0 -18 7 -31 15 -21 16 -21 16 56 93 42 42 85 87 95 100
40 51 97 140 97 150 0 6 11 32 25 57 14 24 25 46 25 47 -1 2 4 17 10 33 6 17
12 35 14 40 2 6 31 18 64 28 33 10 71 29 84 42 13 14 29 25 35 25 13 0 49 52
89 125 12 22 33 82 48 133 23 80 27 113 28 236 1 114 -3 150 -16 176 -9 18
-16 38 -16 44 0 6 -6 22 -13 36 -29 56 -28 70 14 127 23 30 52 87 65 126 22
64 24 83 19 175 -5 98 -4 102 15 102 70 0 178 101 206 193 14 44 3 55 -57 55
-50 0 -112 41 -134 89 -10 21 -23 45 -31 53 -7 8 -27 42 -44 75 -17 33 -41 76
-52 95 -26 41 -120 134 -160 158 -16 9 -28 21 -28 27 0 6 18 28 40 50 45 44
73 119 68 180 l-3 40 -43 -2 c-24 -1 -50 -7 -58 -14 -20 -16 -159 -5 -210 16
-54 24 -98 47 -104 55 -3 4 -20 15 -37 24 -18 9 -33 21 -33 26 0 5 -10 12 -22
16 -13 3 -50 27 -83 52 -33 24 -76 52 -95 60 -19 9 -42 21 -50 28 -13 9 -56
27 -145 60 -11 4 -29 9 -40 10 -11 1 -38 7 -60 12 -37 8 -103 8 -167 -1 -32
-5 -46 8 -47 43 -1 113 -106 276 -203 317 -39 17 -83 16 -97 0z m-371 -419
c-45 -13 -52 -16 -70 -27 -8 -6 -44 -22 -80 -38 -36 -15 -66 -31 -68 -35 -2
-4 -8 -8 -14 -8 -6 0 -25 -11 -42 -23 -17 -13 -48 -32 -68 -41 -70 -33 -290
-271 -322 -348 -8 -19 -22 -40 -30 -48 -9 -7 -16 -20 -16 -29 0 -9 -5 -22 -11
-28 -14 -14 -79 -161 -79 -178 0 -6 -9 -31 -21 -55 -12 -24 -24 -67 -28 -95
-4 -28 -11 -57 -16 -65 -5 -8 -10 -31 -12 -50 -4 -68 -29 -246 -36 -257 -4 -7
-41 -11 -92 -12 -97 -1 -91 -9 -75 99 5 36 11 83 14 105 14 109 60 298 78 320
4 5 8 19 8 31 0 13 5 26 10 29 6 3 10 14 10 23 0 9 16 46 35 82 20 36 47 89
61 118 14 28 29 52 33 52 5 0 21 19 36 42 36 54 201 218 219 218 8 0 16 7 20
15 3 8 17 20 32 25 14 6 45 24 69 40 24 17 50 30 57 30 7 0 27 9 44 19 17 10
46 22 65 26 18 4 40 12 49 17 32 19 170 53 221 55 52 2 53 1 19 -9z m1276
-985 c25 -63 118 -247 130 -258 6 -5 23 -31 37 -57 15 -26 36 -49 46 -53 11
-3 26 -17 35 -30 11 -16 39 -31 88 -46 40 -13 78 -27 84 -31 12 -9 12 -184 0
-288 -4 -30 -11 -95 -17 -145 -6 -49 -13 -121 -16 -160 -2 -38 -6 -92 -8 -120
-2 -27 -6 -93 -9 -145 -4 -52 -10 -108 -16 -125 -5 -16 -14 -59 -20 -95 -15
-93 -34 -145 -100 -282 -23 -47 -48 -89 -56 -92 -8 -3 -14 -10 -14 -15 0 -5
-12 -22 -27 -38 -16 -16 -44 -47 -63 -69 -43 -48 -118 -114 -131 -114 -5 0 -9
-4 -9 -10 0 -5 -6 -10 -14 -10 -8 0 -21 -6 -28 -12 -20 -19 -56 -38 -71 -38
-7 0 -29 -11 -49 -25 -20 -14 -41 -25 -46 -25 -5 0 -27 -8 -48 -17 -44 -19
-49 -20 -154 -31 -142 -15 -385 21 -537 79 -110 42 -198 81 -214 95 -8 8 -21
14 -28 14 -7 0 -30 14 -51 30 -21 17 -44 30 -51 30 -8 0 -31 16 -53 35 -21 19
-42 35 -46 35 -8 0 -111 105 -157 159 -15 19 -40 48 -54 65 -15 17 -37 51 -49
76 -12 25 -26 52 -31 60 -39 63 -43 79 -29 122 7 24 14 57 16 73 1 17 7 48 11
70 5 22 10 87 12 145 1 62 8 115 16 130 25 49 33 127 30 295 -2 94 -5 176 -7
184 -2 9 14 20 46 31 46 17 156 94 156 111 0 4 18 30 41 59 22 28 47 66 54 84
15 35 45 67 45 47 0 -6 -7 -28 -16 -50 -9 -22 -16 -61 -17 -88 -2 -47 -1 -48
30 -51 18 -2 43 4 55 12 12 9 29 16 38 16 20 0 73 27 132 68 54 37 178 159
178 176 1 6 14 27 30 46 17 19 30 40 30 47 0 7 4 21 10 31 5 9 17 34 26 56 17
38 18 38 27 15 12 -31 37 -126 44 -164 13 -82 4 -242 -17 -292 -15 -36 7 -71
48 -79 59 -11 168 4 226 32 32 15 82 53 121 92 48 48 66 61 65 47 -1 -11 -2
-37 -1 -57 1 -30 5 -38 20 -38 10 0 24 7 31 15 6 8 22 17 33 21 24 7 117 98
117 114 0 5 5 10 10 10 6 0 10 7 10 16 0 8 11 30 24 47 14 18 28 46 32 62 4
17 10 35 14 40 9 12 23 70 25 105 0 14 2 40 3 58 3 42 10 41 28 -5z m-2178
-479 c4 -78 -7 -90 -82 -93 -31 -1 -67 -6 -81 -11 -32 -12 -38 -1 -36 64 2 70
5 86 20 95 6 4 49 7 94 7 l81 -1 4 -61z m144 -131 c27 -17 138 -169 138 -191
0 -5 11 -35 25 -66 14 -31 25 -59 25 -64 0 -4 5 -24 11 -45 5 -21 12 -50 14
-65 2 -15 7 -45 12 -67 21 -98 4 -307 -32 -390 -7 -16 -21 -49 -30 -72 -10
-23 -29 -53 -44 -66 -23 -22 -85 -47 -118 -47 -13 0 10 46 52 105 31 43 45
101 56 232 14 180 -8 351 -62 469 -11 23 -19 48 -19 56 0 22 -53 100 -104 154
-43 44 -45 50 -30 61 25 18 71 16 106 -4z m-184 -42 c46 -24 96 -77 126 -134
13 -23 28 -52 35 -62 14 -25 41 -102 47 -135 38 -202 42 -258 26 -380 -20
-149 -42 -199 -117 -275 -43 -44 -60 -55 -86 -55 -42 0 -149 22 -149 31 0 3
21 14 47 24 26 10 60 32 76 49 35 38 78 120 84 161 2 16 8 43 13 59 6 16 10
85 10 153 0 101 -4 134 -21 181 -12 31 -24 73 -28 92 -15 69 -61 133 -142 193
-30 22 -46 27 -97 27 -33 0 -63 4 -66 9 -10 15 54 56 107 68 75 16 93 15 135
-6z m2862 -289 c29 -102 19 -311 -20 -417 -21 -58 -69 -143 -100 -176 -36 -38
-108 -84 -117 -75 -3 3 9 26 26 52 17 26 31 57 31 68 0 12 11 44 24 73 14 28
27 73 31 100 13 93 15 299 4 366 -9 57 -9 74 4 100 8 18 21 45 28 60 l13 29
29 -59 c16 -32 37 -87 47 -121z m-2952 131 c52 -43 102 -134 128 -235 14 -55
21 -243 11 -298 -14 -76 -34 -130 -64 -171 -49 -68 -75 -83 -135 -75 -57 8
-80 19 -120 61 -33 34 -98 164 -98 196 0 12 -7 49 -16 83 -12 46 -14 81 -9
146 4 47 8 96 9 110 2 26 11 52 27 82 5 10 9 25 9 33 0 8 5 15 10 15 6 0 10 5
10 11 0 13 57 62 84 71 45 15 115 2 154 -29z m764 -1210 c45 -48 54 -54 194
-147 32 -22 65 -46 72 -53 7 -7 18 -13 24 -13 6 0 25 -11 43 -24 32 -24 146
-85 200 -107 41 -16 13 -25 -34 -10 -20 6 -70 18 -111 27 -83 18 -158 40 -207
61 -17 7 -35 13 -39 13 -10 0 -173 58 -201 72 -19 9 -22 17 -17 52 2 23 6 68
8 101 3 33 5 64 5 68 1 12 33 -8 63 -40z"/>
<path d="M3525 6276 c-5 -2 -37 -10 -70 -17 -89 -20 -159 -60 -163 -94 -6 -46
16 -52 182 -55 83 -1 160 -2 171 -2 11 1 81 1 156 1 114 0 140 3 153 17 21 20
18 84 -4 94 -44 23 -101 42 -136 47 -46 7 -275 13 -289 9z"/>
<path d="M4729 6275 c-3 -2 -27 -6 -54 -9 -104 -11 -175 -35 -204 -70 -14 -17
-7 -71 11 -82 14 -9 508 -8 536 0 12 4 25 19 28 33 14 56 -34 85 -171 108 -55
8 -109 18 -121 20 -12 3 -23 3 -25 0z"/>
<path d="M3547 5934 c-1 -2 -42 -8 -90 -14 -93 -11 -170 -39 -180 -63 -3 -8 0
-23 8 -33 11 -16 20 -17 86 -7 41 5 75 9 77 8 1 -1 5 -26 9 -54 5 -45 11 -57
46 -86 48 -41 96 -46 156 -15 41 21 71 75 71 130 0 16 4 31 8 34 5 3 41 0 82
-5 68 -10 74 -9 94 10 53 53 -54 88 -287 95 -43 1 -79 1 -80 0z"/>
<path d="M4549 5912 c-81 -21 -115 -42 -106 -65 4 -10 20 -20 35 -23 26 -5 31
-12 41 -60 18 -78 88 -133 154 -118 59 13 102 74 119 169 3 17 10 19 43 15 91
-10 147 -6 159 13 16 24 -1 46 -49 64 -65 23 -314 27 -396 5z"/>
<path d="M3220 5575 c-16 -19 -5 -47 17 -43 11 2 18 12 18 27 0 29 -17 37 -35
16z"/>
<path d="M4897 5583 c-10 -9 -8 -41 2 -47 18 -11 41 6 41 30 0 17 -6 24 -18
24 -10 0 -22 -3 -25 -7z"/>
<path d="M4715 5470 c-11 -17 6 -50 25 -50 19 0 36 33 25 50 -3 5 -15 10 -25
10 -10 0 -22 -5 -25 -10z"/>
<path d="M3410 5445 c0 -22 4 -26 23 -23 14 2 22 10 22 23 0 13 -8 21 -22 23
-19 3 -23 -1 -23 -23z"/>
<path d="M4317 5363 c-46 -27 -58 -39 -55 -56 5 -34 41 -32 95 6 50 35 65 63
41 78 -17 11 -15 12 -81 -28z"/>
<path d="M3284 5375 c-9 -23 4 -47 23 -43 22 4 30 38 11 49 -19 13 -28 11 -34
-6z"/>
<path d="M4826 5364 c-4 -10 -2 -22 3 -27 15 -15 46 -3 46 18 0 26 -40 33 -49
9z"/>
<path d="M4055 4991 c-60 -8 -75 -16 -75 -41 0 -21 39 -37 65 -26 15 5 244 8
335 3 46 -2 60 12 42 41 -16 24 -243 38 -367 23z"/>
<path d="M4162 7988 c-15 -15 -16 -54 -2 -63 6 -4 10 5 10 19 0 32 15 34 24 4
5 -19 8 -21 16 -8 8 12 12 12 18 2 6 -9 18 -11 35 -7 20 5 28 3 33 -9 7 -19
24 -21 24 -3 0 21 -37 50 -55 43 -8 -3 -30 3 -48 14 -38 23 -39 24 -55 8z"/>
<path d="M4386 7961 c-27 -30 -17 -56 22 -56 19 0 32 -5 32 -12 0 -27 39 -54
68 -47 46 11 49 24 5 24 -44 0 -53 10 -53 59 0 50 -42 68 -74 32z m44 -16 c0
-16 -27 -32 -37 -21 -7 7 16 36 28 36 5 0 9 -7 9 -15z"/>
<path d="M4632 7908 c-7 -7 -12 -29 -12 -49 0 -24 -5 -39 -16 -43 -8 -3 -12
-10 -9 -16 4 -7 12 -7 25 0 11 6 39 8 62 5 39 -5 40 -4 15 6 -25 10 -27 14
-21 45 9 48 -17 79 -44 52z m19 -51 c-8 -8 -11 -7 -11 4 0 20 13 34 18 19 3
-7 -1 -17 -7 -23z"/>
<path d="M4770 7825 c0 -2 5 -15 11 -29 10 -20 8 -30 -10 -59 -25 -41 -11 -61
15 -21 l17 26 14 -26 c14 -26 33 -35 33 -15 0 6 -7 17 -15 25 -8 9 -15 24 -15
33 0 10 7 24 15 31 23 19 18 32 -7 19 -17 -9 -24 -9 -33 5 -12 15 -25 21 -25
11z"/>
</g>
</svg>
