<?xml version="1.0" encoding="UTF-8" standalone="no"?>
<svg
   version="1.1"
   width="922"
   height="1152"
   id="svg33"
   sodipodi:docname="New_face_logo.svg"
   inkscape:version="1.4.2 (f4327f4, 2025-05-13)"
   xmlns:inkscape="http://www.inkscape.org/namespaces/inkscape"
   xmlns:sodipodi="http://sodipodi.sourceforge.net/DTD/sodipodi-0.dtd"
   xmlns="http://www.w3.org/2000/svg"
   xmlns:svg="http://www.w3.org/2000/svg">
  <defs
     id="defs33" />
  <sodipodi:namedview
     id="namedview33"
     pagecolor="#505050"
     bordercolor="#eeeeee"
     borderopacity="1"
     inkscape:showpageshadow="0"
     inkscape:pageopacity="0"
     inkscape:pagecheckerboard="0"
     inkscape:deskcolor="#505050"
     inkscape:zoom="1.4461806"
     inkscape:cx="291.80312"
     inkscape:cy="688.36495"
     inkscape:window-width="1920"
     inkscape:window-height="1051"
     inkscape:window-x="-9"
     inkscape:window-y="-9"
     inkscape:window-maximized="1"
     inkscape:current-layer="svg33" />
  <path
     d="M0 0 C5.10790672 0.10762202 9.67248023 1.52848011 13.9375 4.375 C14.2675 5.365 14.5975 6.355 14.9375 7.375 C16.05125 8.0246875 16.05125 8.0246875 17.1875 8.6875 C23.79476553 12.74195839 26.46197769 19.07190814 29.703125 25.86328125 C30.71163578 28.25671386 30.71163578 28.25671386 31.9375 29.375 C32.33743686 32.06362664 32.68884543 34.73852217 33 37.4375 C33.13631836 38.57541992 33.13631836 38.57541992 33.27539062 39.73632812 C33.4999374 41.6154301 33.71920978 43.49516095 33.9375 45.375 C34.55044922 45.35405273 35.16339844 45.33310547 35.79492188 45.31152344 C48.92363723 44.92365189 60.38483867 45.37793319 72.9375 49.375 C73.68354492 49.56924561 74.42958984 49.76349121 75.19824219 49.96362305 C82.24141303 51.85572438 88.23778337 54.97793096 94.5625 58.5625 C95.56667969 59.12130859 96.57085938 59.68011719 97.60546875 60.25585938 C100.05447049 61.6203032 102.49815621 62.99338794 104.9375 64.375 C104.9375 65.035 104.9375 65.695 104.9375 66.375 C105.845 66.6225 106.7525 66.87 107.6875 67.125 C111.13452761 68.45077985 112.41428784 69.77293746 114.9375 72.375 C116.92895391 73.39191264 118.92937074 74.39142648 120.9375 75.375 C123.31817481 77.22663597 125.64654924 79.13689881 127.98046875 81.046875 C134.03802905 85.6715703 139.7452779 87.82041326 147.12890625 89.6484375 C149.9375 90.375 149.9375 90.375 150.9375 91.375 C159.67573293 93.01341867 166.45003213 93.09685941 174.578125 89.15234375 C177.45096768 88.2058277 179.0861044 88.43600593 181.9375 89.375 C184.07750874 93.65501747 183.49597149 98.74076061 182.9375 103.375 C180.51718093 110.48900927 176.92245028 116.14134196 171.2578125 121.0703125 C170.82210938 121.50085938 170.38640625 121.93140625 169.9375 122.375 C169.9375 123.035 169.9375 123.695 169.9375 124.375 C171.72161059 125.75837734 171.72161059 125.75837734 174 127.125 C181.35629234 131.91407295 186.38485909 136.54248999 191.26171875 143.91015625 C192.89941914 146.41240325 192.89941914 146.41240325 194.890625 148.6796875 C197.45632225 152.05818197 199.18327827 155.61853389 201 159.4375 C203.04414781 163.70879551 204.98206782 167.64552606 207.9375 171.375 C208.246875 172.179375 208.55625 172.98375 208.875 173.8125 C210.56695353 177.89309381 212.74302816 180.54805796 216.375 183.0625 C221.74697559 185.0416489 227.27576321 185.66098275 232.9375 186.375 C234.65861972 192.7453782 231.97264857 196.81709842 228.8359375 202.30078125 C224.64391714 208.73139752 218.08259755 213.63857966 210.9375 216.375 C207.0625 216.5625 207.0625 216.5625 203.9375 216.375 C204.07857747 217.83380109 204.22552415 219.29203551 204.375 220.75 C204.45621094 221.56210937 204.53742187 222.37421875 204.62109375 223.2109375 C204.82840114 225.41772805 204.82840114 225.41772805 205.9375 227.375 C207.35038272 242.61394929 203.24732682 257.47278927 193.6875 269.5625 C192.90632812 270.48095703 192.90632812 270.48095703 192.109375 271.41796875 C190.60174584 273.93570945 190.60797586 275.48251033 190.9375 278.375 C191.80375 280.0146875 191.80375 280.0146875 192.6875 281.6875 C202.54544635 300.94570234 201.69617426 326.71993181 195.63745117 346.98901367 C192.99299523 354.97389194 189.37780506 362.25028691 184.9375 369.375 C184.44894531 370.17808594 183.96039062 370.98117187 183.45703125 371.80859375 C180.56505947 376.23108599 180.56505947 376.23108599 177.859375 376.8515625 C177.22515625 377.02429688 176.5909375 377.19703125 175.9375 377.375 C175.6075 378.365 175.2775 379.355 174.9375 380.375 C169.04129679 384.55820102 162.2661945 387.80609968 154.9375 387.375 C154.82148437 387.88160156 154.70546875 388.38820313 154.5859375 388.91015625 C153.70643143 392.25333895 152.64076992 395.52955319 151.5625 398.8125 C151.35367187 399.46798828 151.14484375 400.12347656 150.9296875 400.79882812 C149.65921682 404.66059417 148.14956833 407.970442 145.9375 411.375 C145.339375 412.4475 144.74125 413.52 144.125 414.625 C138.27303283 424.80043545 130.891972 435.63790335 121.9375 443.375 C121.2775 443.375 120.6175 443.375 119.9375 443.375 C119.5971875 444.2103125 119.5971875 444.2103125 119.25 445.0625 C117.57853234 448.00746684 115.38473648 450.05656544 112.9375 452.375 C115.01459603 454.06744862 116.7737669 455.31400671 119.296875 456.25390625 C125.15597663 458.74142425 130.41953739 463.67216235 133.5 469.25 C137.9563999 480.99129106 135.58331444 498.13104442 130.9375 509.375 C128.65831224 516.31919196 128.44698037 523.212503 129.9375 530.375 C131.53214486 533.39455161 133.41625482 536.12817963 135.4375 538.875 C136.91927986 540.9003914 138.14238864 542.76615104 139.3125 545 C142.79238905 550.08599169 148.35932256 552.76725263 153.84765625 555.28515625 C156.69521531 556.77014499 159.28052433 558.57276214 161.9375 560.375 C162.93910156 561.02339844 163.94070313 561.67179688 164.97265625 562.33984375 C165.97167969 562.99082031 166.97070312 563.64179687 168 564.3125 C169.00160156 564.96089844 170.00320313 565.60929688 171.03515625 566.27734375 C173.99758958 568.41842948 176.38603706 570.76592338 178.9375 573.375 C180.48492298 574.62309418 182.04839196 575.85148223 183.625 577.0625 C189.13825766 581.53169388 194.2063838 586.38463078 199.25 591.375 C200.01465576 592.12225342 200.77931152 592.86950684 201.56713867 593.6394043 C206.43838303 598.51490813 210.2833521 603.54633339 213.9375 609.375 C214.98258652 610.84586251 216.03947925 612.30872034 217.125 613.75 C217.59292969 614.37648438 218.06085937 615.00296875 218.54296875 615.6484375 C219.89340509 617.39334132 219.89340509 617.39334132 221.46484375 618.84765625 C226.70405691 624.28142905 229.62942734 632.66664361 232.9375 639.375 C233.7109375 640.8909375 233.7109375 640.8909375 234.5 642.4375 C238.9416837 651.51398408 242.47576011 660.8921997 245.9375 670.375 C246.20916992 671.11476074 246.48083984 671.85452148 246.76074219 672.61669922 C249.64066209 680.48450405 252.29123469 688.14367346 253.9375 696.375 C254.23140625 697.06722656 254.5253125 697.75945313 254.828125 698.47265625 C256.45702392 702.734177 257.40532808 707.12416076 258.4375 711.5625 C258.65019531 712.45775391 258.86289062 713.35300781 259.08203125 714.27539062 C260.31867364 719.52922408 261.44342959 724.79469404 262.48193359 730.09106445 C263.10161505 733.19777402 263.80393676 736.284625 264.5 739.375 C265.57740505 744.3256762 266.33967779 749.13429039 266.62890625 754.19140625 C266.99962257 756.81457615 267.91249368 758.93593386 268.9375 761.375 C271.2606482 768.43336893 272.28860602 775.42795288 272.75 782.8125 C272.80293213 783.58166748 272.85586426 784.35083496 272.91040039 785.14331055 C273.11681151 789.35696034 273.05965321 792.58645803 270.9375 796.375 C268.00826189 798.55315142 266.61468093 799.375 262.9375 799.375 C262.6075 800.365 262.2775 801.355 261.9375 802.375 C259.56640625 803.3671875 259.56640625 803.3671875 256.5 804.25 C252.44591569 805.50108373 248.79065338 806.85274043 245.0625 808.875 C240.01902833 811.52221547 234.84826277 812.94118884 229.36328125 814.4140625 C226.39034698 815.24797565 223.56689841 816.20674024 220.6875 817.3125 C209.57738961 821.45830816 198.11109777 824.52984877 186.34375 826.015625 C183.93159119 826.24870861 183.93159119 826.24870861 181.9375 827.375 C178.82480709 827.68932523 175.71132422 827.88589874 172.58984375 828.09375 C170.01744595 828.08551998 170.01744595 828.08551998 168.9375 829.375 C166.29093976 829.75014918 163.65570275 830.0811971 161 830.375 C155.81236694 830.78078678 155.81236694 830.78078678 150.9375 832.375 C149.04455765 832.53802853 147.14751605 832.65386529 145.25 832.75 C139.03040259 833.15126435 132.92065835 833.88582342 126.75 834.75 C114.78464554 836.40563531 102.77990892 837.40686935 90.7434082 838.37255859 C90.0069809 838.43231873 89.27055359 838.49207886 88.5118103 838.5536499 C86.49694337 838.71639722 84.48175707 838.87517662 82.46655273 839.03369141 C79.03499177 839.3203794 79.03499177 839.3203794 76.0594635 839.87677002 C73.1610215 840.3393285 70.38717306 840.57215069 67.45703125 840.68798828 C65.86233002 840.75269569 65.86233002 840.75269569 64.2354126 840.81871033 C63.08522644 840.86048904 61.93504028 840.90226776 60.75 840.9453125 C58.91813141 841.01408348 58.91813141 841.01408348 57.04925537 841.08424377 C53.01222974 841.23067186 48.97500162 841.36752293 44.9375 841.5 C43.89771751 841.5346102 43.89771751 841.5346102 42.83692932 841.56991959 C13.486076 842.53986273 -15.75491124 842.27320791 -45.11425781 841.53955078 C-51.48987165 841.3826941 -57.86535195 841.27524044 -64.2421875 841.18359375 C-81.39413521 840.91992216 -98.46138412 840.3283798 -115.5625 838.9375 C-116.72897064 838.84520111 -116.72897064 838.84520111 -117.91900635 838.7510376 C-120.08258319 838.57575063 -122.24440907 838.38683208 -124.40625 838.19140625 C-126.23446289 838.02813843 -126.23446289 838.02813843 -128.09960938 837.86157227 C-131.0625 837.375 -131.0625 837.375 -134.0625 835.375 C-134.35219044 832.45940588 -134.43609758 829.79002699 -134.375 826.875 C-134.36025635 825.53973267 -134.36025635 825.53973267 -134.34521484 824.17749023 C-134.21752573 817.24230063 -133.74989679 810.34925943 -133.1875 803.4375 C-130.85463178 774.67108338 -129.82727356 746.00348517 -129.41090775 717.15241241 C-129.37515655 714.69824636 -129.33758703 712.24411309 -129.29977417 709.78997803 C-129.2402757 705.86819299 -129.18783752 701.94637043 -129.1408577 698.02441597 C-129.12273204 696.56284871 -129.1028735 695.10130173 -129.08112717 693.63978386 C-128.9775124 686.50694727 -128.99900653 679.48462026 -129.83811951 672.38981628 C-130.11183711 669.93197926 -130.13100425 667.532939 -130.0546875 665.0625 C-130.03591553 664.1442041 -130.01714355 663.2259082 -129.99780273 662.27978516 C-129.97790283 661.32120605 -129.95800293 660.36262695 -129.9375 659.375 C-129.17893688 638.34035813 -129.17893688 638.34035813 -134.0625 618.375 C-134.24445881 615.93444138 -134.39050416 613.50635402 -134.5 611.0625 C-134.71902365 606.30456062 -135.20550313 602.73459031 -137.0625 598.375 C-137.44140625 595.734375 -137.44140625 595.734375 -137.625 593.125 C-137.61744985 589.94412027 -137.61744985 589.94412027 -139.0625 587.375 C-139.165625 586.405625 -139.26875 585.43625 -139.375 584.4375 C-139.90537008 580.31239938 -141.4142419 576.80547411 -143.01953125 572.9921875 C-144.04626198 570.41574709 -144.85964248 567.85207803 -145.625 565.1875 C-147.70251535 557.66430806 -147.70251535 557.66430806 -152.0625 551.375 C-152.43375 550.385 -152.805 549.395 -153.1875 548.375 C-155.37550999 543.08358809 -158.93827029 538.31794489 -163.0625 534.375 C-168.32346718 532.35815288 -172.16180756 534.68546978 -177.04296875 536.828125 C-180.55110494 538.62530732 -183.52410245 540.71309319 -186.5390625 543.23828125 C-188.0625 544.375 -188.0625 544.375 -190.0625 544.375 C-190.0625 545.035 -190.0625 545.695 -190.0625 546.375 C-189.0725 546.705 -188.0825 547.035 -187.0625 547.375 C-185.65681196 549.32482535 -184.3329964 551.33450578 -183.0625 553.375 C-182.0725 554.798125 -182.0725 554.798125 -181.0625 556.25 C-173.75768033 567.66378073 -170.44526555 580.75576145 -167.640625 593.8984375 C-167.16733522 596.35881096 -167.16733522 596.35881096 -166.0625 598.375 C-165.90824643 599.72614699 -165.78795985 601.08129199 -165.6875 602.4375 C-165.35888172 605.71846664 -164.76236949 608.53295532 -163.625 611.625 C-159.89800868 622.05225385 -159.58237183 633.5367759 -159 644.5 C-158.95958588 645.23844147 -158.91917175 645.97688293 -158.87753296 646.73770142 C-156.32122544 694.60395042 -156.42970627 742.55204136 -159.5625 790.375 C-159.62812134 791.37972351 -159.69374268 792.38444702 -159.76135254 793.4196167 C-159.9488378 796.23858731 -160.14427109 799.05685519 -160.34375 801.875 C-160.42970428 803.14822617 -160.42970428 803.14822617 -160.51739502 804.44717407 C-160.94576372 810.25826372 -160.94576372 810.25826372 -162.0625 811.375 C-162.21905027 812.86138992 -162.31316943 814.35449127 -162.37890625 815.84765625 C-162.44174805 817.19633789 -162.44174805 817.19633789 -162.50585938 818.57226562 C-162.54517578 819.51779297 -162.58449219 820.46332031 -162.625 821.4375 C-162.66818359 822.38689453 -162.71136719 823.33628906 -162.75585938 824.31445312 C-162.86229276 826.66781353 -162.96431008 829.02128354 -163.0625 831.375 C-172.34670155 836.42375799 -187.34573291 831.62431618 -197.27124023 829.96289062 C-205.72822808 828.5526502 -214.19791253 827.39892692 -222.71484375 826.41455078 C-227.15677163 825.87533407 -230.96260315 825.26843467 -235.0625 823.375 C-237.1078711 822.90557057 -239.15441337 822.44056031 -241.20703125 822.00390625 C-257.2365933 818.47345551 -257.2365933 818.47345551 -264.8125 815.75 C-268.20854843 814.53805142 -271.49413713 813.95302981 -275.0625 813.4375 C-279.69784789 812.7252677 -283.39758473 811.5620955 -287.58984375 809.5078125 C-290.662514 808.10011207 -293.8034682 807.03404489 -297 805.9375 C-302.96284309 803.83221202 -308.57382751 801.52083122 -314.0625 798.375 C-314.86300781 797.93542969 -315.66351563 797.49585938 -316.48828125 797.04296875 C-318.72280711 795.64204839 -320.40108727 794.42344638 -322.0625 792.375 C-322.23443583 788.82165954 -321.90412167 786.75567131 -321.0625 783.375 C-320.57240102 780.85567097 -320.09441115 778.3356228 -319.625 775.8125 C-319.4252356 774.78310303 -319.4252356 774.78310303 -319.22143555 773.73291016 C-318.30555236 768.95750958 -317.62764154 764.20482309 -317.0625 759.375 C-315.96206718 750.06717236 -314.60123421 740.70965574 -312 731.69140625 C-311.23546833 728.98687547 -310.77002549 726.65584155 -310.5625 723.875 C-310.26232738 719.85268687 -309.17639037 716.24689937 -308.0625 712.375 C-307.56070292 709.921186 -307.081892 707.46257044 -306.625 705 C-305.68022977 700.09821811 -304.56852663 695.3819427 -302.8828125 690.6796875 C-300.31305933 683.45990479 -298.01236891 676.11921618 -296.65234375 668.5703125 C-295.96950236 666.02887634 -294.93617948 663.70174961 -293.8762207 661.29785156 C-292.47586977 657.98877146 -291.35177032 654.58516546 -290.1875 651.1875 C-283.60390786 632.3176846 -283.60390786 632.3176846 -278.0625 624.375 C-277.38149415 622.72112866 -276.70101687 621.06702797 -276.02734375 619.41015625 C-274.33645781 615.84355068 -272.12611856 612.60574862 -269.97265625 609.3046875 C-267.43155342 605.40729052 -264.99163656 601.44815883 -262.54296875 597.4921875 C-261.0625 595.375 -261.0625 595.375 -259.0625 594.375 C-258.711875 593.55 -258.36125 592.725 -258 591.875 C-256.00191816 587.60075276 -252.549628 584.70293758 -249.1953125 581.47265625 C-246.97385193 579.37690026 -246.97385193 579.37690026 -245 576.75 C-242.08425105 573.17585613 -238.58201318 570.33988173 -235.0625 567.375 C-234.0725 566.529375 -233.0825 565.68375 -232.0625 564.8125 C-226.21452522 560.06102049 -220.1926087 555.72815523 -213.875 551.625 C-213.28074219 551.23602539 -212.68648438 550.84705078 -212.07421875 550.44628906 C-209.52115625 548.80769234 -207.09518021 547.38767099 -204.26171875 546.2890625 C-200.96993496 544.92089659 -199.95071288 542.32533262 -198.0625 539.375 C-194.41510268 536.0858292 -190.46720926 533.90661925 -186.0625 531.8125 C-182.76041212 530.22142988 -179.4993476 528.64052242 -176.36328125 526.734375 C-173.39891006 524.98292988 -170.38412476 524.22168866 -167.0625 523.375 C-167.000625 522.570625 -166.93875 521.76625 -166.875 520.9375 C-165.32206863 514.12849322 -162.48147036 509.21172387 -156.75 505.1875 C-154.05064589 502.97866285 -153.14057687 501.95132045 -152.66503906 498.44116211 C-152.69823242 497.31460205 -152.73142578 496.18804199 -152.765625 495.02734375 C-152.79873779 493.78106201 -152.83185059 492.53478027 -152.8659668 491.25073242 C-153.23397306 483.99346612 -153.80746144 476.76190126 -154.43945312 469.5234375 C-155.43149434 457.12634318 -154.96021127 448.44947184 -147.8125 438.125 C-141.57881986 431.89131986 -134.16354124 430.51784555 -125.6875 429.1875 C-123.72094746 428.86313331 -121.75477864 428.53642873 -119.7890625 428.20703125 C-118.92877441 428.07014893 -118.06848633 427.9332666 -117.18212891 427.79223633 C-115.01887801 427.46404134 -115.01887801 427.46404134 -113.0625 426.375 C-111.18870395 426.30466231 -109.31248898 426.2906978 -107.4375 426.3125 C-106.43460938 426.32152344 -105.43171875 426.33054687 -104.3984375 426.33984375 C-103.24214844 426.35724609 -103.24214844 426.35724609 -102.0625 426.375 C-102.248125 425.42625 -102.43375 424.4775 -102.625 423.5 C-103.0625 420.375 -103.0625 420.375 -102.0625 418.375 C-102.91521484 418.22804688 -102.91521484 418.22804688 -103.78515625 418.078125 C-111.95617206 416.495758 -116.8139743 414.02313256 -122.0625 407.375 C-124.48093932 406.02351921 -126.66910633 405.43957719 -129.39453125 404.9921875 C-135.5302332 403.98030262 -138.558298 402.65948483 -143.0625 398.375 C-149.48207159 396.2351428 -156.50334315 397.25854777 -163.0625 398.375 C-171.13707929 399.14887469 -177.57331474 397.29588332 -185.0625 394.375 C-186.32513672 393.92447266 -186.32513672 393.92447266 -187.61328125 393.46484375 C-192.57806211 391.53734059 -195.42071996 389.32064539 -198.65625 385.10546875 C-200.06286727 383.37454806 -201.49340954 382.1148019 -203.25 380.75 C-206.06273616 378.37480058 -207.26080658 376.52796348 -209.0625 373.375 C-210.0072559 372.30040923 -210.96719288 371.2390765 -211.9375 370.1875 C-217.3614716 363.99636616 -220.52359023 356.13598554 -223.0625 348.375 C-223.4646875 347.18003906 -223.4646875 347.18003906 -223.875 345.9609375 C-226.26749694 338.16231768 -226.79724029 330.49857856 -227.0625 322.375 C-227.10375 321.19421875 -227.145 320.0134375 -227.1875 318.796875 C-227.45721555 303.76023333 -225.93133413 288.33900328 -216.0625 276.375 C-214.86037376 274.29181407 -214.86037376 274.29181407 -213.9375 272.25 C-212.7656573 269.76104485 -211.60492862 267.68864293 -210.0625 265.375 C-209.61159203 261.41989292 -210.42596333 259.13356746 -212.4375 255.75 C-212.87835938 254.99460937 -213.31921875 254.23921875 -213.7734375 253.4609375 C-214.83478146 251.74349 -215.94259933 250.05485101 -217.0625 248.375 C-222.0286917 231.43152243 -221.69704604 213.03186967 -216.0625 196.375 C-214.4003135 191.42149015 -214.4003135 191.42149015 -213.0625 186.375 C-214.09375 186.189375 -215.125 186.00375 -216.1875 185.8125 C-220.96324321 184.43971551 -223.36238521 181.40062569 -226.0625 177.375 C-228.94625817 172.08811003 -229.46779292 168.25174735 -229.0625 162.375 C-227.21744987 160.52994987 -223.97396102 161.24259351 -221.5 161.1875 C-214.7359047 160.75355091 -210.63997877 159.42351221 -206.0625 154.375 C-204.2362518 151.66992134 -204.2362518 151.66992134 -203.0625 149.375 C-202.4025 149.375 -201.7425 149.375 -201.0625 149.375 C-200.794375 148.611875 -200.52625 147.84875 -200.25 147.0625 C-199.06056768 144.37062684 -198.0916793 143.4041793 -196.0625 141.375 C-195.11485645 139.67577708 -194.16777045 137.97623356 -193.2265625 136.2734375 C-188.84512828 129.127877 -182.26262444 123.22422359 -175.8125 118 C-174.84957031 117.21367187 -173.88664063 116.42734375 -172.89453125 115.6171875 C-171.19335445 114.27032477 -169.46781739 112.95233302 -167.69921875 111.6953125 C-163.10080301 108.41189664 -159.75412408 104.86645926 -156.4375 100.3125 C-142.43756336 81.18351588 -121.22780897 65.29709673 -99.0625 57.375 C-97.30909321 56.67514235 -95.55877703 55.96746265 -93.8125 55.25 C-90.00972299 53.72028841 -86.1823301 52.35451833 -82.28125 51.09765625 C-80.77388375 50.60670069 -79.27385044 50.09276069 -77.78125 49.55859375 C-72.8227114 47.80102955 -68.29513385 46.90713226 -63.0625 46.375 C-61.12035416 45.94341204 -59.24818143 45.43100796 -57.3449707 44.85693359 C-54.46595976 44.24904317 -51.73543585 44.21072416 -48.79296875 44.1640625 C-47.57416016 44.13570312 -46.35535156 44.10734375 -45.09960938 44.078125 C-42.54506431 44.02628238 -39.99035538 43.98194058 -37.43554688 43.9453125 C-29.48916146 43.74424423 -23.77867147 43.45670317 -17.5 38.25 C-9.42637886 28.72726737 -6.85003822 20.56713859 -6.49609375 8.25195312 C-6.27131222 2.72525947 -5.9050329 0.1041452 0 0 Z "
     fill="#010101"
     id="path1"
     transform="translate(481.0625,122.625)" />
  <path
     d="M0 0 C0.04898437 1.03898437 0.09796875 2.07796875 0.1484375 3.1484375 C0.5126134 10.16893967 0.96057439 16.96294513 2.53515625 23.8359375 C2.98721604 25.94048477 3.23495294 27.98378824 3.4375 30.125 C3.93567076 33.55684299 4.74403632 36.39901109 6.0625 39.59375 C6.80634433 41.50295044 7.45236008 43.4502132 8.0625 45.40625 C10.39948447 52.72470136 12.16385299 58.10806094 19 62 C24.70095922 64.35284192 30.37956492 65.61789746 36.5 66.1875 C37.32532227 66.26572998 38.15064453 66.34395996 39.00097656 66.42456055 C46.85326181 67.06769609 54.71698969 67.23876399 62.59204102 67.29653931 C64.00467918 67.30698746 65.41729354 67.32177232 66.82983398 67.34140015 C80.30455772 67.50341402 99.02287486 67.24080875 109.8984375 58.46875 C113.62917744 54.46502909 115.39608958 50.15156639 117 45 C117.2465332 44.27441895 117.49306641 43.54883789 117.74707031 42.80126953 C119.52513 37.35073715 120.37260479 32.25464431 120.8203125 26.54931641 C121.84469309 14.44469015 121.84469309 14.44469015 125.02734375 10.46484375 C127.77032736 8.9785193 129.90787046 8.38598011 133 8 C133.91910156 7.88398438 134.83820313 7.76796875 135.78515625 7.6484375 C141.7783816 7.32812447 147.60966795 8.26722701 153 11 C154.26942524 13.53885047 154.34673381 15.66535544 154.61328125 18.49609375 C154.72736328 19.61306641 154.84144531 20.73003906 154.95898438 21.88085938 C155.19108802 24.21600161 155.41530383 26.551944 155.63085938 28.88867188 C156.64887169 38.62932527 158.8018757 50.718948 166 58 C186.0186237 70.90763111 216.57228394 66.36220401 239 65 C238.46419131 70.88533633 237.57895495 76.52297136 236.125 82.25 C235.96386719 82.930625 235.80273438 83.61125 235.63671875 84.3125 C234.62490095 88.35977119 233.24029871 91.50395491 231 95 C230.34097166 96.59048965 229.71544894 98.19529694 229.125 99.8125 C227.53969561 103.89420325 225.65909112 107.46609507 223.24609375 111.11328125 C221.9428111 113.03682708 221.9428111 113.03682708 220.71484375 115.29296875 C218.48529087 118.8125135 215.85480482 121.86105981 213.125 125 C212.60808594 125.60328125 212.09117187 126.2065625 211.55859375 126.828125 C208.50415803 130.36726966 205.34831847 133.73282011 202 137 C201.23042969 137.77859375 200.46085938 138.5571875 199.66796875 139.359375 C192.2047139 146.55230723 184.15494748 151.27170138 175 156 C174.04480469 156.5053125 173.08960938 157.010625 172.10546875 157.53125 C166.54539894 160.40322307 160.85131876 162.79034478 155 165 C154.31808594 165.29003906 153.63617187 165.58007812 152.93359375 165.87890625 C145.57314773 168.77001123 137.80692065 168.80139273 130 169 C129.17419434 169.02191406 128.34838867 169.04382813 127.49755859 169.06640625 C124.93578468 169.12459532 122.37478685 169.16105154 119.8125 169.1875 C119.01086426 169.20063232 118.20922852 169.21376465 117.38330078 169.22729492 C113.05794148 169.2332603 109.9902754 168.81817766 106 167 C103.60086894 166.59304928 103.60086894 166.59304928 101.25 166.4375 C97.1009009 166.1009009 97.1009009 166.1009009 96 165 C92.51339468 164.45692928 89.01713326 164.03351345 85.515625 163.59765625 C82.3654482 163.06212619 79.90487173 162.27592456 77 161 C75.9275 160.71125 74.855 160.4225 73.75 160.125 C70.07698041 159.02309412 66.77024098 157.62602145 63.30859375 156 C60.93462785 154.92845202 60.93462785 154.92845202 58.11328125 154.0625 C54.832551 152.94285304 51.84620741 151.55588312 48.75 150 C47.19539063 149.2265625 47.19539063 149.2265625 45.609375 148.4375 C43 147 43 147 41 145 C39.29228017 144.27750315 37.58362614 143.55700073 35.8671875 142.85546875 C33.03851442 141.55948673 30.57546668 139.73564059 28 138 C27.13375 137.67 26.2675 137.34 25.375 137 C23 136 23 136 21.18359375 134.171875 C18.84581519 131.84664266 16.40615681 130.11114554 13.6875 128.25 C9.44996171 125.20795265 6.0393934 122.16058904 2.74609375 118.1328125 C0.72964342 115.66976579 -1.4087399 113.34369235 -3.5625 111 C-7.31782931 106.83662132 -10.73097889 102.54986564 -14 98 C-14.66128906 97.14148438 -14.66128906 97.14148438 -15.3359375 96.265625 C-18.22416391 92.44966526 -20.19058428 88.61189423 -22.015625 84.19140625 C-22.9533291 82.10389831 -24.04819577 80.33828615 -25.3125 78.4375 C-27.53425515 73.91170246 -27.06991723 71.85577822 -26 67 C-25.505 66.01 -25.505 66.01 -25 65 C-24.68954474 62.40856095 -24.49026088 59.81628268 -24.28125 57.21484375 C-24 55 -24 55 -23 54 C-22.09738416 48.60378585 -21.93880606 43.11214073 -21.82421875 37.65234375 C-21.80037109 36.55212891 -21.77652344 35.45191406 -21.75195312 34.31835938 C-21.7089136 32.06074084 -21.67770178 29.80286644 -21.65820312 27.54492188 C-21.50126395 21.32210111 -20.89244762 16.50332447 -17.97290039 10.95947266 C-16.39028903 7.77200997 -15.75598323 4.46492316 -15 1 C-9.92932037 0.28832567 -5.13401853 -0.04978442 0 0 Z "
     fill="#FDFDFD"
     transform="translate(393,424)"
     id="path2" />
  <path
     d="M0 0 C3 1 3 1 4.10546875 3.16015625 C4.46253906 4.11792969 4.81960938 5.07570313 5.1875 6.0625 C7.25678651 11.31433659 9.57780143 16.34423903 12.125 21.375 C12.46168701 22.04023682 12.79837402 22.70547363 13.14526367 23.39086914 C13.79232041 24.66530697 14.44204627 25.93839394 15.09472656 27.20996094 C15.9436885 28.88865266 16.75078044 30.5883345 17.5546875 32.2890625 C18.86956225 34.75534108 20.02347026 36.103817 22 38 C22.72216045 39.35711662 23.40708362 40.73442076 24.0625 42.125 C28.3386057 50.03127398 35.43196162 56.2408012 44 59 C45.08410156 59.30164063 46.16820312 59.60328125 47.28515625 59.9140625 C48.46980469 60.25179687 49.65445312 60.58953125 50.875 60.9375 C52.00679687 61.23527344 53.13859375 61.53304687 54.3046875 61.83984375 C55.63886719 62.41412109 55.63886719 62.41412109 57 63 C58.27225702 66.22904363 58.05132506 69.37127904 57.9140625 72.796875 C57.84832031 74.48296875 57.84832031 74.48296875 57.78125 76.203125 C57.7296875 77.37359375 57.678125 78.5440625 57.625 79.75 C57.55925781 81.4825 57.55925781 81.4825 57.4921875 83.25 C57.24682947 89.22037878 56.85943 95.08595626 56 101 C54.75863281 100.78887573 54.75863281 100.78887573 53.4921875 100.57348633 C41.98455029 98.81114637 30.62588541 98.645708 19 98.6875 C18.0067572 98.68865814 17.0135144 98.68981628 15.99017334 98.69100952 C-9.70384839 98.05812087 -9.70384839 98.05812087 -34 105 C-38.00413261 110.08633062 -38.75383663 115.08231587 -39.60546875 121.42578125 C-40 124 -40 124 -41 126 C-42.11375 125.67 -43.2275 125.34 -44.375 125 C-52.78705761 122.92660552 -60.67390623 124.01590957 -69 126 C-69.10957031 124.91460937 -69.21914063 123.82921875 -69.33203125 122.7109375 C-69.49158608 121.26555848 -69.65177611 119.82024949 -69.8125 118.375 C-69.91788086 117.30572266 -69.91788086 117.30572266 -70.02539062 116.21484375 C-70.55142256 111.62784527 -71.30564553 107.87385729 -74 104 C-90.96443493 95.76079286 -113.652316 96.7856655 -132.1875 96.8125 C-133.34678009 96.81340637 -133.34678009 96.81340637 -134.52947998 96.81433105 C-163.5473678 96.24614279 -163.5473678 96.24614279 -190 106 C-190.33 106.66 -190.66 107.32 -191 108 C-196.863328 109.04702286 -201.88279922 109 -208 109 C-208.33 99.76 -208.66 90.52 -209 81 C-205.7 80.01 -202.4 79.02 -199 78 C-196.11088358 76.04559771 -193.61708858 74.23585914 -191 72 C-189.55367188 70.87271484 -189.55367188 70.87271484 -188.078125 69.72265625 C-184.78299522 66.97156291 -182.42064021 63.8345315 -180 60.3125 C-179.57138672 59.70253174 -179.14277344 59.09256348 -178.70117188 58.46411133 C-175.62331168 54.03707599 -172.79579168 49.49657064 -170.15625 44.79296875 C-169 43 -169 43 -167 42 C-167.31182069 43.41681634 -167.62448737 44.83344651 -167.9375 46.25 C-168.11152344 47.03890625 -168.28554688 47.8278125 -168.46484375 48.640625 C-168.79407725 50.0921362 -169.15361016 51.53763555 -169.5625 52.96875 C-170.09469325 55.43964723 -170.0957253 57.72487753 -170.0625 60.25 C-170.05347656 61.14203125 -170.04445313 62.0340625 -170.03515625 62.953125 C-170.02355469 63.62859375 -170.01195312 64.3040625 -170 65 C-162.59660987 64.68496212 -156.71142415 63.08134568 -150 60 C-149.22140625 59.68546875 -148.4428125 59.3709375 -147.640625 59.046875 C-134.30230024 53.20590925 -120.10373247 40.11452116 -114 27 C-113.34 27 -112.68 27 -112 27 C-111.61714844 26.03513672 -111.61714844 26.03513672 -111.2265625 25.05078125 C-109.63278347 21.08663659 -108.00392332 17.13730798 -106.375 13.1875 C-106.05015625 12.39923828 -105.7253125 11.61097656 -105.390625 10.79882812 C-104.59397935 8.86579088 -103.79702101 6.93288251 -103 5 C-102.34 5 -101.68 5 -101 5 C-94.61501782 24.51146839 -92.78160956 40.67275766 -96.34375 60.84765625 C-97.49003701 66.45263509 -97.49003701 66.45263509 -95.99609375 71.7578125 C-92.88809351 73.69194963 -89.62850335 73.71200716 -86.0625 73.875 C-85.30267822 73.91326904 -84.54285645 73.95153809 -83.76000977 73.9909668 C-71.71481185 74.38353785 -60.72398954 70.78616453 -51.73046875 62.71875 C-49.18572735 60.19124162 -46.86698739 57.49384462 -44.578125 54.734375 C-43 53 -43 53 -40 51 C-40 55.29 -40 59.58 -40 64 C-28.39212958 61.28326437 -21.90355668 55.64286832 -15 46 C-14.29617188 45.01902344 -13.59234375 44.03804688 -12.8671875 43.02734375 C-4.13460051 29.89525951 -0.0463505 15.71281918 0 0 Z "
     fill="#FAFAFA"
     transform="translate(586,296)"
     id="path3" />
  <path
     d="M0 0 C3.828571 0.00542256 7.65702798 -0.00000452 11.4855957 -0.00634766 C13.91723659 -0.00568794 16.3488774 -0.00440898 18.78051758 -0.00244141 C19.92619705 -0.00446564 21.07187653 -0.00648987 22.25227356 -0.00857544 C23.30484848 -0.00542328 24.3574234 -0.00227112 25.44189453 0.00097656 C26.36927933 0.00177216 27.29666412 0.00256775 28.25215149 0.00338745 C30.47973633 0.13037109 30.47973633 0.13037109 32.47973633 1.13037109 C35.67404316 1.50035388 38.86499641 1.85014974 42.06958008 2.11669922 C44.07348633 2.33740234 44.07348633 2.33740234 47.47973633 3.13037109 C50.70532043 7.77122886 49.81868295 13.59703725 49.79223633 19.00537109 C49.78804688 20.16053223 49.78385742 21.31569336 49.77954102 22.50585938 C49.29906116 59.79416307 49.29906116 59.79416307 39.79223633 70.69287109 C29.52153231 79.4050852 12.0316864 78.43954816 -0.52026367 78.31787109 C-1.78354492 78.31722656 -3.04682617 78.31658203 -4.34838867 78.31591797 C-33.37418516 78.18153928 -33.37418516 78.18153928 -41.45776367 71.81787109 C-46.07723788 65.79855621 -47.09314525 60.48572037 -47.99291992 53.05615234 C-48.35200996 49.95124594 -48.35200996 49.95124594 -50.52026367 47.13037109 C-51.00486793 44.73128085 -51.36920296 42.42999072 -51.64526367 40.00537109 C-51.77046387 38.92243774 -51.77046387 38.92243774 -51.89819336 37.81762695 C-52.61263542 30.78474681 -52.73682797 23.75793654 -52.77026367 16.69287109 C-52.77944824 15.58476074 -52.78863281 14.47665039 -52.7980957 13.33496094 C-52.79406738 12.29936035 -52.79003906 11.26375977 -52.78588867 10.19677734 C-52.78363281 9.26808838 -52.78137695 8.33939941 -52.77905273 7.38256836 C-52.52026367 5.13037109 -52.52026367 5.13037109 -50.52026367 3.13037109 C-34.54938798 -1.47140665 -16.42359701 -0.02780941 0 0 Z "
     fill="#FBFBFB"
     transform="translate(456.520263671875,403.86962890625)"
     id="path4" />
  <path
     d="M0 0 C6.20032037 0.14660006 10.5968728 1.35488054 15.296875 5.47265625 C29.2930642 21.9797071 32.6219257 44.09977959 31.49609375 65.06640625 C30.20361526 76.63526699 27.89295534 88.49338673 19.49609375 97.06640625 C18.35140625 98.30390625 18.35140625 98.30390625 17.18359375 99.56640625 C12.23502617 102.32839746 7.34310451 103.75403173 1.73046875 102.3984375 C-2.28817627 100.86500716 -5.72393527 99.45421654 -8.50390625 96.06640625 C-8.50390625 95.40640625 -8.50390625 94.74640625 -8.50390625 94.06640625 C-9.08140625 93.86015625 -9.65890625 93.65390625 -10.25390625 93.44140625 C-16.95741318 89.34481868 -19.17883992 80.10325472 -21.50390625 73.06640625 C-22.19140625 69.19140625 -22.19140625 69.19140625 -22.50390625 66.06640625 C-23.15973832 63.73000449 -23.82605633 61.39651534 -24.50390625 59.06640625 C-25.81306531 53.40211139 -25.43710081 47.94693958 -25.12890625 42.19140625 C-25.08507812 41.23621094 -25.04125 40.28101563 -24.99609375 39.296875 C-24.86048174 36.55073185 -24.69234782 33.80939277 -24.50390625 31.06640625 C-24.45927246 30.34308105 -24.41463867 29.61975586 -24.36865234 28.87451172 C-23.90329146 23.63503528 -22.25170785 19.54831052 -19.87890625 14.94140625 C-19.52135254 14.24072021 -19.16379883 13.54003418 -18.79541016 12.81811523 C-15.59239466 6.79528445 -12.50727236 2.43119015 -5.75390625 0.12890625 C-3.83581088 0.0920198 -1.91777568 0.05086145 0 0 Z "
     fill="#FCFCFC"
     transform="translate(287.50390625,396.93359375)"
     id="path5" />
  <path
     d="M0 0 C1.41274704 -0.00776459 1.41274704 -0.00776459 2.85403442 -0.01568604 C5.58903677 -0.02753141 8.32358642 -0.02416845 11.05859375 -0.015625 C12.27317764 -0.02156174 12.27317764 -0.02156174 13.51229858 -0.02761841 C19.38120262 0.01911951 24.84950917 0.93020284 30.5625 2.25 C30.65274199 8.73739622 30.68913238 15.10173967 29.8515625 21.5390625 C29.43388354 25.4562138 29.21943084 29.3798692 29 33.3125 C28.95625244 34.06877686 28.91250488 34.82505371 28.86743164 35.60424805 C28.66609935 39.32666734 28.55197853 43.01796125 28.59765625 46.74609375 C28.5625 50.25 28.5625 50.25 27.5625 51.25 C27.45414069 52.70287264 27.40677134 54.1604176 27.38671875 55.6171875 C27.36287109 56.50277344 27.33902344 57.38835937 27.31445312 58.30078125 C27.27166787 60.1755535 27.24031775 62.05062344 27.22070312 63.92578125 C27.19298828 64.81394531 27.16527344 65.70210938 27.13671875 66.6171875 C27.12213623 67.43300293 27.10755371 68.24881836 27.0925293 69.08935547 C26.5625 71.25 26.5625 71.25 24.83813477 72.99389648 C22.27669753 74.40775708 20.48484541 74.75005799 17.578125 74.98046875 C16.64355469 75.06103516 15.70898438 75.14160156 14.74609375 75.22460938 C13.77800781 75.29486328 12.80992187 75.36511719 11.8125 75.4375 C10.82894531 75.51935547 9.84539063 75.60121094 8.83203125 75.68554688 C6.40955077 75.88546031 3.9867563 76.07316517 1.5625 76.25 C1.2325 75.59 0.9025 74.93 0.5625 74.25 C-2.72825996 74.62904208 -2.72825996 74.62904208 -5.4375 76.25 C-18.76869917 77.1647392 -34.57380394 77.06894867 -45.4375 68.25 C-54.59133772 53.65273936 -52.74973625 32.71178919 -52.4375 16.25 C-50.9525 17.24 -50.9525 17.24 -49.4375 18.25 C-47.78200469 18.63499891 -46.1152567 18.97793135 -44.4375 19.25 C-43.7674166 21.37392506 -43.10153203 23.49917524 -42.4375 25.625 C-42.06625 26.80835938 -41.695 27.99171875 -41.3125 29.2109375 C-40.4375 32.25 -40.4375 32.25 -40.4375 34.25 C-39.7775 34.25 -39.1175 34.25 -38.4375 34.25 C-38.4375 34.91 -38.4375 35.57 -38.4375 36.25 C-33.18852837 39.07636934 -28.53147241 40.9296352 -22.4609375 39.90625 C-18.58534404 38.64930077 -15.94122718 36.42448698 -13.4375 33.25 C-10.73722404 27.88901257 -9.9754139 22.1670529 -9.4375 16.25 C-8.87804687 16.3221875 -8.31859375 16.394375 -7.7421875 16.46875 C-0.3279984 17.32698411 7.10314607 17.60273718 14.5625 17.25 C15.88995166 16.13741409 15.88995166 16.13741409 15.8125 13.3125 C15.73 12.301875 15.6475 11.29125 15.5625 10.25 C8.82505232 5.75836821 0.44356015 5.5960745 -7.4375 5.25 C-8.29504883 5.21068359 -9.15259766 5.17136719 -10.03613281 5.13085938 C-24.09342647 4.56799522 -36.14428028 5.57360783 -49.4375 10.25 C-50.4275 10.58 -51.4175 10.91 -52.4375 11.25 C-52.1875 7.875 -52.1875 7.875 -51.4375 4.25 C-47.20968456 1.42292825 -42.30524111 1.51445098 -37.375 1.125 C-36.3223999 1.0415332 -35.2697998 0.95806641 -34.18530273 0.87207031 C-22.79871119 0.09493683 -11.40886395 0.0291408 0 0 Z "
     fill="#FAFAFA"
     transform="translate(609.4375,404.75)"
     id="path6" />
  <path
     d="M0 0 C-2.78330693 1.43593335 -5.58443909 2.67057198 -8.5 3.8125 C-9.386875 4.16828125 -10.27375 4.5240625 -11.1875 4.890625 C-13.01235152 5.61042755 -14.84549198 6.30968601 -16.6875 6.984375 C-25.78096738 10.47020416 -33.74952386 15.55905002 -41.94921875 20.73510742 C-43.8441974 21.90390318 -45.76132122 23.00442939 -47.70703125 24.0859375 C-56.27691604 29.06724657 -62.91692279 35.60299466 -68.9296875 43.421875 C-71.12189859 46.15179825 -73.51401472 48.53743059 -76 51 C-84.97868885 61.29348722 -91.10417175 72.77728058 -97 85 C-97.4434375 85.91652344 -97.886875 86.83304687 -98.34375 87.77734375 C-101.50274079 94.51044913 -104.10625224 101.42232678 -106.66796875 108.3984375 C-107.45077205 110.5149907 -108.26357357 112.62160184 -109.14453125 114.69921875 C-110.0117835 117.0316917 -110.32367753 118.96457739 -110.5 121.4375 C-110.68871149 124.07474311 -111.05054545 126.14359982 -111.93359375 128.65234375 C-113.34730274 133.09025073 -113.93819338 137.51868504 -114.5625 142.125 C-114.75972656 143.52190063 -114.75972656 143.52190063 -114.9609375 144.94702148 C-115.77631512 150.86520111 -116.38318412 156.74784935 -116.59375 162.72265625 C-117.12753129 165.71491099 -117.71007018 166.96552052 -120 169 C-122.7489259 169.48981941 -125.11565604 169.74040903 -127.875 169.8125 C-128.58269531 169.85052734 -129.29039062 169.88855469 -130.01953125 169.92773438 C-133.83658999 170.09477512 -137.29556986 169.95153009 -141 169 C-141.125 162.25 -141.125 162.25 -140 160 C-139.74563968 158.34265512 -139.53671243 156.67821529 -139.3515625 155.01171875 C-139.23482178 154.00133545 -139.11808105 152.99095215 -138.99780273 151.94995117 C-138.87477783 150.87334229 -138.75175293 149.7967334 -138.625 148.6875 C-137.69744514 140.89776218 -136.63552201 133.34372987 -134.6796875 125.7421875 C-133.98571247 122.94235719 -133.51223762 120.16083828 -133.0625 117.3125 C-132.2656974 112.72424505 -130.82540665 108.7626724 -128.98046875 104.5 C-128.000759 102.0019353 -127.43808609 99.61974806 -126.875 97 C-124.82469549 89.02533493 -120.28326819 82.12089104 -116.17773438 75.06201172 C-114.6790597 72.43808836 -113.31181157 69.75321675 -111.9375 67.0625 C-108.69149192 61.09932785 -104.45840329 56.09215979 -100 51 C-99.23042969 50.11957031 -98.46085937 49.23914063 -97.66796875 48.33203125 C-95.47317088 45.86054677 -93.24925022 43.42195316 -91 41 C-90.34644531 40.29230469 -89.69289063 39.58460938 -89.01953125 38.85546875 C-88.41496094 38.22253906 -87.81039062 37.58960938 -87.1875 36.9375 C-86.66542969 36.38964844 -86.14335937 35.84179688 -85.60546875 35.27734375 C-83.76211309 33.81073231 -82.26358441 33.53511514 -80 33 C-79.30062468 31.68352881 -78.63270867 30.34977849 -78 29 C-77.01 28.67 -76.02 28.34 -75 28 C-74.37609375 27.37609375 -73.7521875 26.7521875 -73.109375 26.109375 C-69.39097606 22.39097606 -64.63959341 20.39075519 -60 18 C-58.72653316 17.32557623 -57.45309704 16.65109446 -56.1796875 15.9765625 C-48.86863024 12.15842771 -41.78833803 9.02378038 -33.80859375 6.796875 C-31.46814397 6.13282527 -29.30468132 5.36660685 -27.0625 4.4375 C-18.41596744 1.10345566 -9.23354573 -0.47759719 0 0 Z "
     fill="#F9F9F9"
     transform="translate(434,175)"
     id="path7" />
  <path
     d="M0 0 C7.04515454 -0.38802917 11.80448107 1.72499617 17.0390625 6.37890625 C22.7518858 11.98098015 26.61597107 16.80478955 29.64453125 24.25 C30.11890625 25.343125 30.59328125 26.43625 31.08203125 27.5625 C31.60299394 28.79161185 32.1238169 30.02078292 32.64453125 31.25 C32.95753174 31.96381836 33.27053223 32.67763672 33.59301758 33.41308594 C36.20604853 39.58922591 37.79209743 45.58196131 38.89453125 52.1875 C39.06291504 53.18749023 39.23129883 54.18748047 39.40478516 55.21777344 C41.86485744 70.91537753 40.98394089 86.57424785 38.64453125 102.25 C38.31453125 102.58 37.98453125 102.91 37.64453125 103.25 C37.55171875 104.7040625 37.55171875 104.7040625 37.45703125 106.1875 C36.18514546 115.48935126 28.35880762 124.17795876 21.64453125 130.25 C13.67786724 134.25185913 4.99380803 131.99788598 -3.35546875 130.25 C-3.68546875 129.26 -4.01546875 128.27 -4.35546875 127.25 C-3.05609375 126.8478125 -3.05609375 126.8478125 -1.73046875 126.4375 C1.5715802 125.27566796 4.54444869 123.86743438 7.64453125 122.25 C8.38703125 121.940625 9.12953125 121.63125 9.89453125 121.3125 C12.17922776 119.92536283 12.49810072 118.67249278 13.64453125 116.25 C14.17949219 115.26128906 14.71445312 114.27257812 15.265625 113.25390625 C15.86503906 112.11824219 16.46445312 110.98257813 17.08203125 109.8125 C17.67886719 108.70003906 18.27570313 107.58757812 18.890625 106.44140625 C23.56109176 96.20662201 24.15542635 85.45477277 24.09057617 74.40209961 C24.0820245 72.18575165 24.11102092 69.97195774 24.14257812 67.75585938 C24.18394399 59.04270359 23.27083659 51.30814803 19.64453125 43.25 C19.31453125 42.92 18.98453125 42.59 18.64453125 42.25 C18.53625 41.21101563 18.42796875 40.17203125 18.31640625 39.1015625 C17.57053573 34.82581639 16.21060393 32.27324982 13.89453125 28.625 C13.2190625 27.53960937 12.54359375 26.45421875 11.84765625 25.3359375 C7.25963618 18.90945549 0.79760935 12.40253087 -7.27929688 10.88964844 C-11.63033577 10.38030881 -15.97510531 10.26168097 -20.35546875 10.25 C-20.35546875 8.25 -20.35546875 8.25 -18.95703125 6.8125 C-12.85032487 1.98506413 -7.60438539 0.80709895 0 0 Z "
     fill="#F9F9F9"
     transform="translate(301.35546875,379.75)"
     id="path8" />
  <path
     d="M0 0 C5.86596845 -0.23925891 9.20876788 0.34017489 13.71484375 4.26171875 C16.64889399 7.12565382 18.6739472 10.03184517 20.71484375 13.57421875 C21.68982379 14.95219055 22.66898599 16.32721296 23.65234375 17.69921875 C27.01161298 22.73399573 28.81325456 27.86251108 30.71484375 33.57421875 C31.21309535 34.9286924 31.71601478 36.28145468 32.22265625 37.6328125 C35.02129315 45.16734329 37.36459893 52.3309071 38.390625 60.3515625 C38.6012167 62.60815344 38.6012167 62.60815344 39.71484375 64.57421875 C40.72824695 80.39693424 41.29435006 98.83612462 34.71484375 113.57421875 C34.20746314 114.94651242 33.70758698 116.32160156 33.21484375 117.69921875 C30.65986281 124.46396103 28.09703884 130.71732733 21.52734375 134.32421875 C17.38086229 135.9197127 13.11988714 136.2845447 8.71484375 136.57421875 C9.16859375 136.01734375 9.62234375 135.46046875 10.08984375 134.88671875 C11.78722885 132.66758872 11.78722885 132.66758872 12.6328125 130.2109375 C13.72267786 127.5551284 15.05309709 125.45070742 16.65234375 123.07421875 C27.27986176 105.49097727 26.18249053 77.98228834 22.71484375 58.57421875 C22.54129219 57.20007078 22.37316844 55.82520424 22.21484375 54.44921875 C21.88166399 51.38685537 21.88166399 51.38685537 19.71484375 48.57421875 C19.15183371 46.07612236 18.76803356 43.57679006 18.375 41.046875 C17.63494737 38.27496189 16.42781629 36.84500543 14.71484375 34.57421875 C13.87230165 31.87971213 13.27298227 29.17974295 12.65625 26.42578125 C10.54942921 20.04412492 5.81304698 15.18196838 1.46484375 10.19921875 C0.91054688 9.55855469 0.35625 8.91789062 -0.21484375 8.2578125 C-1.56859544 6.69399589 -2.92645372 5.13373581 -4.28515625 3.57421875 C-2.28515625 0.57421875 -2.28515625 0.57421875 0 0 Z "
     fill="#F7F7F7"
     transform="translate(324.28515625,374.42578125)"
     id="path9" />
  <path
     d="M0 0 C0.72364746 0.11762695 1.44729492 0.23525391 2.19287109 0.35644531 C5.99883951 1.07656806 8.85217639 1.91467639 11.625 4.6875 C12.0625 7.1875 12.0625 7.1875 11.625 9.6875 C10.34375 11.32421875 10.34375 11.32421875 8.625 12.6875 C1.44657975 13.25721589 -5.33072655 12.02245537 -12.375 10.6875 C-12.313125 11.656875 -12.25125 12.62625 -12.1875 13.625 C-12.23156716 19.06729398 -13.33844846 24.32409451 -16.95703125 28.5234375 C-21.99358479 33.02231974 -26.46457118 35.20830237 -33.390625 35 C-38.260787 34.23304535 -42.31850069 30.48634159 -45.33984375 26.74609375 C-47.65403442 22.14391079 -47.87142356 16.75332862 -48.375 11.6875 C-49.07625 11.9040625 -49.7775 12.120625 -50.5 12.34375 C-56.27834594 14.03956892 -61.35150981 15.44043627 -67.375 14.6875 C-69.4375 12.9375 -69.4375 12.9375 -70.375 10.6875 C-70.5 8.6875 -70.5 8.6875 -69.375 6.6875 C-64.13618847 3.1745745 -59.63641933 1.85267835 -53.4375 1 C-52.67759766 0.88333984 -51.91769531 0.76667969 -51.13476562 0.64648438 C-48.8839445 0.30626632 -46.63045853 -0.00475432 -44.375 -0.3125 C-43.12332031 -0.49941406 -41.87164062 -0.68632812 -40.58203125 -0.87890625 C-27.34085475 -2.48394692 -13.14812459 -2.17338085 0 0 Z "
     fill="#050505"
     transform="translate(480.375,410.3125)"
     id="path10" />
  <path
     d="M0 0 C14.60176356 -0.40280727 28.61534516 1.42638667 41.703125 8.125 C43.703125 10.125 43.703125 10.125 44.140625 13.4375 C43.703125 17.125 43.703125 17.125 41.64906311 19.8170166 C38.07073965 22.62043976 35.49357053 22.82340685 31.13061523 22.74023438 C30.38528534 22.74578339 29.63995544 22.7513324 28.87203979 22.75704956 C26.41793741 22.76882332 23.96569085 22.74459863 21.51171875 22.71875 C19.80208928 22.71703837 18.09245718 22.71710511 16.38282776 22.71887207 C12.80419726 22.7172202 9.22619425 22.69854542 5.64770508 22.66699219 C1.06199292 22.62728464 -3.52289886 22.62295115 -8.10875034 22.63045502 C-11.63725798 22.63352498 -15.16558136 22.62140382 -18.69404411 22.60432434 C-20.38491599 22.59729675 -22.07580875 22.59416952 -23.76669502 22.59501648 C-26.12943378 22.59321778 -28.49119088 22.57183215 -30.85375977 22.54492188 C-31.90041557 22.54931778 -31.90041557 22.54931778 -32.96821594 22.55380249 C-35.97260278 22.50103069 -38.05606676 22.25597396 -40.7151947 20.80969238 C-42.296875 19.125 -42.296875 19.125 -43.046875 15.75 C-42.296875 12.125 -42.296875 12.125 -40.67578125 10.6640625 C-38.59419237 9.3655288 -36.48240676 8.23874393 -34.296875 7.125 C-33.52859375 6.61710937 -32.7603125 6.10921875 -31.96875 5.5859375 C-22.7936639 0.56915066 -10.2319852 0.55684273 0 0 Z "
     fill="#060606"
     transform="translate(454.296875,364.875)"
     id="path11" />
  <path
     d="M0 0 C1.12792969 0.14888672 2.25585938 0.29777344 3.41796875 0.45117188 C11.30887139 1.62788543 17.17477118 3.61227118 22.875 9.3125 C23.3125 12.75 23.3125 12.75 22.875 16.3125 C19.09609791 19.34358351 16.05263295 19.69425192 11.29638672 19.71655273 C9.98507782 19.72923691 8.67376892 19.74192108 7.32272339 19.75498962 C5.90004315 19.75293864 4.47736399 19.74995099 3.0546875 19.74609375 C1.5892818 19.75065675 0.12387824 19.75596268 -1.34152222 19.76197815 C-4.40631837 19.77089683 -7.47085372 19.76849865 -10.53564453 19.75854492 C-14.46465807 19.74702797 -18.39277648 19.76731344 -22.32167244 19.79646206 C-25.34485592 19.81479334 -28.36782334 19.81453834 -31.39104843 19.80882454 C-32.83994685 19.8086711 -34.28885971 19.81473436 -35.73770523 19.82711601 C-37.76014543 19.84197157 -39.78273327 19.8287472 -41.80517578 19.81420898 C-42.95591583 19.81404282 -44.10665588 19.81387665 -45.29226685 19.81370544 C-48.125 19.3125 -48.125 19.3125 -49.98873901 17.49989319 C-51.68900785 14.22673983 -51.64263769 11.93596386 -51.125 8.3125 C-45.90752144 2.78811093 -39.13343678 0.8216612 -31.875 -0.375 C-31.17503906 -0.50455078 -30.47507812 -0.63410156 -29.75390625 -0.76757812 C-19.66017216 -2.50502416 -10.07142848 -1.51245272 0 0 Z "
     fill="#040404"
     transform="translate(610.125,367.6875)"
     id="path12" />
  <path
     d="M0 0 C0.66 0 1.32 0 2 0 C9.0598613 16.06175565 9.0598613 16.06175565 11 23 C11.20496094 23.71671875 11.40992188 24.4334375 11.62109375 25.171875 C14.66942286 37.7015588 13.18315651 50.38854025 11.125 62.9375 C10.95145996 63.99855957 10.77791992 65.05961914 10.59912109 66.15283203 C9.2618415 73.7381585 9.2618415 73.7381585 7 76 C6.32823348 77.99829282 5.66232985 79.99855962 5 82 C-0.46881262 92.95205483 -6.64071101 100.97970324 -18 106 C-18.66 106 -19.32 106 -20 106 C-18.97309828 103.09044514 -17.87160507 100.81825972 -16.08203125 98.28515625 C-13.8489726 94.76169973 -12.67084661 91.53933048 -11.4375 87.5625 C-10.26630933 83.81852983 -9.08392948 80.19538782 -7.53515625 76.58984375 C-4.05414472 68.44976845 -2.28312954 60.80485394 -1.3125 52 C-1.18657471 50.88020752 -1.06064941 49.76041504 -0.9309082 48.60668945 C-0.09037241 40.46367886 0.28651422 32.3724168 0.3125 24.1875 C0.31789795 23.13884766 0.3232959 22.09019531 0.32885742 21.00976562 C0.28194719 16.05278197 -0.13982995 12.61146498 -2 8 C-1.70647502 5.0060452 -1.34525472 2.69050945 0 0 Z "
     fill="#F4F4F4"
     transform="translate(660,396)"
     id="path13" />
  <path
     d="M0 0 C5.52287582 2.20915033 5.52287582 2.20915033 7.625 5.125 C11.65742576 10.09114267 16.76615501 13.39800022 22 17 C23.14255385 17.79988673 24.28446437 18.60069305 25.42578125 19.40234375 C31.45069491 23.65702676 31.45069491 23.65702676 37.6953125 27.57421875 C39.82714822 28.89306627 41.25565964 30.23189479 43 32 C44.28479966 32.79652123 45.60119885 33.54327835 46.9375 34.25 C50.56259198 36.19972741 54.09840528 38.25238024 57.625 40.375 C64.51926138 44.42782807 71.71433515 47.72543205 79 51 C79 51.33 79 51.66 79 52 C74.68602131 52.20065017 71.9534466 51.61064974 68 50 C66.3102678 49.57727685 64.60981357 49.19570866 62.90234375 48.8515625 C61.94102539 48.65280518 60.97970703 48.45404785 59.98925781 48.24926758 C58.98217773 48.04325928 57.97509766 47.83725098 56.9375 47.625 C36.4613477 43.30756513 36.4613477 43.30756513 30 39 C27.67950531 38.28993431 25.34356438 37.62975781 23 37 C20.34716832 36.23096637 17.7045751 35.43010678 15.0625 34.625 C14.06573242 34.33109375 14.06573242 34.33109375 13.04882812 34.03125 C7.92564697 32.46100243 3.93445544 30.46722772 -1 28 C-0.67 18.76 -0.34 9.52 0 0 Z "
     fill="#F8F8F8"
     transform="translate(388,547)"
     id="path14" />
  <path
     d="M0 0 C1.09731445 0.00676758 1.09731445 0.00676758 2.21679688 0.01367188 C3.99873419 0.02531852 5.78062863 0.04324809 7.5625 0.0625 C7.78421552 2.66615928 7.99034859 5.26946493 8.1875 7.875 C8.25195312 8.61298828 8.31640625 9.35097656 8.3828125 10.11132812 C8.7890625 15.72265625 8.7890625 15.72265625 6.5625 19.0625 C4.22412109 19.6784668 4.22412109 19.6784668 1.3359375 20.01171875 C0.3046875 20.13740234 -0.7265625 20.26308594 -1.7890625 20.39257812 C-3.40941406 20.56950195 -3.40941406 20.56950195 -5.0625 20.75 C-6.69445312 20.94432617 -6.69445312 20.94432617 -8.359375 21.14257812 C-11.05091044 21.46131259 -13.74328822 21.76739556 -16.4375 22.0625 C-16.4645203 19.31243392 -16.48434883 16.56263454 -16.5 13.8125 C-16.50837891 13.03519531 -16.51675781 12.25789063 -16.52539062 11.45703125 C-16.52861328 10.70292969 -16.53183594 9.94882812 -16.53515625 9.171875 C-16.54039307 8.48061523 -16.54562988 7.78935547 -16.55102539 7.07714844 C-16.43187971 4.96276102 -16.01368237 3.09608485 -15.4375 1.0625 C-10.23576905 0.19440561 -5.26771184 -0.06265348 0 0 Z "
     fill="#F8F8F8"
     transform="translate(308.4375,351.9375)"
     id="path15" />
  <path
     d="M0 0 C1.1461377 0.11758667 1.1461377 0.11758667 2.31542969 0.23754883 C7.62197407 0.87197407 7.62197407 0.87197407 9.875 3.125 C9.5 6.25 9.5 6.25 8.875 9.125 C1.22122001 9.17557791 -6.43251713 9.21068184 -14.08642578 9.23486328 C-16.69191091 9.24494064 -19.29738469 9.2586027 -21.90283203 9.27587891 C-25.64097899 9.30005102 -29.37897685 9.3114656 -33.1171875 9.3203125 C-34.87347977 9.33579636 -34.87347977 9.33579636 -36.66525269 9.35159302 C-38.286707 9.35181961 -38.286707 9.35181961 -39.94091797 9.35205078 C-40.89578094 9.356492 -41.85064392 9.36093323 -42.83444214 9.36550903 C-45.125 9.125 -45.125 9.125 -47.125 7.125 C-46.79528521 3.82785207 -46.5023161 2.5023161 -44.125 0.125 C-29.88749738 -2.18260746 -14.28860688 -1.51313277 0 0 Z "
     fill="#0E0F0E"
     transform="translate(545.125,526.875)"
     id="path16" />
  <path
     d="M0 0 C4.75 0.75 4.75 0.75 7 3 C7.17672282 5.62388466 7.2340345 8.12836622 7.1875 10.75 C7.17887939 11.51497803 7.17025879 12.27995605 7.16137695 13.06811523 C6.90644922 29.53576268 6.46370102 49.80444847 -3 64 C-3.66 64 -4.32 64 -5 64 C-4.61494268 57.7781219 -4.22402803 51.55664663 -3.828125 45.33544922 C-3.69475342 43.2274729 -3.56286958 41.11940182 -3.43261719 39.01123047 C-2.6249733 25.95846279 -1.59827814 12.98113711 0 0 Z "
     fill="#F2F2F2"
     transform="translate(644,409)"
     id="path17" />
  <path
     d="M0 0 C1.98 0 3.96 0 6 0 C5.01 0.495 5.01 0.495 4 1 C3.94593994 2.04269043 3.89187988 3.08538086 3.83618164 4.15966797 C3.18186615 16.49262074 2.33345155 28.80753047 1.4375 41.125 C1.29739085 43.0663965 1.15741621 45.00780271 1.01757812 46.94921875 C0.67992885 51.6329254 0.34048434 56.31649863 0 61 C-1.32 61 -2.64 61 -4 61 C-4.02685938 58.85423363 -4.04633088 56.70837355 -4.0625 54.5625 C-4.07410156 53.36753906 -4.08570313 52.17257812 -4.09765625 50.94140625 C-4 48 -4 48 -3 47 C-2.951276 45.45910348 -2.96362861 43.91623757 -3 42.375 C-3.10893361 28.21363118 -1.39721067 14.07582976 0 0 Z "
     fill="#282828"
     transform="translate(640,408)"
     id="path18" />
  <path
     d="M0 0 C0.75 2.1875 0.75 2.1875 1 5 C-1.72387213 9.73716891 -6.1057202 12.73604332 -11 15 C-14.4375 15.375 -14.4375 15.375 -17 15 C-18 14 -18 14 -18.5625 11.25 C-18 8 -18 8 -16.42578125 6.59765625 C-14.32922939 5.28381708 -12.20461612 4.12220532 -10 3 C-8.9275 2.401875 -7.855 1.80375 -6.75 1.1875 C-4 0 -4 0 0 0 Z "
     fill="#0E0E0E"
     transform="translate(552,476)"
     id="path19" />
  <path
     d="M0 0 C-0.66 0.66 -1.32 1.32 -2 2 C-1.67 2.66 -1.34 3.32 -1 4 C-1.97582031 4.27714844 -2.95164062 4.55429687 -3.95703125 4.83984375 C-5.24219751 5.205694 -6.52735321 5.57158136 -7.8125 5.9375 C-9.07707031 6.29714844 -10.34164062 6.65679687 -11.64453125 7.02734375 C-13.77501982 7.64491261 -15.89563892 8.29854631 -18 9 C-17.75 5.625 -17.75 5.625 -17 2 C-14.2788774 0.17588463 -11.72424951 -0.35072051 -8.5 -0.6875 C-7.37078125 -0.81705078 -7.37078125 -0.81705078 -6.21875 -0.94921875 C-3.94822578 -1.00118497 -2.16494764 -0.65440463 0 0 Z "
     fill="#E4E5E5"
     transform="translate(575,407)"
     id="path20" />
  <path
     d="M0 0 C0.33 0 0.66 0 1 0 C2.18225237 6.83079148 1.74464946 13.12631267 1 20 C-0.32 20 -1.64 20 -3 20 C-3.55353075 6.3667426 -3.55353075 6.3667426 0 0 Z "
     fill="#323232"
     transform="translate(639,449)"
     id="path21" />
  <path
     d="M0 0 C4.33685828 1.08421457 7.85241607 2.80789228 11.75 4.9375 C13.08100237 5.60880835 14.4137169 6.27676578 15.75 6.9375 C15.75 7.2675 15.75 7.5975 15.75 7.9375 C11.42700019 8.13856976 8.71102422 7.54954474 4.75 5.9375 C2.65421754 5.36424959 0.5494263 4.82307559 -1.5625 4.3125 C-3.16544922 3.92191406 -3.16544922 3.92191406 -4.80078125 3.5234375 C-5.60902344 3.33007812 -6.41726563 3.13671875 -7.25 2.9375 C-3.65625 -0.0703125 -3.65625 -0.0703125 0 0 Z "
     fill="#E3E3E2"
     transform="translate(451.25,591.0625)"
     id="path22" />
  <path
     d="M0 0 C1.98 0 3.96 0 6 0 C5.01 0.495 5.01 0.495 4 1 C4.061875 2.7015625 4.061875 2.7015625 4.125 4.4375 C4.14183841 9.14383562 3.17621777 13.46316004 2 18 C1.34 18 0.68 18 0 18 C0 12.06 0 6.12 0 0 Z "
     fill="#272727"
     transform="translate(640,408)"
     id="path23" />
  <path
     d="M0 0 C1.4540625 0.0309375 1.4540625 0.0309375 2.9375 0.0625 C3.5625 2.4375 3.5625 2.4375 3.9375 5.0625 C3.2775 5.7225 2.6175 6.3825 1.9375 7.0625 C-0.6875 6.6875 -0.6875 6.6875 -3.0625 6.0625 C-3.44468767 4.40635343 -3.77645102 2.73792976 -4.0625 1.0625 C-3.0625 0.0625 -3.0625 0.0625 0 0 Z "
     fill="#202020"
     transform="translate(430.0625,466.9375)"
     id="path24" />
  <path
     d="M0 0 C2.625 0.375 2.625 0.375 5 1 C5.6875 2.8125 5.6875 2.8125 6 5 C4.5625 6.75 4.5625 6.75 3 8 C1.0625 7.25 1.0625 7.25 -1 6 C-1.875 4 -1.875 4 -2 2 C-1.34 1.34 -0.68 0.68 0 0 Z "
     fill="#151515"
     transform="translate(592,466)"
     id="path25" />
  <path
     d="M0 0 C2.5 0.125 2.5 0.125 3.5 1.125 C3.625 3.625 3.625 3.625 3.5 6.125 C2.5 7.125 2.5 7.125 -0.0625 7.1875 C-1.2690625 7.1565625 -1.2690625 7.1565625 -2.5 7.125 C-2.88133299 5.1335944 -3.21325582 3.13220923 -3.5 1.125 C-2.5 0.125 -2.5 0.125 0 0 Z "
     fill="#181818"
     transform="translate(615.5,451.875)"
     id="path26" />
  <path
     d="M0 0 C0.33 0 0.66 0 1 0 C2.125 7.625 2.125 7.625 1 11 C-0.32 11 -1.64 11 -3 11 C-2.32829194 7.1936543 -1.27253436 3.64793184 0 0 Z "
     fill="#1A1A1B"
     transform="translate(639,449)"
     id="path27" />
  <path
     d="M0 0 C0.33 0 0.66 0 1 0 C1 1.65 1 3.3 1 5 C1.66 5 2.32 5 3 5 C3 8.3 3 11.6 3 15 C-0.5678289 11.4321711 -0.66081816 9.91813673 -1 5 C-0.5625 2.0625 -0.5625 2.0625 0 0 Z "
     fill="#424142"
     transform="translate(638,439)"
     id="path28" />
  <path
     d="M0 0 C-2.88628401 1.57554035 -5.53342384 2.46276373 -8.75 3.125 C-9.54921875 3.29257813 -10.3484375 3.46015625 -11.171875 3.6328125 C-11.77515625 3.75398437 -12.3784375 3.87515625 -13 4 C-13.33 3.01 -13.66 2.02 -14 1 C-9.32798795 -0.20568053 -4.78503708 -0.09382426 0 0 Z "
     fill="#CCCDCC"
     transform="translate(434,175)"
     id="path29" />
  <path
     d="M0 0 C0.33 0 0.66 0 1 0 C1.1953125 6.0546875 1.1953125 6.0546875 1 8 C0.34 8.66 -0.32 9.32 -1 10 C-1.99 10 -2.98 10 -4 10 C-3.67 7.03 -3.34 4.06 -3 1 C-2.67 1 -2.34 1 -2 1 C-2 2.98 -2 4.96 -2 7 C-1.34 7 -0.68 7 0 7 C0 4.69 0 2.38 0 0 Z "
     fill="#363637"
     transform="translate(642,419)"
     id="path30" />
  <path
     d="M0 0 C-0.99 1.32 -1.98 2.64 -3 4 C-4.65 3.67 -6.3 3.34 -8 3 C-8 2.34 -8 1.68 -8 1 C-2.25 -1.125 -2.25 -1.125 0 0 Z "
     fill="#D2D2D2"
     transform="translate(305,506)"
     id="path31" />
  <path
     d="M0 0 C1.25541557 3.76624671 0.37061958 5.37188934 -1 9 C-1.33 8.34 -1.66 7.68 -2 7 C-2.66 7 -3.32 7 -4 7 C-2.79618552 4.50638429 -1.54571278 2.31856917 0 0 Z "
     fill="#DADADA"
     transform="translate(418,338)"
     id="path32" />
  <path
     d="M0 0 C0.99 0 1.98 0 3 0 C3 1.32 3 2.64 3 4 C3.66 4.33 4.32 4.66 5 5 C3.0625 5.5625 3.0625 5.5625 1 6 C0 5 0 5 -0.0625 2.4375 C-0.041875 1.633125 -0.02125 0.82875 0 0 Z "
     fill="#191919"
     transform="translate(636,469)"
     id="path33" />
  <path
     style="fill:#ffffff;fill-opacity:1"
     d="m 293.87755,669.34934 19.36135,31.11645 8.29771,49.78631 3.45739,110.63626 -5.53181,93.34934 26.96758,3.45738 4.84034,-161.11405 0.69147,-22.12725 -8.98919,-64.30732 -11.06363,-35.95678 -16.59543,-19.36135 z"
     id="path34" />
</svg>
