<?xml version="1.0" encoding="UTF-8"?>
<svg version="1.1" xmlns="http://www.w3.org/2000/svg" width="1188" height="1324">
<path d="M0 0 C392.04 0 784.08 0 1188 0 C1188 436.92 1188 873.84 1188 1324 C795.96 1324 403.92 1324 0 1324 C0 887.08 0 450.16 0 0 Z " fill="#151515" transform="translate(0,0)"/>
<path d="M0 0 C3.81461547 0.01070974 7.62875815 0.00004289 11.44335938 -0.01269531 C30.92107421 -0.02424947 50.39364247 0.72047565 69.63867188 3.94824219 C70.65598389 4.11775391 71.6732959 4.28726563 72.72143555 4.46191406 C152.57547447 18.35483468 233.61064163 57.88614682 287.33007812 119.83105469 C289.71701415 122.56526133 292.20912443 125.18460372 294.70117188 127.82324219 C301.52385626 135.18664654 307.50757341 143.18271224 313.45117188 151.26074219 C313.95793457 151.94797363 314.46469727 152.63520508 314.98681641 153.34326172 C362.1793539 217.74701445 389.54546145 295.11011613 397.45117188 374.26074219 C397.53368698 375.03865112 397.61620209 375.81656006 397.70121765 376.61804199 C398.40571662 383.66136681 398.64052537 390.64571108 398.68945312 397.72167969 C398.69915634 398.89390579 398.70885956 400.0661319 398.71885681 401.27388 C398.74373447 405.06120255 398.75638273 408.84834611 398.76367188 412.63574219 C398.76629028 413.92952789 398.76890869 415.2233136 398.77160645 416.55630493 C398.77626265 438.05784792 397.67520628 459.00704616 394.45117188 480.26074219 C394.21092285 481.8960791 394.21092285 481.8960791 393.96582031 483.56445312 C392.97410672 490.16956041 391.76259216 496.71258481 390.45117188 503.26074219 C390.2479834 504.31922363 390.04479492 505.37770508 389.83544922 506.46826172 C374.66129698 585.14947083 336.36243083 658.1355393 281.94433594 716.64550781 C280.26642037 718.46059764 278.60469677 720.28984553 276.94335938 722.12011719 C275.75859327 723.4171107 274.5736995 724.71398761 273.38867188 726.01074219 C272.82801025 726.63207031 272.26734863 727.25339844 271.68969727 727.89355469 C270.31726927 729.38744583 268.88879002 730.82947582 267.45117188 732.26074219 C266.79117188 732.26074219 266.13117187 732.26074219 265.45117188 732.26074219 C263.74506574 733.8870132 262.0861457 735.5629742 260.45117188 737.26074219 C251.86774097 745.50178039 242.97238698 753.12463955 233.45117188 760.26074219 C232.76925781 760.7725 232.08734375 761.28425781 231.38476562 761.81152344 C199.90866199 785.29006898 165.31563383 803.75757972 128.45117188 817.26074219 C127.70158203 817.53724609 126.95199219 817.81375 126.1796875 818.09863281 C104.71085855 825.91447377 82.01020951 831.69912663 59.45117188 835.26074219 C58.42491699 835.42646729 57.39866211 835.59219238 56.34130859 835.76293945 C47.10869488 837.176819 37.89317345 837.93934089 28.57617188 838.44824219 C27.41447479 838.51270035 27.41447479 838.51270035 26.22930908 838.57846069 C-17.70252314 840.93445297 -60.54753709 835.43653296 -102.54882812 822.26074219 C-104.13432696 821.77623147 -105.72024004 821.29307342 -107.30664062 820.81152344 C-113.07108868 819.05159847 -118.82029445 817.27646543 -124.43164062 815.06933594 C-127.4465769 813.91787504 -130.50065374 812.88333666 -133.54882812 811.82324219 C-147.81047028 806.73745787 -147.81047028 806.73745787 -149.54882812 803.26074219 C-151.21339664 802.91708459 -152.88054268 802.58587689 -154.54882812 802.26074219 C-156.46185878 801.4199177 -158.34600409 800.51182672 -160.20507812 799.55761719 C-161.84694092 798.71529541 -161.84694092 798.71529541 -163.52197266 797.85595703 C-164.68583496 797.24703613 -165.84969727 796.63811523 -167.04882812 796.01074219 C-167.64741638 795.69872864 -168.24600464 795.38671509 -168.86273193 795.06524658 C-210.98189927 773.05742448 -245.80836586 743.26482592 -279.07617188 709.74926758 C-280.77757197 708.03694815 -282.48487337 706.33047873 -284.19702148 704.62890625 C-333.51137111 654.9715626 -363.54006406 585.11954723 -379.83422852 518.00585938 C-380.4738527 515.54875849 -381.23315755 513.18421298 -382.04492188 510.78027344 C-384.34244674 503.27477609 -385.16114695 495.41502896 -386.22875977 487.66064453 C-386.60581345 484.92574206 -386.99521663 482.19282827 -387.38671875 479.45996094 C-388.1512539 474.06563918 -388.86581472 468.66596461 -389.54882812 463.26074219 C-389.65308105 462.44212708 -389.75733398 461.62351196 -389.86474609 460.78009033 C-391.65334906 446.32355366 -391.94581431 431.94136613 -391.92382812 417.38574219 C-391.92428131 416.21374268 -391.9247345 415.04174316 -391.92520142 413.83422852 C-391.90777095 398.39581466 -391.43007899 383.11092602 -389.73632812 367.76074219 C-389.65364685 367.00553284 -389.57096558 366.25032349 -389.48577881 365.472229 C-388.52446433 356.96829322 -387.09343003 348.6449828 -385.21166992 340.29003906 C-384.40902899 336.62183699 -383.87655414 332.97966684 -383.36132812 329.26074219 C-380.43419867 310.34371703 -374.64818282 291.50674519 -368.29003906 273.48364258 C-367.3679257 270.71821366 -366.56070676 267.92402458 -365.73632812 265.12792969 C-363.56289894 258.01716997 -360.76957282 251.25824086 -357.79882812 244.44824219 C-357.53360352 243.83590729 -357.26837891 243.22357239 -356.99511719 242.59268188 C-353.1467384 233.71019745 -349.15247926 224.94174388 -344.64746094 216.37255859 C-343.36836996 213.91386149 -342.12719628 211.43737992 -340.88476562 208.95996094 C-325.81988205 179.16941315 -306.7305739 151.3429002 -283.96289062 126.88574219 C-282.01778355 124.7706743 -280.13228379 122.62720944 -278.25585938 120.45214844 C-274.54155773 116.19338891 -270.61754376 112.18127818 -266.61132812 108.19824219 C-265.94681641 107.52986328 -265.28230469 106.86148438 -264.59765625 106.17285156 C-260.07978454 101.66374391 -255.39496471 97.41303609 -250.54882812 93.26074219 C-249.52790079 92.37152718 -248.50706002 91.48221278 -247.48632812 90.59277344 C-226.65551489 72.725919 -203.90318892 56.93452807 -179.54882812 44.26074219 C-178.73865234 43.82987305 -177.92847656 43.39900391 -177.09375 42.95507812 C-140.9390177 23.77459276 -100.96411651 10.5793106 -60.45874023 4.74389648 C-57.8960276 4.31839029 -55.37292662 3.8103611 -52.83081055 3.27856445 C-35.48268801 -0.21457572 -17.61865971 -0.05863865 0 0 Z " fill="#0E0E0E" transform="translate(589.548828125,215.7392578125)"/>
<path d="M0 0 C3.81461547 0.01070974 7.62875815 0.00004289 11.44335938 -0.01269531 C30.92107421 -0.02424947 50.39364247 0.72047565 69.63867188 3.94824219 C70.65598389 4.11775391 71.6732959 4.28726563 72.72143555 4.46191406 C152.57547447 18.35483468 233.61064163 57.88614682 287.33007812 119.83105469 C289.71701415 122.56526133 292.20912443 125.18460372 294.70117188 127.82324219 C301.52385626 135.18664654 307.50757341 143.18271224 313.45117188 151.26074219 C313.95793457 151.94797363 314.46469727 152.63520508 314.98681641 153.34326172 C362.1793539 217.74701445 389.54546145 295.11011613 397.45117188 374.26074219 C397.53368698 375.03865112 397.61620209 375.81656006 397.70121765 376.61804199 C398.40571662 383.66136681 398.64052537 390.64571108 398.68945312 397.72167969 C398.69915634 398.89390579 398.70885956 400.0661319 398.71885681 401.27388 C398.74373447 405.06120255 398.75638273 408.84834611 398.76367188 412.63574219 C398.76629028 413.92952789 398.76890869 415.2233136 398.77160645 416.55630493 C398.77626265 438.05784792 397.67520628 459.00704616 394.45117188 480.26074219 C394.21092285 481.8960791 394.21092285 481.8960791 393.96582031 483.56445312 C392.97410672 490.16956041 391.76259216 496.71258481 390.45117188 503.26074219 C390.2479834 504.31922363 390.04479492 505.37770508 389.83544922 506.46826172 C374.66129698 585.14947083 336.36243083 658.1355393 281.94433594 716.64550781 C280.26642037 718.46059764 278.60469677 720.28984553 276.94335938 722.12011719 C275.75859327 723.4171107 274.5736995 724.71398761 273.38867188 726.01074219 C272.82801025 726.63207031 272.26734863 727.25339844 271.68969727 727.89355469 C270.31726927 729.38744583 268.88879002 730.82947582 267.45117188 732.26074219 C266.79117188 732.26074219 266.13117187 732.26074219 265.45117188 732.26074219 C263.74761488 728.3425611 262.76124191 724.48736249 261.82617188 720.32324219 C253.0041134 683.46644975 234.68250562 651.32858028 208.01367188 624.63574219 C207.30146484 623.91128906 206.58925781 623.18683594 205.85546875 622.44042969 C201.33261449 617.90525157 196.6534124 613.98570213 191.45117188 610.26074219 C189.88689453 609.06578125 189.88689453 609.06578125 188.29101562 607.84667969 C187.33324219 607.11707031 186.37546875 606.38746094 185.38867188 605.63574219 C183.94814453 604.53359375 183.94814453 604.53359375 182.47851562 603.40917969 C179.25264559 601.11985256 175.91216003 599.16223928 172.45117188 597.26074219 C170.07369524 595.93179871 167.69993225 594.59630846 165.32617188 593.26074219 C164.73191406 592.93074219 164.13765625 592.60074219 163.52539062 592.26074219 C156.64466547 588.37229707 152.63493238 584.61419451 148.70117188 577.88574219 C148.10369141 576.91507813 148.10369141 576.91507813 147.49414062 575.92480469 C145.17960518 572.03324679 143.87101346 568.84670415 143.45117188 564.26074219 C143.37253906 563.58011719 143.29390625 562.89949219 143.21289062 562.19824219 C142.97501254 555.9883721 144.64724214 550.63921108 146.42773438 544.72949219 C149.69194017 533.66607712 152.38794272 519.53875723 147.38867188 508.63574219 C142.42551375 500.3684203 134.84221485 496.53971889 126.45117188 492.26074219 C126.45117188 491.60074219 126.45117188 490.94074219 126.45117188 490.26074219 C127.95507813 488.78027344 127.95507813 488.78027344 130.01367188 487.07324219 C142.32649344 476.52863668 151.27537569 464.15770753 159.45117188 450.26074219 C160.25941406 448.95169922 160.25941406 448.95169922 161.08398438 447.61621094 C163.42719456 443.57919453 164.91815542 439.10306572 166.21289062 434.62792969 C168.37535192 427.91549327 168.37535192 427.91549327 171.35742188 426.10058594 C173.70425509 425.34447594 176.04406758 424.79271978 178.45117188 424.26074219 C190.95197898 420.4007751 198.3466491 412.65891129 204.45117188 401.26074219 C214.89913794 379.81185363 218.94081006 352.46565281 211.67773438 329.37011719 C210.15794264 325.51739674 208.40839616 321.88019339 206.30664062 318.31152344 C205.45117188 316.26074219 205.45117188 316.26074219 205.57226562 314.38574219 C206.82958862 311.34581458 208.55077651 308.71538772 210.32617188 305.94824219 C218.08376405 293.8538411 219.7794772 283.82796262 219.57617188 269.69824219 C219.56263672 267.8990332 219.56263672 267.8990332 219.54882812 266.06347656 C219.52544599 263.1290191 219.49267467 260.19498985 219.45117188 257.26074219 C220.36898437 256.96941406 221.28679688 256.67808594 222.23242188 256.37792969 C234.04732175 252.43135599 241.9389612 247.87496256 247.82617188 236.63574219 C248.56593787 233.82463139 248.09292999 232.06029571 247.45117188 229.26074219 C246.67773438 229.2465625 245.90429688 229.23238281 245.10742188 229.21777344 C237.90139835 228.88779464 232.95380552 228.02479628 227.45117188 223.26074219 C222.49675305 217.64055785 219.1312133 211.18276498 215.70117188 204.57324219 C207.84369067 189.82637244 198.54594166 176.65725538 184.45117188 167.26074219 C185.81019271 164.15921444 187.30137704 162.30586644 189.82617188 160.07324219 C194.58662056 155.38236165 197.19419813 150.75727015 197.68945312 144.01855469 C197.69980085 141.08669864 197.62940139 138.18667674 197.45117188 135.26074219 C191.37527499 135.75703178 191.37527499 135.75703178 185.51367188 137.32324219 C174.90289169 140.5714402 162.45132552 137.31800767 152.59960938 132.98730469 C147.69436826 130.29733375 143.53135074 126.83154357 139.21289062 123.29980469 C112.16917968 101.22710118 84.34517082 91.31134498 49.45117188 92.26074219 C49.35320312 91.30554688 49.25523437 90.35035156 49.15429688 89.36621094 C47.37945648 74.01996166 43.12509336 60.17698961 30.81445312 49.95605469 C24.99949578 45.7846638 19.63567288 43.51235667 12.45117188 44.26074219 C10.53144355 46.18047052 11.27869909 49.0352354 11.21240234 51.59716797 C10.85105002 64.34500789 8.65346678 73.86112712 -0.54882812 83.26074219 C-6.2323347 87.76215505 -10.81920147 90.32092687 -18.14257812 90.54199219 C-19.25632812 90.579375 -20.37007812 90.61675781 -21.51757812 90.65527344 C-23.26554688 90.70748047 -23.26554688 90.70748047 -25.04882812 90.76074219 C-38.57123178 89.95129427 -38.57123178 89.95129427 -50.54882812 93.26074219 C-52.73287868 93.63559342 -54.92144975 93.98409179 -57.11132812 94.32324219 C-89.64162182 99.99949256 -123.26948906 116.97400155 -143.10058594 144.04321289 C-147.44316134 149.95917299 -151.62185117 154.16740127 -157.76367188 158.33105469 C-167.62659824 165.16455486 -174.47131439 173.71351277 -181.25537109 183.41210938 C-194.7155522 202.64965021 -194.7155522 202.64965021 -202.54882812 205.26074219 C-205.93423036 205.5677308 -209.32017874 205.76978814 -212.71289062 205.97949219 C-215.44752175 205.9481455 -215.44752175 205.9481455 -216.54882812 207.26074219 C-216.91959402 212.55574256 -215.87064883 216.47196971 -212.48632812 220.57324219 C-208.91230881 224.28814608 -205.27440968 226.27102364 -200.54882812 228.26074219 C-203.54882812 238.26074219 -203.54882812 238.26074219 -204.31274414 240.42407227 C-206.56550898 247.11679774 -206.97333881 253.16845143 -206.86132812 260.19824219 C-206.86455078 261.20564453 -206.86777344 262.21304687 -206.87109375 263.25097656 C-206.78364121 275.61358567 -204.23676557 284.8394721 -198.47460938 295.69238281 C-198.07113281 296.48708984 -197.66765625 297.28179688 -197.25195312 298.10058594 C-196.8771582 298.80562256 -196.50236328 299.51065918 -196.11621094 300.23706055 C-195.54882812 302.26074219 -195.54882812 302.26074219 -196.34985352 304.37670898 C-197.79252423 306.64367903 -199.24966255 308.89723887 -200.73632812 311.13574219 C-203.44143224 315.38258623 -205.95562707 319.67818773 -208.29882812 324.13574219 C-208.85054687 325.18503906 -209.40226563 326.23433594 -209.97070312 327.31542969 C-214.30319765 337.15469634 -215.10623036 347.64563298 -215.04882812 358.26074219 C-215.04238281 359.52096191 -215.0359375 360.78118164 -215.02929688 362.07958984 C-214.62775405 382.88320648 -209.39521228 401.90177074 -194.71679688 417.18652344 C-192.2580565 419.53893991 -189.7323605 421.75796209 -187.08398438 423.89355469 C-185.54882813 425.26074219 -185.54882813 425.26074219 -183.23632812 428.38574219 C-178.59708779 433.34865045 -172.16071025 435.21048764 -165.54882812 436.26074219 C-163.09674922 436.2738009 -160.64409062 436.2297884 -158.19335938 436.14746094 C-156.75133588 436.11530881 -155.30927587 436.0847617 -153.8671875 436.05566406 C-151.61966883 436.00654465 -149.37412649 435.9487304 -147.12768555 435.86303711 C-138.48491646 435.54752409 -131.88597761 435.60658962 -124.56811523 440.84643555 C-121.95658006 442.67555213 -119.54910118 443.20638167 -116.42382812 443.69824219 C-111.05272777 444.85066219 -108.34803549 446.73642051 -104.49023438 450.54589844 C-100.30485769 454.24284082 -94.9260449 456.02543563 -89.54882812 457.26074219 C-89.54882812 459.90074219 -89.54882812 462.54074219 -89.54882812 465.26074219 C-90.47566406 465.39351562 -91.4025 465.52628906 -92.35742188 465.66308594 C-93.55496094 465.8396875 -94.7525 466.01628906 -95.98632812 466.19824219 C-97.18128906 466.37226562 -98.37625 466.54628906 -99.60742188 466.72558594 C-102.42838488 466.95059432 -102.42838488 466.95059432 -103.54882812 468.26074219 C-105.83664148 468.56239904 -108.12946798 468.82626378 -110.42382812 469.07324219 C-120.32950494 470.29494233 -129.73057005 472.43925268 -136.54882812 480.26074219 C-144.36786528 491.28391077 -141.72677368 505.24142406 -140.54882812 517.94824219 C-140.29088877 520.86785084 -140.03497132 523.78762644 -139.78027344 526.70751953 C-139.58527307 528.85869452 -139.36312701 531.00738376 -139.13476562 533.15527344 C-138.65887018 540.16151195 -138.65887018 540.16151195 -141.12695312 543.20996094 C-143.17382812 544.94824219 -143.17382812 544.94824219 -145.37304688 546.54980469 C-149.02241785 549.41950753 -151.45680303 553.14417667 -153.54882812 557.26074219 C-153.73445313 558.93136719 -153.73445313 558.93136719 -153.92382812 560.63574219 C-154.13007813 561.50199219 -154.33632813 562.36824219 -154.54882812 563.26074219 C-156.44826943 564.02596964 -158.35430913 564.77869751 -160.28955078 565.44824219 C-169.05744076 568.60142328 -183.37310877 574.04078231 -187.77539062 582.66308594 C-190.24519389 586.28074932 -193.27880278 587.66025922 -197.11132812 589.63574219 C-198.5626132 590.41838088 -200.0118398 591.20484871 -201.45898438 591.99511719 C-202.16168457 592.37861328 -202.86438477 592.76210938 -203.58837891 593.15722656 C-210.95317795 597.30279215 -217.32626161 602.59475586 -223.54882812 608.26074219 C-224.46535156 609.0509375 -225.381875 609.84113281 -226.32617188 610.65527344 C-233.59635693 616.99386973 -239.583774 623.86773042 -245.32324219 631.60888672 C-246.43407303 633.10607427 -247.56458317 634.58861106 -248.69726562 636.06933594 C-261.27301762 652.79558315 -269.60385955 671.25044743 -276.98632812 690.69824219 C-277.53205402 692.12356319 -278.07827624 693.54869427 -278.625 694.97363281 C-279.938633 698.40051367 -281.24566601 701.82986358 -282.54882812 705.26074219 C-287.27783249 701.45572706 -291.2133758 697.54224445 -294.86132812 692.69824219 C-295.5655188 691.77990601 -295.5655188 691.77990601 -296.28393555 690.84301758 C-297.24858357 689.58454837 -298.21060327 688.32405992 -299.16992188 687.06152344 C-300.4227168 685.42543715 -301.70306773 683.81054371 -302.98632812 682.19824219 C-340.98613863 634.19848155 -365.47490584 577.1501685 -379.83422852 518.00585938 C-380.4738527 515.54875849 -381.23315755 513.18421298 -382.04492188 510.78027344 C-384.34244674 503.27477609 -385.16114695 495.41502896 -386.22875977 487.66064453 C-386.60581345 484.92574206 -386.99521663 482.19282827 -387.38671875 479.45996094 C-388.1512539 474.06563918 -388.86581472 468.66596461 -389.54882812 463.26074219 C-389.65308105 462.44212708 -389.75733398 461.62351196 -389.86474609 460.78009033 C-391.65334906 446.32355366 -391.94581431 431.94136613 -391.92382812 417.38574219 C-391.92428131 416.21374268 -391.9247345 415.04174316 -391.92520142 413.83422852 C-391.90777095 398.39581466 -391.43007899 383.11092602 -389.73632812 367.76074219 C-389.65364685 367.00553284 -389.57096558 366.25032349 -389.48577881 365.472229 C-388.52446433 356.96829322 -387.09343003 348.6449828 -385.21166992 340.29003906 C-384.40902899 336.62183699 -383.87655414 332.97966684 -383.36132812 329.26074219 C-380.43419867 310.34371703 -374.64818282 291.50674519 -368.29003906 273.48364258 C-367.3679257 270.71821366 -366.56070676 267.92402458 -365.73632812 265.12792969 C-363.56289894 258.01716997 -360.76957282 251.25824086 -357.79882812 244.44824219 C-357.53360352 243.83590729 -357.26837891 243.22357239 -356.99511719 242.59268188 C-353.1467384 233.71019745 -349.15247926 224.94174388 -344.64746094 216.37255859 C-343.36836996 213.91386149 -342.12719628 211.43737992 -340.88476562 208.95996094 C-325.81988205 179.16941315 -306.7305739 151.3429002 -283.96289062 126.88574219 C-282.01778355 124.7706743 -280.13228379 122.62720944 -278.25585938 120.45214844 C-274.54155773 116.19338891 -270.61754376 112.18127818 -266.61132812 108.19824219 C-265.94681641 107.52986328 -265.28230469 106.86148438 -264.59765625 106.17285156 C-260.07978454 101.66374391 -255.39496471 97.41303609 -250.54882812 93.26074219 C-249.52790079 92.37152718 -248.50706002 91.48221278 -247.48632812 90.59277344 C-226.65551489 72.725919 -203.90318892 56.93452807 -179.54882812 44.26074219 C-178.73865234 43.82987305 -177.92847656 43.39900391 -177.09375 42.95507812 C-140.9390177 23.77459276 -100.96411651 10.5793106 -60.45874023 4.74389648 C-57.8960276 4.31839029 -55.37292662 3.8103611 -52.83081055 3.27856445 C-35.48268801 -0.21457572 -17.61865971 -0.05863865 0 0 Z " fill="#AE9D8F" transform="translate(589.548828125,215.7392578125)"/>
<path d="M0 0 C1.88398301 1.88398301 1.22485965 5.3009781 1.3125 7.8125 C2.12977768 24.2670239 4.63253247 49.41498285 17.27734375 61.10546875 C24.09861433 65.85197697 33.64448224 66.28348406 41.7578125 66.7890625 C44 67 44 67 47 68 C51.9729426 68.27064749 56.95777382 68.24462067 61.9375 68.25 C62.65808594 68.25133942 63.37867188 68.25267883 64.12109375 68.25405884 C89.92524672 68.72474034 89.92524672 68.72474034 112.40625 57.9609375 C120.66120965 47.80409989 123.38708962 30.19418282 123.53125 17.41796875 C124.15981888 14.17560097 125.46529676 13.05721513 128 11 C133.51786441 7.44867008 141.54872925 7.29634286 147.81640625 8.57421875 C153.41716507 10.41716507 153.41716507 10.41716507 155 12 C155.24968198 13.45388711 155.44373262 14.91741765 155.61328125 16.3828125 C155.78017456 17.75240112 155.78017456 17.75240112 155.95043945 19.1496582 C156.06991943 20.131521 156.18939941 21.11338379 156.3125 22.125 C158.85209819 43.39023401 158.85209819 43.39023401 170.8125 60.4375 C174.25416155 62.12458899 177.39058273 62.93265051 181.14453125 63.60546875 C183 64 183 64 184 65 C200.04203097 68.70616904 217.91515062 68.12135907 234.07421875 65.4375 C236.77157228 65.03415742 239.27876749 64.9192213 242 65 C240.88307591 78.6823201 236.28386358 90.94818412 230 103 C229.69046387 103.59699707 229.38092773 104.19399414 229.06201172 104.80908203 C213.68195581 134.04475655 188.49166759 155.44618992 157.0625 165.84375 C147.86422114 168.57959613 139.27536319 169.29001514 129.6875 169.1875 C128.55376953 169.18685547 127.42003906 169.18621094 126.25195312 169.18554688 C114.42739718 169.12490813 103.13203796 168.3617298 91.625 165.5625 C90.69300781 165.34529297 89.76101563 165.12808594 88.80078125 164.90429688 C75.12185331 161.68288032 75.12185331 161.68288032 70 159.25 C66.03893774 157.42027073 62.01650366 155.86089151 57.9375 154.3125 C49.49092213 151.01927647 41.76266651 146.65210196 34 142 C33.01128906 141.4121875 32.02257812 140.824375 31.00390625 140.21875 C7.65944997 125.85293075 -10.97235957 106.01777134 -23.5 81.5625 C-23.85070557 80.88807861 -24.20141113 80.21365723 -24.56274414 79.51879883 C-26.36874609 75.87811377 -27.59793018 73.07000202 -27 69 C-26.3785673 67.31594429 -25.70862826 65.64926293 -25 64 C-24.44505609 62.05105822 -23.92536969 60.09180451 -23.4375 58.125 C-23.18871094 57.13757813 -22.93992187 56.15015625 -22.68359375 55.1328125 C-20.70551994 46.06758282 -20.70863465 37.02608683 -20.5703125 27.78320312 C-20.52390625 26.03233398 -20.52390625 26.03233398 -20.4765625 24.24609375 C-20.45674316 23.19091553 -20.43692383 22.1357373 -20.41650391 21.04858398 C-19.93595882 17.53125312 -18.68796987 15.100964 -17 12 C-16.27515907 9.30456334 -16.27515907 9.30456334 -15.875 6.6875 C-15.09189189 2.09189189 -15.09189189 2.09189189 -14 1 C-9.42061514 0.23361534 -4.63902242 -0.2899389 0 0 Z " fill="#FBFBFC" transform="translate(514,556)"/>
<path d="M0 0 C0.66 0 1.32 0 2 0 C2.24234375 0.64066406 2.4846875 1.28132813 2.734375 1.94140625 C4.3038281 5.99180253 5.84761675 9.94186733 8.0625 13.6875 C9.66218853 16.42245135 10.89005444 19.09180554 12.109375 22.00390625 C18.75968675 36.90877162 28.74534851 51.91228768 44.25 58.5 C48.16009391 59.87819897 51.88815775 60.56256997 56 61 C57.85797341 62.85797341 57.13049331 65.9322025 57.1328125 68.4140625 C57.13410156 69.73277344 57.13539063 71.05148437 57.13671875 72.41015625 C57.13462402 73.10254395 57.1325293 73.79493164 57.13037109 74.50830078 C57.12507497 76.59545345 57.13028763 78.68238578 57.13671875 80.76953125 C57.13605696 82.10937547 57.13477372 83.44921955 57.1328125 84.7890625 C57.13168457 86.00287598 57.13055664 87.21668945 57.12939453 88.46728516 C56.99848401 92.04138946 56.56899056 95.47135446 56 99 C55.20795166 98.93143799 54.41590332 98.86287598 53.59985352 98.79223633 C42.167546 97.90991148 30.7507387 97.74589736 19.28735352 97.70483398 C17.06658543 97.69334251 14.84584435 97.67293601 12.62524414 97.64331055 C0.82149518 97.48676679 -10.65629111 97.72509537 -22.30859375 99.76953125 C-23.6696096 100.00309578 -23.6696096 100.00309578 -25.05812073 100.24137878 C-29.99879759 101.2167218 -33.35089337 102.3050697 -37 106 C-39.98346375 111.49419556 -40.51329818 117.86755701 -41 124 C-42.49660156 123.75830078 -42.49660156 123.75830078 -44.0234375 123.51171875 C-47.89815652 122.96083394 -51.70888279 122.8324395 -55.625 122.8125 C-56.89601563 122.79832031 -58.16703125 122.78414062 -59.4765625 122.76953125 C-62.83875849 122.98945316 -64.96212258 123.65160879 -68 125 C-68.99 125 -69.98 125 -71 125 C-71.03867187 123.37191406 -71.03867187 123.37191406 -71.078125 121.7109375 C-71.13443738 120.26558651 -71.191784 118.82027556 -71.25 117.375 C-71.26417969 116.66214844 -71.27835938 115.94929687 -71.29296875 115.21484375 C-71.52724346 110.10765512 -72.61735265 107.03597455 -76 103 C-88.05220921 96.9738954 -102.84391217 95.86139786 -116.1484375 95.796875 C-117.11091904 95.78995132 -118.07340057 95.78302765 -119.06504822 95.77589417 C-122.16840703 95.75864678 -125.27159547 95.75230332 -128.375 95.75 C-129.42924164 95.74866058 -130.48348328 95.74732117 -131.56967163 95.74594116 C-160.86692992 95.10233319 -160.86692992 95.10233319 -189 102 C-189.85980469 102.87011719 -190.71960938 103.74023438 -191.60546875 104.63671875 C-194.97798603 107.96522275 -197.74948033 107.77386584 -202.3125 107.8125 C-204.849375 107.874375 -207.38625 107.93625 -210 108 C-210.33 98.76 -210.66 89.52 -211 80 C-203.5 76.4375 -203.5 76.4375 -201.18945312 75.36499023 C-192.03053033 70.89450783 -186.05852098 64.33593239 -180.3125 56.0625 C-179.77044922 55.30259766 -179.22839844 54.54269531 -178.66992188 53.75976562 C-175.26400704 48.94875685 -172.06598504 44.03384775 -169 39 C-168 41 -168 41 -168.77734375 43.43359375 C-169.16019531 44.42488281 -169.54304687 45.41617188 -169.9375 46.4375 C-172.05838378 52.46489137 -172.44895448 57.66475345 -172 64 C-152.72902189 62.1747752 -135.16058792 50.8524426 -122.65039062 36.44580078 C-119.9021969 33.09577394 -117.41690007 29.59348428 -115 26 C-114.43667969 25.16855469 -113.87335938 24.33710938 -113.29296875 23.48046875 C-109.18484454 17.0426741 -106.54313859 10.17930274 -104 3 C-103.34 3 -102.68 3 -102 3 C-101.18080579 6.01905791 -100.37088233 9.04053079 -99.5625 12.0625 C-99.33240234 12.91005859 -99.10230469 13.75761719 -98.86523438 14.63085938 C-96.59899908 23.13745273 -95.83924636 31.09152131 -95.875 39.875 C-95.87113281 40.81730469 -95.86726562 41.75960937 -95.86328125 42.73046875 C-95.88408027 57.76816054 -95.88408027 57.76816054 -98 62 C-98.50007794 65.45786015 -98.50007794 65.45786015 -98 69 C-94.05624738 72.28771729 -90.24346189 72.4401153 -85.3125 72.3125 C-84.60496582 72.3019458 -83.89743164 72.2913916 -83.16845703 72.28051758 C-65.37006753 71.83200628 -55.01391726 63.4711065 -43 51 C-42.01 50.01 -42.01 50.01 -41 49 C-40.67 53.29 -40.34 57.58 -40 62 C-28.73522708 60.12253785 -21.8682581 52.81795718 -15 44 C-5.8565493 30.5086147 -1.5366153 16.16886244 0 0 Z " fill="#F8F8F8" transform="translate(710,430)"/>
<path d="M0 0 C3.27988039 -0.00970666 6.55913279 -0.04083361 9.83886719 -0.07226562 C19.75942554 -0.12273385 29.49483597 0.05777621 39.31542969 1.56835938 C40.46612946 1.74344025 40.46612946 1.74344025 41.64007568 1.92205811 C45.83783167 2.6585963 49.11353282 3.68883938 52.54980469 6.24023438 C53.70333115 8.54728729 53.67881086 9.88625237 53.68261719 12.45117188 C53.68390625 13.28390625 53.68519531 14.11664062 53.68652344 14.97460938 C53.68265625 15.84601562 53.67878906 16.71742188 53.67480469 17.61523438 C53.67867187 18.47890625 53.68253906 19.34257813 53.68652344 20.23242188 C53.68523437 21.06773437 53.68394531 21.90304687 53.68261719 22.76367188 C53.68148926 23.52599121 53.68036133 24.28831055 53.67919922 25.07373047 C53.54884331 27.25633112 53.09993813 29.12957647 52.54980469 31.24023438 C52.3782039 32.67331924 52.23662065 34.1102156 52.12011719 35.54882812 C49.68028411 63.69502894 49.68028411 63.69502894 43.54980469 71.24023438 C27.0390977 83.70890106 -2.88511758 80.86883128 -22.02490234 78.35595703 C-22.82524902 78.23526855 -23.6255957 78.11458008 -24.45019531 77.99023438 C-25.55983643 77.826604 -25.55983643 77.826604 -26.69189453 77.65966797 C-32.48550426 76.61733733 -36.45731923 74.17617114 -40.63769531 70.11523438 C-49.60590359 55.88980056 -49.62699907 34.02639794 -49.70019531 17.74023438 C-49.73113281 15.97292969 -49.73113281 15.97292969 -49.76269531 14.16992188 C-49.76785156 13.0484375 -49.77300781 11.92695312 -49.77832031 10.77148438 C-49.78766602 9.75634766 -49.79701172 8.74121094 -49.80664062 7.6953125 C-49.68901367 6.88513672 -49.57138672 6.07496094 -49.45019531 5.24023438 C-37.04208469 -3.03183937 -14.29119024 0.02548206 0 0 Z " fill="#F8F7F8" transform="translate(575.4501953125,535.759765625)"/>
<path d="M0 0 C25.63373194 21.36144328 30.78063988 67.00744149 33.819067 97.92122459 C34.32758852 103.76373003 34.46152794 109.62386504 34.6015625 115.484375 C34.62062527 116.1982135 34.63968803 116.912052 34.65932846 117.64752197 C35.11389599 134.72984782 35.15345714 151.81401398 35.13037109 168.90136719 C35.12460152 173.19207853 35.12802267 177.48272825 35.13394356 181.7734375 C35.13759358 185.16427051 35.13639165 188.55508937 35.13381577 191.94592285 C35.13316252 193.52754728 35.13391665 195.10917312 35.13629532 196.6907959 C35.14609385 205.00513645 35.00445562 213.29023341 34.55810547 221.59375 C34.50080859 222.67745377 34.50080859 222.67745377 34.4423542 223.78305054 C34.04015672 230.58451979 33.11313704 237.27794912 32 244 C27.24424097 242.68199271 22.5904566 241.21654105 17.9375 239.5625 C16.77089844 239.15128906 15.60429687 238.74007813 14.40234375 238.31640625 C11.14689546 237.05683556 8.10862322 235.58113121 5 234 C5.00414807 233.13146991 5.00414807 233.13146991 5.00837994 232.24539375 C5.07521879 218.0244319 5.12455771 203.80348426 5.15543652 189.58239937 C5.17077386 182.70461439 5.19160488 175.82693551 5.22631836 168.94921875 C5.25991158 162.29016573 5.27694042 155.63124466 5.28463173 148.97210312 C5.29010047 146.45368612 5.30077467 143.93527389 5.31719017 141.41690445 C5.45891366 118.73616843 3.49660644 96.61237761 -0.99731445 74.37182617 C-1.44701926 72.14026273 -1.87764872 69.90555088 -2.30664062 67.66992188 C-4.96988826 54.03735856 -8.77583351 41.44833297 -15 29 C-15.42410156 28.15179687 -15.84820312 27.30359375 -16.28515625 26.4296875 C-18.96666891 21.34257345 -22.11883733 17.24220106 -26 13 C-23.52967788 6.77049206 -17.00261039 4.43286963 -11.2578125 1.69140625 C-3.8482184 -1.48570457 -3.8482184 -1.48570457 0 0 Z " fill="#F8F8F9" transform="translate(438,788)"/>
<path d="M0 0 C11.2500228 8.55805306 16.63771919 22.69485081 18.78515625 36.28125 C20.97973133 56.15342395 19.90524615 78.21743106 7.1875 94.5 C2.26854718 99.06759904 -1.77236757 101.02221043 -8.453125 100.79296875 C-15.22854174 99.95165045 -19.05505691 96.57865061 -23.4375 91.5 C-38.23831295 72.19016142 -39.72346228 50.10417853 -37.8125 26.5 C-36.3434512 16.57031829 -31.88697012 7.6632996 -24.171875 1.10546875 C-17.20329919 -3.87459932 -7.28923037 -4.55885764 0 0 Z " fill="#FAFAFB" transform="translate(419.8125,532.5)"/>
<path d="M0 0 C0.74224823 -0.00039276 1.48449646 -0.00078552 2.24923706 -0.00119019 C34.20653677 0.01903677 34.20653677 0.01903677 37.375 3.1875 C38.28910976 14.59704378 36.68635368 26.30456634 35.72094727 37.66381836 C35.43672109 41.0091678 35.16007868 44.35507821 34.88476562 47.70117188 C34.70616646 49.84899474 34.52714478 51.99678252 34.34765625 54.14453125 C34.2241555 55.62914604 34.2241555 55.62914604 34.09815979 57.14375305 C33.64053042 62.51154482 33.08368987 67.84691716 32.375 73.1875 C24.11350473 75.76921727 13.7438566 78.04317405 5.203125 75.5546875 C4.29820312 75.37292969 4.29820312 75.37292969 3.375 75.1875 C2.715 75.8475 2.055 76.5075 1.375 77.1875 C-1.07202247 77.41983136 -3.36458756 77.51950071 -5.8125 77.5 C-6.52212891 77.49581055 -7.23175781 77.49162109 -7.96289062 77.48730469 C-17.62677074 77.28615218 -29.85299943 76.4552424 -37.625 70.1875 C-47.35694473 59.58250482 -46.79290463 42.076253 -46.6875 28.625 C-46.68298828 27.52091797 -46.67847656 26.41683594 -46.67382812 25.27929688 C-46.6621514 22.581973 -46.64577525 19.88476653 -46.625 17.1875 C-42.17 18.1775 -42.17 18.1775 -37.625 19.1875 C-37.47804688 20.27417969 -37.47804688 20.27417969 -37.328125 21.3828125 C-36.43575305 27.1524587 -35.71600488 31.77352105 -31.625 36.1875 C-26.87248965 39.49044292 -22.4560047 41.12462576 -16.625 40.1875 C-11.43690325 37.84324888 -8.19677697 35.34570793 -5.625 30.1875 C-4.98404196 27.93755265 -4.42294856 25.6635432 -3.9375 23.375 C-3.56044922 21.63283203 -3.56044922 21.63283203 -3.17578125 19.85546875 C-2.99402344 18.97503906 -2.81226563 18.09460938 -2.625 17.1875 C3.74285045 17.06014299 9.96150565 17.54726812 16.30078125 18.1640625 C19.54957792 18.47630114 19.54957792 18.47630114 22.375 16.1875 C22.62530977 13.60369823 22.62530977 13.60369823 22.375 11.1875 C12.01211537 6.23133779 1.68108249 5.78323526 -9.6875 5.8125 C-10.37043121 5.81204681 -11.05336243 5.81159363 -11.75698853 5.81112671 C-30.30992264 5.58043312 -30.30992264 5.58043312 -46.625 13.1875 C-45.875 5.4375 -45.875 5.4375 -43.625 3.1875 C-40.82421875 2.58984375 -40.82421875 2.58984375 -37.3125 2.125 C-35.61673828 1.89103516 -35.61673828 1.89103516 -33.88671875 1.65234375 C-22.59860888 0.3495473 -11.35064905 -0.01278671 0 0 Z " fill="#F8F7F8" transform="translate(726.625,536.8125)"/>
<path d="M0 0 C0.66 0 1.32 0 2 0 C2.81919421 3.01905791 3.62911767 6.04053079 4.4375 9.0625 C4.66759766 9.91005859 4.89769531 10.75761719 5.13476562 11.63085938 C7.40100092 20.13745273 8.16075364 28.09152131 8.125 36.875 C8.12886719 37.81730469 8.13273438 38.75960937 8.13671875 39.73046875 C8.11591973 54.76816054 8.11591973 54.76816054 6 59 C5.49992206 62.45786015 5.49992206 62.45786015 6 66 C9.89304497 69.1644789 13.40183735 69.45802978 18.3125 69.6875 C19.56675781 69.75324219 20.82101562 69.81898438 22.11328125 69.88671875 C23.06589844 69.92410156 24.01851562 69.96148437 25 70 C25 70.33 25 70.66 25 71 C21.04 71 17.08 71 13 71 C13.66 71.33 14.32 71.66 15 72 C14.505 73.485 14.505 73.485 14 75 C13.45472656 74.74605469 12.90945313 74.49210937 12.34765625 74.23046875 C-1.19056978 68.05148354 -13.15372075 66.74165677 -28 66.6875 C-28.68675812 66.68488159 -29.37351624 66.68226318 -30.08108521 66.67956543 C-43.75798531 66.67398164 -57.02662492 67.6693622 -69 75 C-71.32483785 76.88375675 -71.32483785 76.88375675 -71.1875 80 C-71.20079609 82.92386603 -71.20079609 82.92386603 -70 85 C-43.93 85.33 -17.86 85.66 9 86 C9 86.33 9 86.66 9 87 C5.535 87.495 5.535 87.495 2 88 C2 88.33 2 88.66 2 89 C1.195625 89.12375 0.39125 89.2475 -0.4375 89.375 C-1.7059375 89.684375 -1.7059375 89.684375 -3 90 C-3.33 90.66 -3.66 91.32 -4 92 C-5.84053955 92.02187378 -5.84053955 92.02187378 -7.71826172 92.04418945 C-36.00555577 92.22836021 -36.00555577 92.22836021 -64.1875 94.375 C-65.1676709 94.48884033 -66.1478418 94.60268066 -67.15771484 94.7199707 C-78.34196658 96.00480484 -78.34196658 96.00480484 -87.60546875 101.63671875 C-90.97798603 104.96522275 -93.74948033 104.77386584 -98.3125 104.8125 C-100.849375 104.874375 -103.38625 104.93625 -106 105 C-106.33 95.76 -106.66 86.52 -107 77 C-99.5 73.4375 -99.5 73.4375 -97.18945312 72.36499023 C-88.03053033 67.89450783 -82.05852098 61.33593239 -76.3125 53.0625 C-75.77044922 52.30259766 -75.22839844 51.54269531 -74.66992188 50.75976562 C-71.26400704 45.94875685 -68.06598504 41.03384775 -65 36 C-64 38 -64 38 -64.77734375 40.43359375 C-65.16019531 41.42488281 -65.54304687 42.41617188 -65.9375 43.4375 C-68.05838378 49.46489137 -68.44895448 54.66475345 -68 61 C-48.72902189 59.1747752 -31.16058792 47.8524426 -18.65039062 33.44580078 C-15.9021969 30.09577394 -13.41690007 26.59348428 -11 23 C-10.43667969 22.16855469 -9.87335938 21.33710938 -9.29296875 20.48046875 C-5.18484454 14.0426741 -2.54313859 7.17930274 0 0 Z " fill="#F4F4F5" transform="translate(606,433)"/>
<path d="M0 0 C-2.64882208 2.64882208 -5.55458902 3.13946383 -9.0625 4.125 C-30.80333919 10.63691538 -50.47174856 22.5585377 -67 38 C-67.78431396 38.712771 -67.78431396 38.712771 -68.58447266 39.43994141 C-84.61496775 54.06557308 -96.39126449 73.78114833 -104 94 C-104.28117676 94.72654785 -104.56235352 95.4530957 -104.85205078 96.20166016 C-109.93922653 109.30966442 -109.93922653 109.30966442 -113 123 C-113.66 123 -114.32 123 -115 123 C-115.66042344 128.12114222 -115.66042344 128.12114222 -116.21875 133.25390625 C-116.6322386 137.49954815 -117.33443171 141.41524977 -118.4609375 145.54296875 C-119.4976159 150.26811884 -119.96294958 155.10242826 -120.53515625 159.90234375 C-121 163 -121 163 -122 164 C-123.56172745 164.08685603 -125.12729344 164.10702219 -126.69140625 164.09765625 C-127.63564453 164.09443359 -128.57988281 164.09121094 -129.55273438 164.08789062 C-130.54595703 164.07951172 -131.53917969 164.07113281 -132.5625 164.0625 C-133.55958984 164.05798828 -134.55667969 164.05347656 -135.58398438 164.04882812 C-138.05604849 164.03700007 -140.52799518 164.02051849 -143 164 C-143.19972384 156.60933036 -142.7511262 149.64803508 -141.4375 142.375 C-141.26259033 141.39571533 -141.08768066 140.41643066 -140.9074707 139.4074707 C-132.98132699 97.22488792 -115.14563027 51.94515589 -78.97021484 26.32910156 C-59.19922912 12.99164849 -36.8367406 5.39561937 -13.421875 1.61328125 C-4.05541942 -0.06540999 -4.05541942 -0.06540999 0 0 Z " fill="#F7F6F7" transform="translate(558,313)"/>
<path d="M0 0 C0.65355469 0.57621094 1.30710937 1.15242187 1.98046875 1.74609375 C2.58246094 2.22949219 3.18445313 2.71289062 3.8046875 3.2109375 C17.38234215 15.20198981 23.47682829 36.80230919 24.8203125 54.21875 C26.94823304 101.08490238 26.94823304 101.08490238 11.78125 118.875 C3.46243409 127.51862868 3.46243409 127.51862868 -3.12890625 127.94921875 C-15.14335077 128.10391117 -15.14335077 128.10391117 -21.01953125 124.74609375 C-18.543748 122.68294104 -16.13415305 121.33743337 -13.20703125 120.05859375 C-4.77083082 115.89527406 0.46642503 107.20543303 3.98046875 98.74609375 C4.97029009 95.01789508 5.75811338 91.31586136 6.4375 87.51953125 C6.98046875 84.74609375 6.98046875 84.74609375 7.98046875 83.74609375 C8.08046239 81.94884962 8.111279 80.1476788 8.11328125 78.34765625 C8.11457031 77.22746094 8.11585938 76.10726562 8.1171875 74.953125 C8.11138672 73.18001953 8.11138672 73.18001953 8.10546875 71.37109375 C8.10933594 70.22769531 8.11320312 69.08429688 8.1171875 67.90625 C8.10481178 57.02799147 7.74143263 47.31575884 3.73046875 37.12109375 C3.41327881 36.29569092 3.09608887 35.47028809 2.76928711 34.61987305 C-1.45652659 23.82698869 -6.3627511 13.87984818 -17.14453125 8.30859375 C-23.14790747 5.91357371 -29.63233929 5.92780618 -36.01953125 5.74609375 C-36.01953125 5.08609375 -36.01953125 4.42609375 -36.01953125 3.74609375 C-26.67815175 -5.39653299 -10.68042611 -8.42372406 0 0 Z " fill="#F4F4F4" transform="translate(438.01953125,517.25390625)"/>
<path d="M0 0 C6.33152051 3.83564809 9.93053998 8.80705942 13.7890625 15.01171875 C14.46582031 16.00171875 14.46582031 16.00171875 15.15625 17.01171875 C18.9247359 22.62933749 21.38147227 28.71251545 23.7890625 35.01171875 C24.15128906 35.93726563 24.51351562 36.8628125 24.88671875 37.81640625 C33.96212207 62.73063134 34.61587061 94.06215885 24.26171875 118.63671875 C22.9047513 121.23325698 21.46711535 123.61450039 19.7890625 126.01171875 C19.1703125 126.98109375 18.5515625 127.95046875 17.9140625 128.94921875 C12.43870884 134.2635326 6.23271691 135.66710512 -1.2109375 136.01171875 C-0.55738281 135.02945313 -0.55738281 135.02945313 0.109375 134.02734375 C15.50178636 110.4389731 19.81528425 82.81215502 14.1953125 55.08203125 C13.46686191 52.0336239 12.64598405 49.02638419 11.7890625 46.01171875 C11.52351563 44.99464844 11.25796875 43.97757813 10.984375 42.9296875 C7.26265175 29.57430008 1.47359221 17.10412144 -8.7578125 7.5703125 C-9.96152798 6.43760271 -11.09405597 5.23013496 -12.2109375 4.01171875 C-12.2109375 2.69171875 -12.2109375 1.37171875 -12.2109375 0.01171875 C-7.84916024 -1.442207 -4.3229926 -1.93236242 0 0 Z " fill="#F3F3F3" transform="translate(454.2109375,507.98828125)"/>
<path d="M0 0 C1.34278936 6.4698033 1.34278936 6.4698033 -0.12890625 8.74609375 C-2.78917574 10.52886307 -4.47832578 10.12402329 -7.625 9.75 C-8.68460938 9.63269531 -9.74421875 9.51539063 -10.8359375 9.39453125 C-11.88007812 9.26433594 -12.92421875 9.13414062 -14 9 C-15.74986978 8.81128855 -17.49985341 8.6236267 -19.25 8.4375 C-20.4875 8.293125 -21.725 8.14875 -23 8 C-22.95359375 8.556875 -22.9071875 9.11375 -22.859375 9.6875 C-22.57443874 15.71186656 -23.51241971 20.02257959 -27 25 C-32.35396498 30.08626673 -36.87617074 31.60511205 -44.17578125 31.4296875 C-48.94532856 30.70403023 -51.92231825 28.66425168 -55 25 C-58.04368665 19.67139278 -59.21404128 15.13584992 -59 9 C-59.78503906 9.144375 -60.57007813 9.28875 -61.37890625 9.4375 C-72.78753541 11.45325779 -72.78753541 11.45325779 -78 11 C-80 9 -80 9 -80.4375 6.625 C-80 4 -80 4 -77.82421875 1.9375 C-58.90309535 -11.0429664 -20.60522791 -6.36134553 0 0 Z " fill="#121211" transform="translate(613,546)"/>
<path d="M0 0 C2.01406339 0.01067053 4.0272242 0.00007506 6.04125977 -0.01269531 C16.70377313 0.00826294 27.53694026 0.34610041 37.40258789 4.76074219 C38.37583008 5.18355469 39.34907227 5.60636719 40.35180664 6.04199219 C42.71508789 7.26074219 42.71508789 7.26074219 44.71508789 9.26074219 C45.28087953 16.38971681 45.28087953 16.38971681 43.67640686 18.85977173 C40.66378901 21.01168515 37.53785762 20.67806198 33.97070312 20.64892578 C33.18343842 20.65418274 32.39617371 20.6594397 31.58505249 20.66485596 C28.98106081 20.67806735 26.3776796 20.66931491 23.77368164 20.65917969 C21.96671938 20.6611999 20.15975792 20.66411089 18.35279846 20.6678772 C14.56568642 20.67230192 10.77878661 20.66586401 6.99169922 20.65185547 C2.13002125 20.63475122 -2.73116036 20.64461159 -7.59282017 20.66257286 C-11.32366194 20.67339631 -15.05438537 20.66997122 -18.78523064 20.66218948 C-20.57824703 20.66018412 -22.37127406 20.6626585 -24.16427803 20.66962814 C-26.66645035 20.67722044 -29.1678103 20.6656709 -31.66992188 20.64892578 C-32.41542801 20.65499847 -33.16093414 20.66107117 -33.92903137 20.66732788 C-35.98951721 20.64169312 -35.98951721 20.64169312 -39.28491211 20.26074219 C-41.63539749 16.73501412 -41.94889028 15.41060574 -41.28491211 11.26074219 C-32.00737797 0.43695236 -13.11946006 -0.0824027 0 0 Z " fill="#0F0F0E" transform="translate(575.284912109375,498.7392578125)"/>
<path d="M0 0 C2.15937608 2.49677859 2.3826813 3.2078707 2.5625 6.375 C2 10.3125 2 10.3125 0.36791992 12.03433228 C-2.72216396 13.70231329 -4.94148225 13.69341313 -8.44921875 13.70068359 C-9.75737549 13.71014008 -11.06553223 13.71959656 -12.41333008 13.7293396 C-13.83805647 13.72396976 -15.2627801 13.71781677 -16.6875 13.7109375 C-18.15193832 13.71295911 -19.61637566 13.71587128 -21.08081055 13.71963501 C-24.14739585 13.72405428 -27.21371869 13.71764036 -30.28027344 13.70361328 C-34.20797111 13.6865213 -38.13505377 13.69636465 -42.06272888 13.71433067 C-45.08594381 13.72517942 -48.10901332 13.72171723 -51.13223267 13.7139473 C-52.58029249 13.71194829 -54.02836559 13.71439406 -55.47640991 13.72138596 C-57.50119774 13.72901745 -59.52603195 13.71532022 -61.55078125 13.70068359 C-63.27808472 13.69710342 -63.27808472 13.69710342 -65.0402832 13.69345093 C-68.3279312 13.27029133 -69.72886152 12.70853411 -72 10.3125 C-72.45248431 7.14510986 -72.69941684 5.31695148 -72 2.3125 C-56.64348563 -14.39900094 -18.00273863 -10.12654048 0 0 Z " fill="#161616" transform="translate(754,506.6875)"/>
<path d="M0 0 C3.88585388 1.23720011 5.23022048 3.62373352 7.09765625 7.1171875 C7.43667969 7.77976562 7.77570312 8.44234375 8.125 9.125 C8.47175781 9.764375 8.81851563 10.40375 9.17578125 11.0625 C18.04439051 27.98421422 16.25050118 52.99550866 10.73193359 70.88867188 C6.06367758 84.3546752 -1.16213448 96.44709357 -14.0546875 103.35546875 C-16 104 -16 104 -19 103 C-18.13662109 101.27324217 -17.27313951 99.54653561 -16.40917969 97.82006836 C-15.67233345 96.34522765 -14.9373344 94.86946275 -14.20410156 93.39282227 C-12.67425706 90.31659258 -11.13934591 87.25588975 -9.49609375 84.23828125 C-5.66391715 77.1625696 -3.92144117 69.76127985 -2 62 C-1.65582031 60.86949219 -1.31164062 59.73898437 -0.95703125 58.57421875 C2.04649795 47.35695664 2.19955614 35.29619551 2.3125 23.75 C2.33884521 22.30463867 2.33884521 22.30463867 2.36572266 20.83007812 C2.36063287 15.02772355 1.50117756 11.20967198 -1 6 C-0.6875 2.5625 -0.6875 2.5625 0 0 Z " fill="#F3F3F3" transform="translate(783,530)"/>
<path d="M0 0 C2.31 1.98 4.62 3.96 7 6 C29.1294564 24.91381544 55.65175053 42.49705447 83 53 C79.02143663 54.54890635 75.53487625 53.4423208 71.5625 52.4375 C70.82531738 52.25695068 70.08813477 52.07640137 69.32861328 51.89038086 C55.79460112 48.51461717 42.41416498 44.60002659 29.21875 40.08203125 C26.43085365 39.14483794 23.64153895 38.30126261 20.8125 37.5 C15.01687074 35.80395465 9.5424827 33.37534973 4 31 C1.525 30.01 1.525 30.01 -1 29 C-0.67 19.43 -0.34 9.86 0 0 Z " fill="#F4F4F5" transform="translate(510,679)"/>
<path d="M0 0 C0.02689449 2.95839355 0.04678741 5.91654427 0.0625 8.875 C0.07087891 9.71675781 0.07925781 10.55851562 0.08789062 11.42578125 C0.09272461 12.63427734 0.09272461 12.63427734 0.09765625 13.8671875 C0.10551147 14.98262939 0.10551147 14.98262939 0.11352539 16.12060547 C0 18 0 18 -1 20 C-3.22485352 20.41064453 -3.22485352 20.41064453 -6.12890625 20.6328125 C-7.68061523 20.75849609 -7.68061523 20.75849609 -9.26367188 20.88671875 C-10.8965918 21.00466797 -10.8965918 21.00466797 -12.5625 21.125 C-13.65498047 21.21136719 -14.74746094 21.29773438 -15.87304688 21.38671875 C-18.58149081 21.59960954 -21.29031607 21.80363237 -24 22 C-24.05791844 18.87507749 -24.09356746 15.75029234 -24.125 12.625 C-24.14175781 11.73554688 -24.15851563 10.84609375 -24.17578125 9.9296875 C-24.18222656 9.07890625 -24.18867188 8.228125 -24.1953125 7.3515625 C-24.20578613 6.56604004 -24.21625977 5.78051758 -24.22705078 4.97119141 C-24 3 -24 3 -22 1 C-19.20332035 0.69023193 -16.49243061 0.48747842 -13.6875 0.375 C-12.92759766 0.33632813 -12.16769531 0.29765625 -11.38476562 0.2578125 C-7.58719815 0.07304814 -3.80296347 -0.04554447 0 0 Z " fill="#F0EFF0" transform="translate(437,484)"/>
<path d="M0 0 C1.2890625 -0.01224609 2.578125 -0.02449219 3.90625 -0.03710938 C11.34851778 -0.0484543 18.81516277 0.01834893 26 2.1875 C26.66 2.8475 27.32 3.5075 28 4.1875 C27.67 5.8375 27.34 7.4875 27 9.1875 C8.85 9.1875 -9.3 9.1875 -28 9.1875 C-29 4.1875 -29 4.1875 -27.859375 2.41723633 C-20.98319354 -2.1304693 -7.90050122 0.00395025 0 0 Z " fill="#141414" transform="translate(650,658.8125)"/>
<path d="M0 0 C4.875 1.875 4.875 1.875 6 3 C6.93163143 21.87095291 6.44740773 46.18917155 -3 63 C-4.485 63.99 -4.485 63.99 -6 65 C-3.03751649 21.00410337 -3.03751649 21.00410337 0 0 Z " fill="#EDEDED" transform="translate(769,541)"/>
<path d="M0 0 C1.5787746 0.00503053 3.15755078 0.00959066 4.73632812 0.01367188 C8.5534252 0.02454184 12.37044455 0.04171864 16.1875 0.0625 C16.1875 0.3925 16.1875 0.7225 16.1875 1.0625 C6.6175 1.3925 -2.9525 1.7225 -12.8125 2.0625 C-12.8125 2.7225 -12.8125 3.3825 -12.8125 4.0625 C-11.82854248 4.00920532 -11.82854248 4.00920532 -10.82470703 3.95483398 C-7.86257338 3.79756417 -4.90007671 3.6486795 -1.9375 3.5 C-0.90496094 3.44392578 0.12757813 3.38785156 1.19140625 3.33007812 C2.17753906 3.28173828 3.16367187 3.23339844 4.1796875 3.18359375 C5.09089355 3.1364624 6.00209961 3.08933105 6.94091797 3.04077148 C9.1875 3.0625 9.1875 3.0625 11.1875 4.0625 C10.8575 4.7225 10.5275 5.3825 10.1875 6.0625 C11.1775 6.3925 12.1675 6.7225 13.1875 7.0625 C12.011875 6.90394531 10.83625 6.74539063 9.625 6.58203125 C2.82883022 5.83471805 -3.98138782 5.77585181 -10.8125 5.75 C-11.49792877 5.74704926 -12.18335754 5.74409851 -12.88955688 5.74105835 C-31.49450422 5.44341703 -31.49450422 5.44341703 -47.8125 13.0625 C-47.0625 5.3125 -47.0625 5.3125 -44.8125 3.0625 C-42.01171875 2.46484375 -42.01171875 2.46484375 -38.5 2 C-36.80423828 1.76603516 -36.80423828 1.76603516 -35.07421875 1.52734375 C-23.36158002 0.18161172 -11.77068978 -0.06606445 0 0 Z " fill="#D0D1D0" transform="translate(727.8125,536.9375)"/>
<path d="M0 0 C0.66 0 1.32 0 2 0 C3.81125155 13.23261462 4.03641302 25.70198913 3 39 C2.82648671 41.34763143 2.65332926 43.69528917 2.48046875 46.04296875 C2.00825485 52.3637308 1.51206064 58.68234933 1 65 C0.67 65 0.34 65 0 65 C-0.33 62.36 -0.66 59.72 -1 57 C-1.99 57.495 -1.99 57.495 -3 58 C-3.26118785 48.45576073 -2.18332858 39.00426577 -1.28173828 29.51538086 C-0.34965899 19.63343819 0.21507922 9.9364606 0 0 Z " fill="#2A2B2A" transform="translate(763,539)"/>
<path d="M0 0 C0.99 0.495 0.99 0.495 2 1 C-32.12145992 19.74850181 -69.35638324 34.95293627 -108 41 C-108 40.34 -108 39.68 -108 39 C-107.17612793 38.79431396 -106.35225586 38.58862793 -105.50341797 38.37670898 C-69.54306571 29.35786664 -34.85147042 18.31936342 -1.98510742 0.80932617 C-1.33002197 0.54224854 -0.67493652 0.2751709 0 0 Z " fill="#272623" transform="translate(770,1009)"/>
<path d="M0 0 C0.33 0 0.66 0 1 0 C1.20496094 1.05960938 1.40992188 2.11921875 1.62109375 3.2109375 C1.89307666 4.59898822 2.16522044 5.98700744 2.4375 7.375 C2.57220703 8.07367187 2.70691406 8.77234375 2.84570312 9.4921875 C3.5772422 13.35628734 3.5772422 13.35628734 5 17 C5.47710195 24.39508028 5.47710195 24.39508028 3.52734375 26.8671875 C1.50807476 29.68693396 1.49913611 31.81589561 1.3125 35.25 C1.24675781 36.32765625 1.18101562 37.4053125 1.11328125 38.515625 C1.07589844 39.33546875 1.03851563 40.1553125 1 41 C0.67 41 0.34 41 0 41 C-0.495 33.575 -0.495 33.575 -1 26 C-1.66 26 -2.32 26 -3 26 C-3.06058594 25.28714844 -3.12117188 24.57429687 -3.18359375 23.83984375 C-3.73960049 17.39999436 -3.73960049 17.39999436 -4.625 11 C-5 8 -5 8 -4 5 C-3.34 5 -2.68 5 -2 5 C-1.34 3.35 -0.68 1.7 0 0 Z " fill="#191919" transform="translate(465,549)"/>
<path d="M0 0 C0.5625 3.125 0.5625 3.125 0 7 C-2.72778747 9.48644002 -5.78801913 11.20816957 -9 13 C-9.99 13.66 -10.98 14.32 -12 15 C-14.625 15.1875 -14.625 15.1875 -17 15 C-18 14 -18 14 -18.44921875 11.2109375 C-18 8 -18 8 -15.33203125 5.6640625 C-14.17233633 4.96161872 -12.99826566 4.28247956 -11.8125 3.625 C-11.23435547 3.27050781 -10.65621094 2.91601562 -10.06054688 2.55078125 C-6.58785565 0.5181778 -4.02332578 -0.43945931 0 0 Z " fill="#1A1919" transform="translate(675,609)"/>
<path d="M0 0 C20.79 0 41.58 0 63 0 C63 0.33 63 0.66 63 1 C61.7934375 1.185625 61.7934375 1.185625 60.5625 1.375 C59.716875 1.58125 58.87125 1.7875 58 2 C57.67 2.66 57.34 3.32 57 4 C45.45 4 33.9 4 22 4 C22 3.67 22 3.34 22 3 C14.74 2.34 7.48 1.68 0 1 C0 0.67 0 0.34 0 0 Z " fill="#E4E4E4" transform="translate(545,521)"/>
<path d="M0 0 C6.93 0 13.86 0 21 0 C21 2.33333333 21 4.66666667 21 7 C18.14839609 7.81434143 15.63373869 8.11881242 12.671875 8.09765625 C11.87265625 8.09443359 11.0734375 8.09121094 10.25 8.08789062 C9.425 8.07951172 8.6 8.07113281 7.75 8.0625 C6.90953125 8.05798828 6.0690625 8.05347656 5.203125 8.04882812 C3.13538599 8.03707961 1.06768376 8.01914522 -1 8 C-1 7.67 -1 7.34 -1 7 C2.3 6.67 5.6 6.34 9 6 C9 4.68 9 3.36 9 2 C6.03 1.67 3.06 1.34 0 1 C0 0.67 0 0.34 0 0 Z " fill="#1B1C1B" transform="translate(415,477)"/>
<path d="M0 0 C1.74216797 0.15275391 1.74216797 0.15275391 3.51953125 0.30859375 C4.39996094 0.39238281 5.28039062 0.47617187 6.1875 0.5625 C6.1875 1.5525 6.1875 2.5425 6.1875 3.5625 C5.00671875 3.81644531 3.8259375 4.07039062 2.609375 4.33203125 C1.05196665 4.67916444 -0.50531871 5.02684971 -2.0625 5.375 C-3.22845703 5.6234668 -3.22845703 5.6234668 -4.41796875 5.87695312 C-8.52264593 6.80664497 -11.65338126 7.59870312 -14.8125 10.5625 C-14.0625 2.8125 -14.0625 2.8125 -11.8125 0.5625 C-7.77669459 -0.63462168 -4.16132529 -0.3783023 0 0 Z " fill="#ECECEC" transform="translate(694.8125,539.4375)"/>
<path d="M0 0 C-2.7703308 2.7703308 -6.02317089 3.40962254 -9.6875 4.5 C-10.38294922 4.71269531 -11.07839844 4.92539062 -11.79492188 5.14453125 C-16.18243695 6.48004004 -20.58723227 7.75077611 -25 9 C-25 8.01 -25 7.02 -25 6 C-25.66 5.34 -26.32 4.68 -27 4 C-25.79601562 3.79503906 -24.59203125 3.59007812 -23.3515625 3.37890625 C-21.77601308 3.10693641 -20.20049379 2.83479193 -18.625 2.5625 C-17.8309375 2.42779297 -17.036875 2.29308594 -16.21875 2.15429688 C-3.4940211 -0.05635518 -3.4940211 -0.05635518 0 0 Z " fill="#E6E6E6" transform="translate(558,313)"/>
<path d="M0 0 C0.99 0.33 1.98 0.66 3 1 C2.54149658 1.44802979 2.08299316 1.89605957 1.6105957 2.35766602 C-0.4941929 4.42049164 -2.59085374 6.49140034 -4.6875 8.5625 C-5.40873047 9.26697266 -6.12996094 9.97144531 -6.87304688 10.69726562 C-11.09634344 14.88199327 -14.70227704 19.05016337 -18 24 C-18.99 23.67 -19.98 23.34 -21 23 C-14.96059416 14.41768643 -7.48367633 7.29684391 0 0 Z " fill="#1C1C1C" transform="translate(495,346)"/>
<path d="M0 0 C0.99 0 1.98 0 3 0 C4.96538658 8.54787181 4.14932021 17.38009844 3 26 C2.67 26 2.34 26 2 26 C1.67 23.36 1.34 20.72 1 18 C0.34 18.33 -0.32 18.66 -1 19 C-1.10349817 12.58311325 -0.74507544 6.37305598 0 0 Z " fill="#2F2F2F" transform="translate(761,578)"/>
<path d="M0 0 C4.86542022 0.6176803 8.71320057 2.70314421 13 4.9375 C19.37998895 8.22898297 19.37998895 8.22898297 26 11 C23.00126754 11.93380478 21.00940139 12.01219194 17.9609375 11.29296875 C17.21585938 11.11830078 16.47078125 10.94363281 15.703125 10.76367188 C14.93484375 10.57353516 14.1665625 10.38339844 13.375 10.1875 C12.59898437 10.00896484 11.82296875 9.83042969 11.0234375 9.64648438 C5.26086607 8.26086607 5.26086607 8.26086607 3 6 C3.99 6 4.98 6 6 6 C6 5.01 6 4.02 6 3 C4.02 2.34 2.04 1.68 0 1 C0 0.67 0 0.34 0 0 Z " fill="#D4D4D4" transform="translate(567,721)"/>
<path d="M0 0 C0.33 0 0.66 0 1 0 C2.29670966 9.8631617 2.11124302 19.69797869 2.0625 29.625 C2.0574755 31.410155 2.05291428 33.19531136 2.04882812 34.98046875 C2.03789651 39.3203467 2.0206841 43.66015802 2 48 C1.67 48 1.34 48 1 48 C-0.17293889 41.6221448 -1.29530838 35.49678438 -1 29 C-0.67 29 -0.34 29 0 29 C0 19.43 0 9.86 0 0 Z " fill="#464646" transform="translate(442,895)"/>
<path d="M0 0 C-0.33 0.99 -0.66 1.98 -1 3 C0.485 3.495 0.485 3.495 2 4 C0.78441406 3.84660156 -0.43117188 3.69320312 -1.68359375 3.53515625 C-7.79693393 2.85589623 -13.91830089 2.65377014 -20.0625 2.4375 C-21.21427734 2.39431641 -22.36605469 2.35113281 -23.55273438 2.30664062 C-26.36839491 2.20149148 -29.18412976 2.09934607 -32 2 C-32 1.67 -32 1.34 -32 1 C-28.54184898 0.82940635 -25.08345693 0.66426561 -21.625 0.5 C-20.17673828 0.42845703 -20.17673828 0.42845703 -18.69921875 0.35546875 C-12.46055108 0.06237698 -6.24530778 -0.06171592 0 0 Z " fill="#C4C5C5" transform="translate(739,540)"/>
<path d="M0 0 C2.375 -0.125 2.375 -0.125 5 0 C5.66 0.66 6.32 1.32 7 2 C6.46428571 5.53571429 6.46428571 5.53571429 5 7 C3.33382885 7.04063832 1.66611905 7.042721 0 7 C-1.125 2.25 -1.125 2.25 0 0 Z " fill="#1B1C1C" transform="translate(549,599)"/>
<path d="M0 0 C0.33 0 0.66 0 1 0 C1.05821935 3.89577024 1.0936703 7.79142802 1.125 11.6875 C1.14175781 12.79029297 1.15851563 13.89308594 1.17578125 15.02929688 C1.18222656 16.09599609 1.18867188 17.16269531 1.1953125 18.26171875 C1.20578613 19.24100342 1.21625977 20.22028809 1.22705078 21.22924805 C0.98597685 24.17112772 0.23055542 26.33237726 -1 29 C-0.34 29.33 0.32 29.66 1 30 C0.01 30 -0.98 30 -2 30 C-2.33 30.99 -2.66 31.98 -3 33 C-2.86722656 32.04222656 -2.73445313 31.08445312 -2.59765625 30.09765625 C-1.25341858 20.07558941 -0.47494268 10.09878122 0 0 Z " fill="#595A59" transform="translate(439,577)"/>
<path d="M0 0 C2.625 0.375 2.625 0.375 5 1 C5.042721 2.66611905 5.04063832 4.33382885 5 6 C4 7 4 7 1.4375 7.0625 C0.2309375 7.0315625 0.2309375 7.0315625 -1 7 C-1.625 4.625 -1.625 4.625 -2 2 C-1.34 1.34 -0.68 0.68 0 0 Z " fill="#232323" transform="translate(716,598)"/>
<path d="M0 0 C1 2 1 2 0.22265625 4.8203125 C-0.16019531 5.91085937 -0.54304687 7.00140625 -0.9375 8.125 C-1.31777344 9.22070312 -1.69804688 10.31640625 -2.08984375 11.4453125 C-2.54037109 12.70988281 -2.54037109 12.70988281 -3 14 C-3.99 14 -4.98 14 -6 14 C-8.15028304 14.94978897 -8.15028304 14.94978897 -10 16 C-8.8989859 14.08152063 -7.79405904 12.16528646 -6.6875 10.25 C-6.07261719 9.18265625 -5.45773437 8.1153125 -4.82421875 7.015625 C-3.32904649 4.54394837 -1.78623484 2.26439616 0 0 Z " fill="#E1E0E1" transform="translate(541,469)"/>
<path d="M0 0 C-1.61010527 4.07376031 -4.53822271 6.76507069 -7.625 9.75 C-8.140625 10.25660156 -8.65625 10.76320313 -9.1875 11.28515625 C-10.45383339 12.52803902 -11.7263144 13.76465276 -13 15 C-13.33 14.01 -13.66 13.02 -14 12 C-12.04761147 9.99387601 -10.08862178 7.99507567 -8.125 6 C-7.29162109 5.14148438 -7.29162109 5.14148438 -6.44140625 4.265625 C-2.2265625 0 -2.2265625 0 0 0 Z " fill="#222120" transform="translate(878,927)"/>
<path d="M0 0 C0.66 0 1.32 0 2 0 C0.58884686 3.12270026 -1.110624 5.49653681 -3.375 8.0625 C-3.96023438 8.73410156 -4.54546875 9.40570312 -5.1484375 10.09765625 C-6.9760704 11.97541411 -8.86364865 13.48949607 -11 15 C-11.66 14.67 -12.32 14.34 -13 14 C-12.48050781 13.49210938 -11.96101562 12.98421875 -11.42578125 12.4609375 C-8.17111213 9.24838055 -4.9771111 6.08012745 -2.125 2.5 C-1.42375 1.675 -0.7225 0.85 0 0 Z " fill="#9E8E81" transform="translate(736,686)"/>
<path d="M0 0 C2.0625 0.4375 2.0625 0.4375 4 1 C4 2.98 4 4.96 4 7 C2.125 7.625 2.125 7.625 0 8 C-0.66 7.34 -1.32 6.68 -2 6 C-1.44444444 1.44444444 -1.44444444 1.44444444 0 0 Z " fill="#272728" transform="translate(738,584)"/>
<path d="M0 0 C1.09054687 0.02320313 2.18109375 0.04640625 3.3046875 0.0703125 C4.40039062 0.08835937 5.49609375 0.10640625 6.625 0.125 C7.46804688 0.14820313 8.31109375 0.17140625 9.1796875 0.1953125 C9.1796875 0.5253125 9.1796875 0.8553125 9.1796875 1.1953125 C7.1996875 1.5253125 5.2196875 1.8553125 3.1796875 2.1953125 C3.1796875 2.5253125 3.1796875 2.8553125 3.1796875 3.1953125 C1.1996875 3.1953125 -0.7803125 3.1953125 -2.8203125 3.1953125 C-2.5109375 4.6184375 -2.5109375 4.6184375 -2.1953125 6.0703125 C-2.0715625 7.1015625 -1.9478125 8.1328125 -1.8203125 9.1953125 C-2.4803125 9.8553125 -3.1403125 10.5153125 -3.8203125 11.1953125 C-4.04206183 9.73895879 -4.24729948 8.28008294 -4.4453125 6.8203125 C-4.56132812 6.00820313 -4.67734375 5.19609375 -4.796875 4.359375 C-4.80460937 3.64523437 -4.81234375 2.93109375 -4.8203125 2.1953125 C-2.8203125 0.1953125 -2.8203125 0.1953125 0 0 Z " fill="#1F1D1C" transform="translate(376.8203125,420.8046875)"/>
<path d="M0 0 C0.33 0 0.66 0 1 0 C1.66755991 3.92191445 2.11976413 7.77129411 2.25 11.75 C2.27578125 12.48734375 2.3015625 13.2246875 2.328125 13.984375 C1.91475847 16.52362657 0.94286865 17.38435133 -1 19 C-1.10655578 12.55929529 -0.96205088 6.37358711 0 0 Z " fill="#040404" transform="translate(761,589)"/>
<path d="M0 0 C0.33 0 0.66 0 1 0 C2.23839599 6.65637843 2.09139136 13.2471936 2 20 C1.01 20.33 0.02 20.66 -1 21 C-1.13794954 13.93391809 -0.74805717 7.02639415 0 0 Z " fill="#030303" transform="translate(763,563)"/>
<path d="M0 0 C0.51046875 0.15339844 1.0209375 0.30679687 1.546875 0.46484375 C4.7749338 1.16905403 7.95418001 1.34888204 11.25 1.5625 C12.51328125 1.64628906 13.7765625 1.73007812 15.078125 1.81640625 C16.04234375 1.87699219 17.0065625 1.93757813 18 2 C18 2.33 18 2.66 18 3 C14.04 3 10.08 3 6 3 C6.66 3.33 7.32 3.66 8 4 C7.67 4.99 7.34 5.98 7 7 C2.545 5.02 2.545 5.02 -2 3 C-1.34 2.01 -0.68 1.02 0 0 Z " fill="#B5B5B6" transform="translate(613,501)"/>
<path d="M0 0 C0.33 0 0.66 0 1 0 C1 3.96 1 7.92 1 12 C0.67 12 0.34 12 0 12 C-0.33 10.02 -0.66 8.04 -1 6 C-5.455 9.96 -5.455 9.96 -10 14 C-10.66 13.67 -11.32 13.34 -12 13 C-11.21753906 12.22914063 -10.43507813 11.45828125 -9.62890625 10.6640625 C-8.60663943 9.65117427 -7.58451119 8.63814616 -6.5625 7.625 C-6.04623047 7.11710937 -5.52996094 6.60921875 -4.99804688 6.0859375 C-2.142867 3.31431064 -2.142867 3.31431064 0 0 Z " fill="#D9D9DA" transform="translate(668,479)"/>
<path d="M0 0 C0.66 0 1.32 0 2 0 C2.66 2.31 3.32 4.62 4 7 C3.01 7.495 3.01 7.495 2 8 C1.26924352 10.3140622 0.59861742 12.64828869 0 15 C-0.33 15 -0.66 15 -1 15 C-0.67 10.05 -0.34 5.1 0 0 Z " fill="#D0D0D0" transform="translate(710,430)"/>
<path d="M0 0 C0.66 0.33 1.32 0.66 2 1 C1.01 1 0.02 1 -1 1 C-0.67 0.67 -0.34 0.34 0 0 Z M-4 5 C-5.38188453 8.21043882 -6.92421903 10.04936365 -9.625 12.25 C-10.57246094 13.03117188 -10.57246094 13.03117188 -11.5390625 13.828125 C-12.02117187 14.21484375 -12.50328125 14.6015625 -13 15 C-12.42110619 11.71245489 -11.45171589 10.06327505 -9.0625 7.75 C-8.53785156 7.22921875 -8.01320313 6.7084375 -7.47265625 6.171875 C-6 5 -6 5 -4 5 Z " fill="#151414" transform="translate(366,823)"/>
<path d="M0 0 C1.66666667 0 3.33333333 0 5 0 C4.57576756 1.46224799 4.13509755 2.91973412 3.6875 4.375 C3.44386719 5.18710937 3.20023438 5.99921875 2.94921875 6.8359375 C2 9 2 9 -1 11 C-0.67 7.37 -0.34 3.74 0 0 Z " fill="#E5E5E6" transform="translate(764,595)"/>
<path d="M0 0 C-2.67550292 2.67550292 -4.94879894 2.83209389 -8.625 3.625 C-9.81351563 3.88539063 -11.00203125 4.14578125 -12.2265625 4.4140625 C-13.14179687 4.60742188 -14.05703125 4.80078125 -15 5 C-14.67 4.01 -14.34 3.02 -14 2 C-9.24983365 -0.2012966 -5.11918146 -0.1765235 0 0 Z " fill="#C8C8C7" transform="translate(558,313)"/>
<path d="M0 0 C0 0.66 0 1.32 0 2 C-1.91040052 2.8680908 -3.82860737 3.71901783 -5.75 4.5625 C-6.81734375 5.03816406 -7.8846875 5.51382813 -8.984375 6.00390625 C-11.98369837 6.9946154 -13.13421241 7.16161779 -16 6 C-13.89915791 4.99303432 -11.79420511 3.9946411 -9.6875 3 C-8.51574219 2.443125 -7.34398437 1.88625 -6.13671875 1.3125 C-3 0 -3 0 0 0 Z " fill="#A19186" transform="translate(442,246)"/>
<path d="M0 0 C4.00438862 0.61605979 6.70179411 2.75441301 10 5 C10.99 5.33 11.98 5.66 13 6 C12.67 6.99 12.34 7.98 12 9 C10.37021552 8.07084243 8.74631725 7.13135466 7.125 6.1875 C5.76761719 5.40439453 5.76761719 5.40439453 4.3828125 4.60546875 C2 3 2 3 0 0 Z " fill="#E3E3E3" transform="translate(532,686)"/>
<path d="M0 0 C0.99 0.33 1.98 0.66 3 1 C2.67 6.61 2.34 12.22 2 18 C1.67 18 1.34 18 1 18 C0.67 12.06 0.34 6.12 0 0 Z " fill="#535354" transform="translate(766,540)"/>
<path d="M0 0 C2.99324263 1.0975223 3.84610901 1.67682892 5.25 4.625 C5.4975 5.40875 5.745 6.1925 6 7 C3.69 6.67 1.38 6.34 -1 6 C-0.67 4.02 -0.34 2.04 0 0 Z " fill="#D7D6D6" transform="translate(783,530)"/>
<path d="M0 0 C0 0.66 0 1.32 0 2 C-5.02125926 2.77916092 -8.97703996 3.13016601 -14 2 C-14 1.67 -14 1.34 -14 1 C-9.23692563 0.04738513 -4.8333472 -0.08333357 0 0 Z " fill="#191919" transform="translate(665,724)"/>
<path d="M0 0 C0.66 0 1.32 0 2 0 C2.33 1.98 2.66 3.96 3 6 C1.02 7.32 -0.96 8.64 -3 10 C-2.01 6.7 -1.02 3.4 0 0 Z " fill="#DBDADB" transform="translate(606,433)"/>
<path d="M0 0 C3.40458459 1.00589999 6.51351489 2.35290868 9.75 3.8125 C6.09142468 5.12784494 3.66973519 4.46718309 0 3.375 C-1.47726562 2.94380859 -1.47726562 2.94380859 -2.984375 2.50390625 C-3.73203125 2.27574219 -4.4796875 2.04757812 -5.25 1.8125 C-2.25 -0.1875 -2.25 -0.1875 0 0 Z " fill="#D4D4D4" transform="translate(583.25,728.1875)"/>
<path d="M0 0 C0.99 0.33 1.98 0.66 3 1 C0.69 3.64 -1.62 6.28 -4 9 C-4.66 8.34 -5.32 7.68 -6 7 C-4.02 4.69 -2.04 2.38 0 0 Z " fill="#171718" transform="translate(730,680)"/>
<path d="M0 0 C0.66 0.66 1.32 1.32 2 2 C1.7578125 4.8203125 1.7578125 4.8203125 1.125 8.125 C0.92132813 9.22070312 0.71765625 10.31640625 0.5078125 11.4453125 C0.34023438 12.28835938 0.17265625 13.13140625 0 14 C-0.66 14 -1.32 14 -2 14 C-1.43393721 9.30976546 -0.81462495 4.65499974 0 0 Z " fill="#252625" transform="translate(484,601)"/>
<path d="M0 0 C0.99 0 1.98 0 3 0 C3 2.31 3 4.62 3 7 C2.67 7 2.34 7 2 7 C1.67 9.64 1.34 12.28 1 15 C0.67 15 0.34 15 0 15 C0 10.05 0 5.1 0 0 Z " fill="#1F1F1F" transform="translate(775,546)"/>
<path d="M0 0 C0.66 0 1.32 0 2 0 C1.67 1.98 1.34 3.96 1 6 C0.34 6 -0.32 6 -1 6 C-1.33 7.98 -1.66 9.96 -2 12 C-2.66 12 -3.32 12 -4 12 C-3.52494322 10.18641846 -3.04483958 8.37415821 -2.5625 6.5625 C-2.29566406 5.55316406 -2.02882813 4.54382813 -1.75390625 3.50390625 C-1 1 -1 1 0 0 Z " fill="#1B1C1C" transform="translate(542,470)"/>
<path d="M0 0 C0.33 0.66 0.66 1.32 1 2 C-5.4 4.21538462 -5.4 4.21538462 -8.4375 3.125 C-8.953125 2.75375 -9.46875 2.3825 -10 2 C-8.71211992 1.46987262 -7.41953322 0.9511671 -6.125 0.4375 C-5.40570312 0.14746094 -4.68640625 -0.14257812 -3.9453125 -0.44140625 C-2 -1 -2 -1 0 0 Z " fill="#393939" transform="translate(682,718)"/>
<path d="M0 0 C1.32 1.65 2.64 3.3 4 5 C1 7 1 7 -1 7 C-1 5.35 -1 3.7 -1 2 C-2.32 1.67 -3.64 1.34 -5 1 C-3.35 0.67 -1.7 0.34 0 0 Z " fill="#CBCBCC" transform="translate(676,607)"/>
<path d="M0 0 C0.99 0.33 1.98 0.66 3 1 C3 3.31 3 5.62 3 8 C2.67 8 2.34 8 2 8 C1.67 9.65 1.34 11.3 1 13 C0.67 13 0.34 13 0 13 C0 8.71 0 4.42 0 0 Z " fill="#1E1E1D" transform="translate(473,922)"/>
<path d="M0 0 C0.33 0 0.66 0 1 0 C1.11381955 6.76594019 0.88021369 13.28837062 0 20 C-0.33 20 -0.66 20 -1 20 C-1.19406478 18.35492782 -1.38007935 16.70890406 -1.5625 15.0625 C-1.66691406 14.14597656 -1.77132812 13.22945312 -1.87890625 12.28515625 C-1.91886719 11.53105469 -1.95882812 10.77695312 -2 10 C-1.67 9.67 -1.34 9.34 -1 9 C-0.76807135 7.48530552 -0.58784762 5.96245438 -0.4375 4.4375 C-0.35371094 3.61121094 -0.26992188 2.78492188 -0.18359375 1.93359375 C-0.12300781 1.29550781 -0.06242188 0.65742187 0 0 Z " fill="#4C4B4C" transform="translate(764,584)"/>
<path d="M0 0 C0.625 1.8125 0.625 1.8125 1 4 C0.01 5.485 0.01 5.485 -1 7 C-1.16699232 10.12521833 -1.16699232 10.12521833 -1 13 C-2.5625 11.25 -2.5625 11.25 -4 9 C-3.77519824 5.51557277 -1.84752969 2.8917856 0 0 Z " fill="#A49385" transform="translate(799,523)"/>
<path d="M0 0 C1.32 0 2.64 0 4 0 C4 0.66 4 1.32 4 2 C4.66 2.66 5.32 3.32 6 4 C1.545 4.495 1.545 4.495 -3 5 C-1.75 2.5 -1.75 2.5 0 0 Z " fill="#D6D6D7" transform="translate(456,639)"/>
<path d="M0 0 C1.43931117 0.45261358 2.87638999 0.91232979 4.3125 1.375 C5.11300781 1.63023437 5.91351562 1.88546875 6.73828125 2.1484375 C9 3 9 3 12 5 C11.67 5.66 11.34 6.32 11 7 C9.35063087 6.21572648 7.70558873 5.42234741 6.0625 4.625 C5.14597656 4.18414062 4.22945312 3.74328125 3.28515625 3.2890625 C1 2 1 2 0 0 Z " fill="#A19388" transform="translate(688,312)"/>
<path d="M0 0 C4.95 0.99 4.95 0.99 10 2 C9.67 2.66 9.34 3.32 9 4 C5.37471432 4.20140476 3.13498292 3.85776765 0 2 C0 1.34 0 0.68 0 0 Z " fill="#232323" transform="translate(579,730)"/>
<path d="M0 0 C0.33 0 0.66 0 1 0 C0.125 6.75 0.125 6.75 -1 9 C-1.99 9 -2.98 9 -4 9 C-2.80100302 5.9168649 -1.52299523 2.93720508 0 0 Z " fill="#242424" transform="translate(468,377)"/>
<path d="M0 0 C0.95904856 3.83619425 0.91892116 5.32431536 0 9 C-0.99 9 -1.98 9 -3 9 C-2.01 6.03 -1.02 3.06 0 0 Z " fill="#D2D1D2" transform="translate(431,406)"/>
<path d="M0 0 C-2.71182212 2.60334924 -3.89133813 2.99456691 -7.75 3.1875 C-8.8225 3.125625 -9.895 3.06375 -11 3 C-4.33333333 -1.44444444 -4.33333333 -1.44444444 0 0 Z " fill="#282728" transform="translate(546,319)"/>
<path d="M0 0 C0.66 0.66 1.32 1.32 2 2 C0.35 3.65 -1.3 5.3 -3 7 C-3.33 6.01 -3.66 5.02 -4 4 C-3.34 4 -2.68 4 -2 4 C-2 3.01 -2 2.02 -2 1 C-1.34 0.67 -0.68 0.34 0 0 Z " fill="#E5E5E6" transform="translate(727,680)"/>
<path d="M0 0 C2.125 0.375 2.125 0.375 4 1 C3.01 1 2.02 1 1 1 C0.34 3.31 -0.32 5.62 -1 8 C-1.66 7.67 -2.32 7.34 -3 7 C-2.25 2.25 -2.25 2.25 0 0 Z " fill="#333233" transform="translate(624,660)"/>
<path d="M0 0 C1.1875 1.6875 1.1875 1.6875 2 4 C0.625 6.75 0.625 6.75 -1 9 C-1.66 8.67 -2.32 8.34 -3 8 C-1.125 2.25 -1.125 2.25 0 0 Z " fill="#EDEDED" transform="translate(431,614)"/>
<path d="M0 0 C1.32 0.33 2.64 0.66 4 1 C4 1.66 4 2.32 4 3 C2.02 3.33 0.04 3.66 -2 4 C-1.34 2.68 -0.68 1.36 0 0 Z M-5 5 C-3 6 -3 6 -3 6 Z " fill="#191A1A" transform="translate(730,611)"/>
<path d="M0 0 C0.66 0.66 1.32 1.32 2 2 C1.60495559 4.9628331 0.40182371 7.38326241 -1 10 C-1.66 10 -2.32 10 -3 10 C-2.01 6.7 -1.02 3.4 0 0 Z " fill="#9C8D80" transform="translate(799,605)"/>
<path d="M0 0 C0.99 0 1.98 0 3 0 C2.67 2.31 2.34 4.62 2 7 C1.01 7.33 0.02 7.66 -1 8 C-0.67 5.36 -0.34 2.72 0 0 Z " fill="#252525" transform="translate(795,590)"/>
<path d="M0 0 C0.33 0 0.66 0 1 0 C1.12375 1.11375 1.2475 2.2275 1.375 3.375 C1.6465813 7.03103677 1.6465813 7.03103677 4 9 C3.67 9.66 3.34 10.32 3 11 C2.01 11 1.02 11 0 11 C0 7.37 0 3.74 0 0 Z " fill="#D8D8D9" transform="translate(415,466)"/>
<path d="M0 0 C0.66 0.99 1.32 1.98 2 3 C1.34 3 0.68 3 0 3 C0.33 4.65 0.66 6.3 1 8 C-0.98 8.99 -0.98 8.99 -3 10 C-2.01 6.7 -1.02 3.4 0 0 Z " fill="#96877B" transform="translate(758,645)"/>
<path d="M0 0 C1.65 0 3.3 0 5 0 C4.67 2.64 4.34 5.28 4 8 C3.67 8 3.34 8 3 8 C3 6.35 3 4.7 3 3 C2.34 2.67 1.68 2.34 1 2 C0.67 1.34 0.34 0.68 0 0 Z " fill="#A0A19F" transform="translate(751,621)"/>
<path d="M0 0 C0.33 0 0.66 0 1 0 C1.33 2.64 1.66 5.28 2 8 C1.34 8 0.68 8 0 8 C0 9.65 0 11.3 0 13 C-0.33 13 -0.66 13 -1 13 C-1.07654536 8.48382401 -1.10228696 4.40914783 0 0 Z " fill="#4B4C4B" transform="translate(670,540)"/>
<path d="M0 0 C-2.5654594 2.5654594 -4.47686668 2.54046087 -8 3 C-8 2.01 -8 1.02 -8 0 C-4.94736336 -0.98120464 -3.05263664 -0.98120464 0 0 Z " fill="#1B1B1B" transform="translate(556,502)"/>
<path d="M0 0 C1.98 0.66 3.96 1.32 6 2 C6 2.66 6 3.32 6 4 C3.69 3.67 1.38 3.34 -1 3 C-0.67 2.01 -0.34 1.02 0 0 Z " fill="#F8F8F8" transform="translate(575,725)"/>
<path d="M0 0 C0 3.57575896 -1.08840607 5.05295935 -3 8 C-3.99 7.67 -4.98 7.34 -6 7 C-6 6.34 -6 5.68 -6 5 C-4.04072937 3.2856382 -2.04119788 1.61594832 0 0 Z " fill="#9E9083" transform="translate(722,701)"/>
<path d="M0 0 C0.33 0.99 0.66 1.98 1 3 C1.99 3.33 2.98 3.66 4 4 C2.1875 5.0625 2.1875 5.0625 0 6 C-0.99 5.67 -1.98 5.34 -3 5 C-2.01 3.35 -1.02 1.7 0 0 Z " fill="#CDCDCC" transform="translate(767,628)"/>
<path d="M0 0 C-0.33 0.99 -0.66 1.98 -1 3 C-2.98 3.33 -4.96 3.66 -7 4 C-7 3.01 -7 2.02 -7 1 C-4.50935112 0.31292445 -2.62113708 0 0 0 Z " fill="#1C1D1C" transform="translate(612,611)"/>
</svg>
