<svg xmlns="http://www.w3.org/2000/svg" width="512" height="512" viewBox="0 0 512 512">
<g>
<path d="M 0.10 482.75 L 0.00 512.00 L 0.00 0.00 L 0.10 29.25 C0.16,45.34 0.53,57.15 0.94,55.50 C2.14,50.54 4.64,46.56 9.05,42.58 C10.18,41.55 10.98,40.68 11.88,39.95 C16.79,35.97 24.91,35.98 108.39,36.00 C114.79,36.00 121.64,36.00 128.97,36.00 L 238.00 36.00 L 238.00 476.00 L 128.97 476.00 C121.64,476.00 114.79,476.00 108.39,476.00 C24.91,476.02 16.79,476.03 11.88,472.05 C10.98,471.32 10.18,470.45 9.05,469.42 C4.64,465.44 2.14,461.46 0.94,456.50 C0.53,454.85 0.16,466.66 0.10,482.75 ZM 93.42 325.58 C95.86,326.64 107.39,326.93 149.12,326.96 C178.07,326.98 203.20,326.71 204.98,326.35 C208.54,325.64 211.99,321.13 212.00,317.17 C212.00,315.89 210.68,313.53 209.08,311.92 L 206.15 309.00 L 150.21 309.00 C95.93,309.00 94.19,309.06 91.75,310.98 C86.63,315.01 87.55,323.02 93.42,325.58 ZM 93.30 254.99 C94.51,255.47 120.40,255.90 150.83,255.94 L 206.15 256.00 L 209.20 252.95 C211.82,250.33 212.16,249.40 211.66,246.26 C211.33,244.26 210.14,241.69 209.00,240.56 C206.98,238.54 205.93,238.49 153.22,238.20 C123.68,238.04 98.10,238.16 96.38,238.47 C92.45,239.19 89.33,241.86 88.49,245.20 C87.67,248.44 90.30,253.78 93.30,254.99 ZM 90.81 181.96 L 93.85 185.00 L 206.82 185.00 L 209.41 181.92 C212.80,177.89 212.70,174.55 209.08,170.92 L 206.15 168.00 L 93.35 168.00 L 91.19 170.30 C90.00,171.56 88.75,174.02 88.40,175.76 C87.87,178.40 88.27,179.42 90.81,181.96 ZM 91.55 394.75 L 94.11 397.00 L 206.15 397.00 L 209.08 394.08 C210.68,392.47 212.00,390.09 212.00,388.80 C212.00,386.48 209.64,382.21 207.56,380.77 C206.98,380.36 181.00,380.02 149.84,380.02 L 93.18 380.00 L 90.50 383.18 C87.25,387.04 87.64,391.31 91.55,394.75 ZM 29.11 129.62 C30.68,131.29 32.45,132.00 35.02,132.00 C38.18,132.00 41.30,130.04 57.59,117.85 C67.99,110.07 77.04,102.99 77.71,102.10 C78.39,101.22 78.95,98.85 78.97,96.83 C79.00,92.59 77.19,90.85 56.24,75.15 C41.09,63.80 38.19,62.01 34.88,62.00 C31.52,62.00 27.37,65.27 26.78,68.39 C25.84,73.27 28.50,76.50 41.64,86.43 C48.71,91.78 54.50,96.60 54.50,97.15 C54.50,97.71 48.42,102.74 41.00,108.33 C27.57,118.44 27.50,118.52 27.19,122.87 C26.94,126.29 27.36,127.75 29.11,129.62 ZM 108.92 359.08 L 111.85 362.00 L 149.38 362.00 C174.75,362.00 187.70,361.64 189.34,360.89 C194.27,358.64 195.41,351.75 191.59,347.31 L 189.17 344.50 L 150.54 344.22 L 111.91 343.93 L 108.96 346.89 C104.99,350.85 104.98,355.13 108.92,359.08 ZM 111.33 431.54 C113.82,432.63 122.06,432.93 149.78,432.96 C187.30,433.00 190.51,432.64 192.92,428.15 C194.34,425.49 194.24,420.90 192.72,418.91 C189.85,415.17 187.93,415.00 149.49,415.00 L 111.85 415.00 L 108.92 417.92 C104.21,422.64 105.32,428.93 111.33,431.54 ZM 111.36 220.03 C112.54,220.51 130.53,220.82 151.34,220.70 L 189.17 220.50 L 191.59 217.69 C194.92,213.81 194.74,209.59 191.08,205.92 L 188.15 203.00 L 111.85 203.00 L 108.92 205.92 C104.36,210.49 105.59,217.65 111.36,220.03 ZM 108.45 288.55 L 110.91 291.00 L 189.09 291.00 L 191.55 288.55 C194.84,285.25 194.84,280.20 191.55,276.65 L 189.10 274.00 L 150.63 274.00 C129.47,274.00 111.44,274.28 110.54,274.62 C108.44,275.43 106.00,280.19 106.00,283.50 C106.00,284.92 107.10,287.20 108.45,288.55 ZM 100.91 130.72 C102.04,131.58 108.60,131.95 123.64,131.97 C147.73,132.00 148.69,131.73 149.66,124.48 C150.12,121.06 149.80,120.07 147.46,117.74 L 144.73 115.00 L 102.85 115.00 L 99.92 117.92 C95.92,121.93 96.33,127.20 100.91,130.72 ZM 31.52 325.44 C33.82,326.63 37.86,326.99 49.12,326.99 C62.52,327.00 63.95,326.82 66.44,324.87 C70.32,321.82 71.29,318.63 69.58,314.53 C68.80,312.68 67.26,310.67 66.15,310.08 C64.94,309.43 57.65,309.00 48.02,309.00 C32.25,309.00 31.86,309.05 29.45,311.45 C27.70,313.21 27.00,314.99 27.02,317.70 C27.03,322.32 27.68,323.43 31.52,325.44 ZM 29.65 253.55 C32.21,255.93 32.74,256.00 47.58,256.00 C55.99,256.00 64.05,255.55 65.48,255.01 C67.04,254.42 68.70,252.58 69.58,250.47 C70.90,247.31 70.89,246.56 69.48,243.60 C68.61,241.77 66.78,239.76 65.40,239.14 C62.23,237.69 36.38,237.62 32.29,239.05 C26.31,241.13 24.85,249.11 29.65,253.55 ZM 29.65 359.55 C32.22,361.93 32.73,362.00 47.70,362.00 C64.94,362.00 68.05,361.16 69.84,356.03 C71.27,351.92 69.59,347.36 65.94,345.47 C62.67,343.78 36.85,343.35 32.72,344.92 C28.68,346.45 27.00,348.87 27.00,353.12 C27.00,356.13 27.64,357.69 29.65,359.55 ZM 33.00 220.29 C33.83,220.60 41.08,220.88 49.12,220.92 C62.58,220.99 63.94,220.83 66.44,218.87 C70.32,215.82 71.29,212.63 69.58,208.53 C68.80,206.68 67.26,204.67 66.15,204.08 C64.94,203.43 57.65,203.00 48.02,203.00 C32.25,203.00 31.86,203.05 29.45,205.45 C24.89,210.02 26.81,218.03 33.00,220.29 ZM 33.00 432.35 C33.83,432.68 41.32,432.85 49.65,432.72 C63.20,432.52 65.02,432.29 67.01,430.50 C70.42,427.42 71.20,424.41 69.58,420.53 C68.80,418.68 67.26,416.67 66.15,416.08 C64.94,415.43 57.65,415.00 48.02,415.00 C32.25,415.00 31.86,415.05 29.45,417.45 C24.89,422.02 26.75,429.84 33.00,432.35 ZM 29.45 394.55 C31.86,396.95 32.22,397.00 48.40,397.00 C64.12,397.00 65.01,396.89 67.54,394.72 C71.12,391.64 71.34,386.06 68.02,382.52 C65.67,380.02 65.54,380.00 48.64,380.00 C32.55,380.00 31.50,380.12 29.31,382.17 C26.06,385.23 26.13,391.22 29.45,394.55 ZM 29.07 288.37 L 31.15 291.00 L 47.94 291.00 C63.17,291.00 64.96,290.82 67.25,289.02 C68.64,287.92 70.06,285.90 70.41,284.51 C71.16,281.53 68.86,276.53 66.06,275.03 C64.96,274.45 57.16,274.00 48.02,274.00 C32.25,274.00 31.86,274.05 29.45,276.45 C26.36,279.55 26.20,284.71 29.07,288.37 ZM 29.45 182.55 C31.87,184.96 32.20,185.00 48.78,185.00 C65.33,185.00 65.69,184.95 67.92,182.58 C71.30,178.98 71.18,173.41 67.65,170.37 C64.99,168.08 64.31,168.00 48.40,168.00 C32.22,168.00 31.86,168.05 29.45,170.45 C26.12,173.79 26.12,179.21 29.45,182.55 Z" fill="rgb(69,79,93)"/>
<path d="M 262.52 510.61 C260.00,511.70 280.52,511.93 385.75,511.96 L 512.00 512.00 L 0.00 512.00 L 126.25 511.92 C233.46,511.85 252.03,511.63 249.41,510.48 C245.07,508.58 240.29,502.79 238.95,497.82 C238.33,495.51 237.97,489.88 238.16,485.31 L 238.50 477.00 L 130.93 477.00 C124.13,477.00 117.74,477.00 111.74,477.00 C27.52,477.02 18.43,477.02 12.79,472.71 C18.00,476.03 29.79,476.02 108.39,476.00 C114.79,476.00 121.64,476.00 128.97,476.00 L 238.00 476.00 L 238.00 36.00 L 128.97 36.00 C121.64,36.00 114.79,36.00 108.39,36.00 C29.79,35.98 18.00,35.97 12.79,39.29 C18.43,34.98 27.52,34.98 111.74,35.00 C117.74,35.00 124.13,35.00 130.93,35.00 L 238.50 35.00 L 238.16 26.69 C237.97,22.12 238.33,16.49 238.95,14.18 C240.29,9.21 245.07,3.42 249.41,1.52 C252.03,0.37 233.46,0.15 126.25,0.08 L 0.00 0.00 L 512.00 0.00 L 385.75 0.08 C278.54,0.15 259.97,0.37 262.59,1.52 C266.79,3.36 271.70,9.17 272.92,13.74 C274.27,18.77 274.23,492.97 272.88,498.26 C271.72,502.78 266.68,508.79 262.52,510.61 ZM 93.42 325.58 C87.55,323.02 86.63,315.01 91.75,310.98 C94.19,309.06 95.93,309.00 150.21,309.00 L 206.15 309.00 L 209.08 311.92 C210.68,313.53 212.00,315.89 212.00,317.17 C211.99,321.13 208.54,325.64 204.98,326.35 C203.20,326.71 178.07,326.98 149.12,326.96 C107.39,326.93 95.86,326.64 93.42,325.58 ZM 93.30 254.99 C90.30,253.78 87.67,248.44 88.49,245.20 C89.33,241.86 92.45,239.19 96.38,238.47 C98.10,238.16 123.68,238.04 153.22,238.20 C205.93,238.49 206.98,238.54 209.00,240.56 C210.14,241.69 211.33,244.26 211.66,246.26 C212.16,249.40 211.82,250.33 209.20,252.95 L 206.15 256.00 L 150.83 255.94 C120.40,255.90 94.51,255.47 93.30,254.99 ZM 90.81 181.96 C88.27,179.42 87.87,178.40 88.40,175.76 C88.75,174.02 90.00,171.56 91.19,170.30 L 93.35 168.00 L 206.15 168.00 L 209.08 170.92 C212.70,174.55 212.80,177.89 209.41,181.92 L 206.82 185.00 L 93.85 185.00 ZM 91.55 394.75 C87.64,391.31 87.25,387.04 90.50,383.18 L 93.18 380.00 L 149.84 380.02 C181.00,380.02 206.98,380.36 207.56,380.77 C209.64,382.21 212.00,386.48 212.00,388.80 C212.00,390.09 210.68,392.47 209.08,394.08 L 206.15 397.00 L 94.11 397.00 ZM 484.57 113.53 C480.65,114.70 472.70,115.00 445.94,115.00 L 412.24 115.00 L 411.66 109.25 C411.33,106.09 410.78,102.04 410.42,100.25 L 409.77 97.00 L 480.09 97.00 L 482.55 94.55 C484.71,92.38 485.00,91.21 485.00,84.69 L 485.00 77.29 L 489.98 78.27 C493.33,78.94 496.30,78.91 499.09,78.21 L 503.23 77.16 L 502.84 86.86 C502.50,95.21 502.07,97.21 499.72,101.21 C496.18,107.25 490.72,111.69 484.57,113.53 ZM 29.11 129.62 C27.36,127.75 26.94,126.29 27.19,122.87 C27.50,118.52 27.57,118.44 41.00,108.33 C48.42,102.74 54.50,97.71 54.50,97.15 C54.50,96.60 48.71,91.78 41.64,86.43 C28.50,76.50 25.84,73.27 26.78,68.39 C27.37,65.27 31.52,62.00 34.88,62.00 C38.19,62.01 41.09,63.80 56.24,75.15 C77.19,90.85 79.00,92.59 78.97,96.83 C78.95,98.85 78.39,101.22 77.71,102.10 C77.04,102.99 67.99,110.07 57.59,117.85 C41.30,130.04 38.18,132.00 35.02,132.00 C32.45,132.00 30.68,131.29 29.11,129.62 ZM 437.11 78.98 C428.90,80.54 396.51,80.32 395.16,78.70 C394.57,77.98 391.93,76.32 389.29,75.01 C386.66,73.70 381.36,70.35 377.51,67.57 L 370.53 62.50 L 403.35 62.00 L 436.18 61.50 L 438.59 58.69 C440.84,56.08 441.00,55.10 441.00,44.36 L 441.00 32.84 L 444.25 33.57 C447.91,34.38 454.48,34.30 457.31,33.40 C459.11,32.83 459.18,33.47 458.85,46.65 C458.51,59.83 458.35,60.76 455.51,65.90 C451.84,72.52 444.82,77.52 437.11,78.98 ZM 108.92 359.08 C104.98,355.13 104.99,350.85 108.96,346.89 L 111.91 343.93 L 150.54 344.22 L 189.17 344.50 L 191.59 347.31 C195.41,351.75 194.27,358.64 189.34,360.89 C187.70,361.64 174.75,362.00 149.38,362.00 L 111.85 362.00 ZM 111.33 431.54 C105.32,428.93 104.21,422.64 108.92,417.92 L 111.85 415.00 L 149.49 415.00 C187.93,415.00 189.85,415.17 192.72,418.91 C194.24,420.90 194.34,425.49 192.92,428.15 C190.51,432.64 187.30,433.00 149.78,432.96 C122.06,432.93 113.82,432.63 111.33,431.54 ZM 111.36 220.03 C105.59,217.65 104.36,210.49 108.92,205.92 L 111.85 203.00 L 188.15 203.00 L 191.08 205.92 C194.74,209.59 194.92,213.81 191.59,217.69 L 189.17 220.50 L 151.34 220.70 C130.53,220.82 112.54,220.51 111.36,220.03 ZM 108.45 288.55 C107.10,287.20 106.00,284.92 106.00,283.50 C106.00,280.19 108.44,275.43 110.54,274.62 C111.44,274.28 129.47,274.00 150.63,274.00 L 189.10 274.00 L 191.55 276.65 C194.84,280.20 194.84,285.25 191.55,288.55 L 189.09 291.00 L 110.91 291.00 ZM 498.37 433.55 C495.69,433.18 491.58,433.31 489.25,433.83 L 485.00 434.79 L 485.00 427.35 C485.00,420.78 484.71,419.62 482.55,417.45 C480.09,415.00 480.08,415.00 458.70,415.00 L 437.32 415.00 L 438.17 410.25 C438.65,407.64 439.31,403.59 439.65,401.25 L 440.26 397.00 L 459.95 397.00 C482.04,397.00 487.04,397.91 493.25,403.04 C495.31,404.75 498.22,408.23 499.71,410.77 C502.02,414.70 502.49,416.82 502.84,424.81 L 503.25 434.22 ZM 451.50 477.83 C449.30,477.71 446.04,477.96 444.25,478.39 L 441.00 479.16 L 441.00 467.64 C441.00,456.90 440.84,455.92 438.59,453.31 L 436.18 450.50 L 412.56 450.20 C398.01,450.01 389.17,449.53 389.53,448.95 C389.85,448.43 392.01,448.00 394.31,448.00 C398.37,448.00 408.53,444.85 414.57,441.72 C416.18,440.88 419.66,438.30 422.29,435.98 L 427.09 431.75 L 433.25 432.45 C444.27,433.70 450.91,437.80 455.59,446.25 C458.34,451.21 458.51,452.26 458.85,465.35 C459.18,478.44 459.10,479.17 457.35,478.63 C456.33,478.31 453.70,477.96 451.50,477.83 ZM 100.91 130.72 C96.33,127.20 95.92,121.93 99.92,117.92 L 102.85 115.00 L 144.73 115.00 L 147.46 117.74 C149.80,120.07 150.12,121.06 149.66,124.48 C148.69,131.73 147.73,132.00 123.64,131.97 C108.60,131.95 102.04,131.58 100.91,130.72 ZM 31.52 325.44 C27.68,323.43 27.03,322.32 27.02,317.70 C27.00,314.99 27.70,313.21 29.45,311.45 C31.86,309.05 32.25,309.00 48.02,309.00 C57.65,309.00 64.94,309.43 66.15,310.08 C67.26,310.67 68.80,312.68 69.58,314.53 C71.29,318.63 70.32,321.82 66.44,324.87 C63.95,326.82 62.52,327.00 49.12,326.99 C37.86,326.99 33.82,326.63 31.52,325.44 ZM 29.65 253.55 C24.85,249.11 26.31,241.13 32.29,239.05 C36.38,237.62 62.23,237.69 65.40,239.14 C66.78,239.76 68.61,241.77 69.48,243.60 C70.89,246.56 70.90,247.31 69.58,250.47 C68.70,252.58 67.04,254.42 65.48,255.01 C64.05,255.55 55.99,256.00 47.58,256.00 C32.74,256.00 32.21,255.93 29.65,253.55 ZM 29.65 359.55 C27.64,357.69 27.00,356.13 27.00,353.12 C27.00,348.87 28.68,346.45 32.72,344.92 C36.85,343.35 62.67,343.78 65.94,345.47 C69.59,347.36 71.27,351.92 69.84,356.03 C68.05,361.16 64.94,362.00 47.70,362.00 C32.73,362.00 32.22,361.93 29.65,359.55 ZM 33.00 220.29 C26.81,218.03 24.89,210.02 29.45,205.45 C31.86,203.05 32.25,203.00 48.02,203.00 C57.65,203.00 64.94,203.43 66.15,204.08 C67.26,204.67 68.80,206.68 69.58,208.53 C71.29,212.63 70.32,215.82 66.44,218.87 C63.94,220.83 62.58,220.99 49.12,220.92 C41.08,220.88 33.83,220.60 33.00,220.29 ZM 33.00 432.35 C26.75,429.84 24.89,422.02 29.45,417.45 C31.86,415.05 32.25,415.00 48.02,415.00 C57.65,415.00 64.94,415.43 66.15,416.08 C67.26,416.67 68.80,418.68 69.58,420.53 C71.20,424.41 70.42,427.42 67.01,430.50 C65.02,432.29 63.20,432.52 49.65,432.72 C41.32,432.85 33.83,432.68 33.00,432.35 ZM 29.45 394.55 C26.13,391.22 26.06,385.23 29.31,382.17 C31.50,380.12 32.55,380.00 48.64,380.00 C65.54,380.00 65.67,380.02 68.02,382.52 C71.34,386.06 71.12,391.64 67.54,394.72 C65.01,396.89 64.12,397.00 48.40,397.00 C32.22,397.00 31.86,396.95 29.45,394.55 ZM 29.07 288.37 C26.20,284.71 26.36,279.55 29.45,276.45 C31.86,274.05 32.25,274.00 48.02,274.00 C57.16,274.00 64.96,274.45 66.06,275.03 C68.86,276.53 71.16,281.53 70.41,284.51 C70.06,285.90 68.64,287.92 67.25,289.02 C64.96,290.82 63.17,291.00 47.94,291.00 L 31.15 291.00 ZM 29.45 182.55 C26.12,179.21 26.12,173.79 29.45,170.45 C31.86,168.05 32.22,168.00 48.40,168.00 C64.31,168.00 64.99,168.08 67.65,170.37 C71.18,173.41 71.30,178.98 67.92,182.58 C65.69,184.95 65.33,185.00 48.78,185.00 C32.20,185.00 31.87,184.96 29.45,182.55 ZM 0.71 456.98 C0.78,456.36 0.86,456.18 0.94,456.50 C1.18,457.49 1.47,458.44 1.82,459.36 ZM 1.82 52.64 C1.47,53.56 1.18,54.51 0.94,55.50 C0.86,55.82 0.78,55.64 0.71,55.02 Z" fill="rgb(130,198,190)"/>
<path d="M 407.91 93.78 L 409.24 97.00 L 409.77 97.00 L 410.42 100.25 C410.78,102.04 411.33,106.09 411.66,109.25 L 412.24 115.00 L 412.23 115.00 L 411.59 119.26 C411.24,121.60 409.84,125.92 408.48,128.86 C407.11,131.79 406.00,134.31 406.00,134.44 C406.00,134.57 409.18,135.25 413.07,135.94 C433.49,139.59 451.69,156.86 456.46,177.10 C458.13,184.17 458.42,195.47 457.09,201.20 C456.37,204.31 456.55,205.19 458.25,206.70 C464.33,212.12 471.67,224.65 474.57,234.54 C476.72,241.88 476.97,256.42 475.08,264.00 C473.24,271.34 467.89,282.21 463.40,287.69 L 459.75 292.14 L 462.72 295.32 C479.30,313.05 481.10,337.90 467.14,356.29 C459.93,365.78 445.99,374.00 437.10,374.00 C434.52,374.00 434.51,374.60 436.91,381.78 C437.97,384.93 439.14,389.64 439.53,392.25 L 440.23 397.00 L 440.26 397.00 L 439.65 401.25 C439.31,403.59 438.65,407.64 438.17,410.25 L 437.32 415.00 L 437.03 415.00 L 434.37 420.25 C432.91,423.14 430.65,426.90 429.34,428.62 L 426.96 431.74 L 427.09 431.75 L 422.29 435.98 C419.66,438.30 416.18,440.88 414.57,441.72 C408.53,444.85 398.37,448.00 394.31,448.00 C392.01,448.00 389.85,448.43 389.53,448.95 C389.17,449.53 398.01,450.01 412.56,450.20 L 436.18 450.50 L 412.34 450.21 L 388.50 449.92 L 386.00 454.68 C382.74,460.90 373.29,470.95 366.41,475.51 C344.05,490.36 312.45,487.52 292.53,468.88 C283.57,460.50 278.56,451.18 274.30,435.00 C273.70,432.75 273.53,442.53 273.81,462.50 C274.10,484.13 273.88,494.79 273.07,497.76 C272.92,498.32 272.73,498.89 272.49,499.47 C272.65,499.06 272.78,498.66 272.88,498.26 C274.22,492.98 274.27,21.08 272.93,13.78 C272.97,13.91 273.01,14.04 273.05,14.17 C273.79,16.95 274.05,26.29 273.79,41.69 C273.58,54.51 273.49,65.00 273.60,65.00 C273.71,65.00 274.78,61.81 275.96,57.90 C277.76,51.97 279.05,49.85 283.81,44.99 C288.47,40.22 290.57,38.86 295.45,37.45 C311.03,32.97 335.39,40.66 366.18,59.79 C369.85,62.07 369.97,62.08 403.02,61.79 L 436.18 61.50 L 403.35 62.00 L 370.53 62.50 L 377.51 67.57 C381.36,70.35 386.66,73.70 389.29,75.01 C391.93,76.32 394.57,77.98 395.16,78.70 C395.77,79.43 402.64,79.87 410.77,80.00 L 397.98 80.00 L 402.27 85.28 C404.64,88.18 407.17,92.00 407.91,93.78 ZM 498.37 433.55 L 503.25 434.22 L 502.84 424.97 C503.25,434.37 503.31,434.55 507.13,438.88 C509.26,441.30 511.00,443.67 511.00,444.14 C511.00,444.61 511.23,445.00 511.50,445.00 C511.77,445.00 511.99,359.84 511.97,255.75 C511.95,117.60 511.64,67.04 510.84,68.50 C510.23,69.60 508.27,72.07 506.47,74.00 C503.77,76.89 503.28,77.68 502.97,83.66 L 503.23 77.16 L 499.09 78.21 C496.30,78.91 493.33,78.94 489.98,78.27 L 485.00 77.29 L 485.00 84.69 C485.00,88.88 484.88,90.86 484.22,92.31 C484.89,90.82 485.00,88.72 485.00,84.08 C485.00,76.98 484.76,75.94 482.91,74.95 C478.03,72.34 475.40,60.00 478.46,54.07 C481.75,47.71 490.77,43.13 497.21,44.55 C502.24,45.65 506.86,48.96 509.49,53.35 L 511.98 57.50 L 512.00 0.00 L 454.50 0.09 L 458.25 2.07 C462.43,4.27 466.64,9.93 467.57,14.58 C468.49,19.22 466.23,25.97 462.51,29.69 L 459.19 33.01 L 458.85 46.65 C459.18,33.47 459.11,32.83 457.31,33.40 C454.48,34.30 447.91,34.38 444.25,33.57 L 441.00 32.84 L 441.00 44.05 C441.00,34.61 440.71,32.10 439.54,31.65 C436.39,30.45 433.00,23.24 433.00,17.77 C433.01,11.37 435.27,7.27 441.12,3.03 L 445.24 0.04 L 512.00 0.00 L 512.00 512.00 L 511.98 454.50 L 509.49 458.65 C506.86,463.04 502.24,466.35 497.21,467.45 C490.77,468.87 481.75,464.29 478.46,457.93 C475.30,451.81 477.93,439.72 483.00,437.00 C484.74,436.07 485.00,434.90 485.00,427.92 C485.00,423.27 484.89,421.18 484.22,419.68 C484.88,421.14 485.00,423.13 485.00,427.35 L 485.00 434.79 L 489.25 433.83 C491.58,433.31 495.69,433.18 498.37,433.55 ZM 451.50 477.83 C453.70,477.96 456.33,478.31 457.35,478.63 C459.10,479.17 459.18,478.44 458.85,465.35 L 459.19 478.99 L 462.51 482.31 C466.23,486.03 468.49,492.78 467.57,497.42 C466.64,502.07 462.43,507.73 458.25,509.93 L 454.50 511.91 L 512.00 512.00 L 445.27 511.98 L 441.12 508.97 C435.25,504.72 433.01,500.63 433.00,494.18 C433.00,489.88 433.59,488.01 436.05,484.43 C437.72,481.99 439.52,480.00 440.05,480.00 C440.60,480.00 441.00,474.95 441.00,468.06 L 441.00 479.16 L 444.25 478.39 C446.04,477.96 449.30,477.71 451.50,477.83 ZM 485.35 113.28 C489.12,112.01 492.61,109.75 495.52,106.75 C494.73,107.61 493.94,108.38 493.25,108.96 C490.75,111.02 488.74,112.38 485.35,113.28 ZM 262.59 1.52 C264.51,2.36 266.51,3.96 268.26,5.91 C266.49,3.96 264.47,2.34 262.59,1.52 ZM 268.13 506.24 C266.37,508.20 264.39,509.79 262.52,510.61 C264.36,509.81 266.36,508.19 268.13,506.24 ZM 462.89 114.93 C458.19,114.99 452.61,115.00 445.94,115.00 C452.72,115.00 458.29,114.98 462.89,114.93 Z" fill="rgb(247,89,94)"/>
<path d="M 0.01 483.75 L 0.02 455.50 L 2.37 460.54 C3.68,463.36 6.78,467.40 9.41,469.71 C18.21,477.46 10.51,477.00 130.93,477.00 L 238.50 477.00 L 238.16 485.31 C237.97,489.88 238.33,495.51 238.95,497.82 C240.29,502.79 245.07,508.58 249.41,510.48 C252.03,511.63 233.46,511.85 126.25,511.92 L 0.00 512.00 L 0.01 483.75 ZM 262.52 510.61 C266.80,508.74 271.72,502.76 273.07,497.76 C273.88,494.79 274.10,484.13 273.81,462.50 C273.53,442.53 273.70,432.75 274.30,435.00 C278.56,451.18 283.57,460.50 292.53,468.88 C312.45,487.52 344.05,490.36 366.41,475.51 C373.29,470.95 382.74,460.90 386.00,454.68 L 388.50 449.92 L 412.34 450.21 L 436.18 450.50 L 438.59 453.31 C440.85,455.93 441.00,456.87 441.00,468.06 C441.00,474.95 440.60,480.00 440.05,480.00 C439.52,480.00 437.72,481.99 436.05,484.43 C433.59,488.01 433.00,489.88 433.00,494.18 C433.01,500.63 435.25,504.72 441.12,508.97 L 445.30 512.00 L 352.40 511.96 C274.73,511.93 259.99,511.71 262.52,510.61 ZM 458.25 509.93 C462.43,507.73 466.64,502.07 467.57,497.42 C468.49,492.78 466.23,486.03 462.51,482.31 L 459.19 478.99 L 458.84 465.25 C458.51,452.26 458.33,451.21 455.59,446.25 C450.90,437.78 444.27,433.70 433.19,432.44 L 426.96 431.74 L 429.34 428.62 C430.65,426.90 432.91,423.14 434.37,420.25 L 437.03 415.00 L 458.56 415.00 C480.09,415.00 480.09,415.00 482.55,417.45 C484.74,419.65 485.00,420.75 485.00,427.92 C485.00,434.90 484.74,436.07 483.00,437.00 C477.93,439.72 475.30,451.81 478.46,457.93 C481.75,464.29 490.77,468.87 497.21,467.45 C502.24,466.35 506.86,463.04 509.49,458.65 L 511.98 454.50 L 511.99 483.25 L 512.00 512.00 L 483.25 511.96 L 454.50 511.91 L 458.25 509.93 ZM 511.00 444.14 C511.00,443.67 509.26,441.30 507.13,438.88 C503.31,434.55 503.25,434.37 502.84,424.94 C502.49,416.82 502.02,414.72 499.71,410.77 C498.22,408.23 495.31,404.75 493.25,403.04 C487.04,397.91 482.04,397.00 459.93,397.00 L 440.23 397.00 L 439.53 392.25 C439.14,389.64 437.97,384.93 436.91,381.78 C434.51,374.60 434.52,374.00 437.10,374.00 C445.99,374.00 459.93,365.78 467.14,356.29 C481.10,337.90 479.30,313.05 462.72,295.32 L 459.75 292.14 L 463.40 287.69 C467.89,282.21 473.24,271.34 475.08,264.00 C476.97,256.42 476.72,241.88 474.57,234.54 C471.67,224.65 464.33,212.12 458.25,206.70 C456.55,205.19 456.37,204.31 457.09,201.20 C458.42,195.47 458.13,184.17 456.46,177.10 C451.69,156.86 433.49,139.59 413.07,135.94 C409.18,135.25 406.00,134.57 406.00,134.44 C406.00,134.31 407.11,131.79 408.48,128.86 C409.84,125.92 411.24,121.60 411.59,119.26 L 412.23 115.00 L 445.93 115.00 C483.20,115.00 486.44,114.59 493.25,108.96 C495.31,107.25 498.22,103.77 499.71,101.23 C502.03,97.27 502.48,95.22 502.81,87.05 C503.18,77.88 503.33,77.36 506.47,74.00 C508.27,72.07 510.23,69.60 510.84,68.50 C511.64,67.04 511.95,117.60 511.97,255.75 C511.99,359.84 511.77,445.00 511.50,445.00 C511.23,445.00 511.00,444.61 511.00,444.14 ZM 407.91 93.78 C407.17,92.00 404.64,88.18 402.27,85.28 L 397.98 80.00 L 414.85 80.00 C424.13,80.00 434.15,79.54 437.11,78.98 C444.82,77.52 451.84,72.52 455.51,65.90 C458.35,60.77 458.51,59.82 458.84,46.75 L 459.19 33.01 L 462.51 29.69 C466.23,25.97 468.49,19.22 467.57,14.58 C466.64,9.93 462.43,4.27 458.25,2.07 L 454.50 0.09 L 483.25 0.04 L 512.00 0.00 L 511.99 28.75 L 511.98 57.50 L 509.49 53.35 C506.86,48.96 502.24,45.65 497.21,44.55 C490.77,43.13 481.75,47.71 478.46,54.07 C475.40,60.00 478.03,72.34 482.91,74.95 C484.76,75.94 485.00,76.98 485.00,84.08 C485.00,91.25 484.74,92.35 482.55,94.55 L 480.09 97.00 L 444.67 97.00 L 409.24 97.00 L 407.91 93.78 ZM 273.79 41.69 C274.05,26.29 273.79,16.95 273.05,14.17 C271.71,9.21 266.93,3.42 262.59,1.52 C259.96,0.36 273.27,0.15 352.40,0.08 L 445.30 -0.00 L 441.12 3.03 C435.27,7.27 433.01,11.37 433.00,17.77 C433.00,23.24 436.39,30.45 439.54,31.65 C440.71,32.10 441.00,34.61 441.00,44.05 C441.00,55.12 440.84,56.07 438.59,58.69 L 436.18 61.50 L 403.02 61.79 C369.97,62.08 369.85,62.07 366.18,59.79 C335.39,40.66 311.03,32.97 295.45,37.45 C290.57,38.86 288.47,40.22 283.81,44.99 C279.05,49.85 277.76,51.97 275.96,57.90 C274.78,61.81 273.71,65.00 273.60,65.00 C273.49,65.00 273.58,54.51 273.79,41.69 ZM 0.01 28.25 L 0.00 0.00 L 126.25 0.08 C233.46,0.15 252.03,0.37 249.41,1.52 C245.07,3.42 240.29,9.21 238.95,14.18 C238.33,16.49 237.97,22.12 238.16,26.69 L 238.50 35.00 L 130.93 35.00 C10.51,35.00 18.21,34.54 9.41,42.29 C6.78,44.60 3.68,48.64 2.37,51.46 L 0.02 56.50 L 0.01 28.25 Z" fill="rgb(254,254,253)"/>
</g>
</svg>